SplineFontDB: 3.0
FontName: Vazir-Bold
FullName: Vazir Bold
FamilyName: Vazir
Weight: Bold
Copyright: Copyright (c) 2003 by Bitstream, Inc. All Rights Reserved.\nDejaVu changes are in public domain\nChanges by Saber Rastikerdar are in public domain.
Version: 2-RC2
ItalicAngle: 0
UnderlinePosition: -100
UnderlineWidth: 100
Ascent: 1536
Descent: 512
InvalidEm: 0
LayerCount: 2
Layer: 0 1 "Back" 1
Layer: 1 1 "Fore" 0
XUID: [1021 502 1027637223 7976065]
UniqueID: 4242704
UseUniqueID: 1
FSType: 0
OS2Version: 1
OS2_WeightWidthSlopeOnly: 0
OS2_UseTypoMetrics: 1
CreationTime: 1431850356
ModificationTime: 1457572265
PfmFamily: 33
TTFWeight: 700
TTFWidth: 5
LineGap: 0
VLineGap: 0
Panose: 2 11 6 3 3 8 4 2 2 4
OS2TypoAscent: 2250
OS2TypoAOffset: 0
OS2TypoDescent: -750
OS2TypoDOffset: 0
OS2TypoLinegap: 0
OS2WinAscent: 2250
OS2WinAOffset: 0
OS2WinDescent: 750
OS2WinDOffset: 0
HheadAscent: 2250
HheadAOffset: 0
HheadDescent: -750
HheadDOffset: 0
OS2SubXSize: 1331
OS2SubYSize: 1433
OS2SubXOff: 0
OS2SubYOff: 286
OS2SupXSize: 1331
OS2SupYSize: 1433
OS2SupXOff: 0
OS2SupYOff: 983
OS2StrikeYSize: 102
OS2StrikeYPos: 530
OS2Vendor: 'PfEd'
OS2CodePages: 600001ff.dfff0000
Lookup: 1 0 0 "'case' Case-Sensitive Forms in Latin lookup 0" { "'case' Case-Sensitive Forms in Latin lookup 0 subtable"  } ['case' ('DFLT' <'dflt' > 'latn' <'CAT ' 'ESP ' 'GAL ' 'dflt' > ) ]
Lookup: 6 1 0 "'ccmp' Glyph Composition/Decomposition lookup 2" { "'ccmp' Glyph Composition/Decomposition lookup 2 subtable"  } ['ccmp' ('arab' <'KUR ' 'SND ' 'URD ' 'dflt' > 'hebr' <'dflt' > 'nko ' <'dflt' > ) ]
Lookup: 6 0 0 "'ccmp' Glyph Composition/Decomposition lookup 3" { "'ccmp' Glyph Composition/Decomposition lookup 3 subtable"  } ['ccmp' ('cyrl' <'MKD ' 'SRB ' 'dflt' > 'grek' <'dflt' > 'latn' <'ISM ' 'KSM ' 'LSM ' 'MOL ' 'NSM ' 'ROM ' 'SKS ' 'SSM ' 'dflt' > ) ]

StartChar: exclam
Encoding: 33 33 1
Width: 886
VWidth: 2286
GlyphClass: 2
Flags: W
LayerCount: 2
Fore
SplineSet
281.595703125 323.336914062 m 1,0,-1
 604.404296875 323.336914062 l 1,1,-1
 604.404296875 0 l 1,2,-1
 281.595703125 0 l 1,3,-1
 281.595703125 323.336914062 l 1,0,-1
303.008789062 1616.97265625 m 1,4,-1
 588.25390625 1616.97265625 l 1,5,-1
 588.25390625 901.684570312 l 1,6,-1
 565.543945312 496.55859375 l 1,7,-1
 326.848632812 496.55859375 l 1,8,-1
 302.99609375 902.043945312 l 1,9,-1
 303.008789062 1616.97265625 l 1,4,-1
EndSplineSet
EndChar

StartChar: parenleft
Encoding: 40 40 2
Width: 878
GlyphClass: 2
Flags: W
GlyphCompositionVertical: 3  uni239D%0,0,48,2968 uni239C%1,48,48,2999 uni239B%0,48,0,3009
LayerCount: 2
Fore
SplineSet
714 -270 m 5,0,-1
 475 -270 l 1,1,2
 322 -23 322 -23 249 199.5 c 128,-1,3
 176 422 176 422 176 641 c 256,4,5
 176 860 176 860 249.5 1084.5 c 128,-1,6
 323 1309 323 1309 475 1554 c 1,7,-1
 714 1554 l 5,8,9
 586 1317 586 1317 522 1090.5 c 132,-1,10
 458 864 458 864 458 643 c 260,11,12
 458 422 458 422 521.5 195 c 132,-1,13
 585 -32 585 -32 714 -270 c 5,0,-1
EndSplineSet
EndChar

StartChar: parenright
Encoding: 41 41 3
Width: 877
GlyphClass: 2
Flags: W
GlyphCompositionVertical: 3  uni23A0%0,0,48,2968 uni239F%1,48,48,2999 uni239E%0,48,0,3009
LayerCount: 2
Fore
SplineSet
164 -270 m 5,0,-1
 412 -270 l 1,1,2
 565 -23 565 -23 638 199.5 c 128,-1,3
 711 422 711 422 711 641 c 256,4,5
 711 860 711 860 637.5 1084.5 c 128,-1,6
 564 1309 564 1309 412 1554 c 1,7,-1
 164 1554 l 5,8,9
 292 1317 292 1317 356 1090.5 c 132,-1,10
 420 864 420 864 420 643 c 260,11,12
 420 422 420 422 356.5 195 c 132,-1,13
 293 -32 293 -32 164 -270 c 5,0,-1
EndSplineSet
EndChar

StartChar: period
Encoding: 46 46 4
Width: 744
VWidth: 2286
GlyphClass: 2
Flags: W
LayerCount: 2
Fore
SplineSet
210.381835938 323.336914062 m 1,0,-1
 533.19140625 323.336914062 l 1,1,-1
 533.19140625 0 l 1,2,-1
 210.381835938 0 l 1,3,-1
 210.381835938 323.336914062 l 1,0,-1
EndSplineSet
EndChar

StartChar: colon
Encoding: 58 58 5
Width: 800
VWidth: 2286
GlyphClass: 2
Flags: W
LayerCount: 2
Fore
SplineSet
238.381835938 993.096679688 m 1,0,-1
 561.19140625 993.096679688 l 1,1,-1
 561.19140625 669.759765625 l 1,2,-1
 238.381835938 669.759765625 l 1,3,-1
 238.381835938 993.096679688 l 1,0,-1
238.381835938 323.336914062 m 1,4,-1
 561.19140625 323.336914062 l 1,5,-1
 561.19140625 0 l 1,6,-1
 238.381835938 0 l 1,7,-1
 238.381835938 323.336914062 l 1,4,-1
EndSplineSet
EndChar

StartChar: afii57388
Encoding: 1548 1548 7
Width: 790
VWidth: 2293
GlyphClass: 2
Flags: W
LayerCount: 2
Fore
SplineSet
426.151367188 0 m 0,0,1
 353.444335938 0.849609375 353.444335938 0.849609375 304.559570312 40.4404296875 c 128,-1,2
 255.67578125 80.0302734375 255.67578125 80.0302734375 240.274414062 150.6171875 c 0,3,4
 226.40234375 214.9375 226.40234375 214.9375 250.098632812 317.567382812 c 0,5,6
 291.826171875 501.138671875 291.826171875 501.138671875 484.079101562 685.09765625 c 2,7,-1
 509.62890625 709.545898438 l 1,8,-1
 648.4296875 620.825195312 l 1,9,-1
 601.561523438 581.43359375 l 2,10,11
 545.40625 534.235351562 545.40625 534.235351562 512.184570312 477.021484375 c 128,-1,12
 478.962890625 419.807617188 478.962890625 419.807617188 466.90234375 350.227539062 c 1,13,14
 549.96875 339.954101562 549.96875 339.954101562 590.0703125 283.756835938 c 128,-1,15
 630.171875 227.559570312 630.171875 227.559570312 619.896484375 141.713867188 c 0,16,17
 611.560546875 72.0625 611.560546875 72.0625 558.891601562 36.03125 c 128,-1,18
 506.221679688 0 506.221679688 0 426.151367188 0 c 0,0,1
EndSplineSet
EndChar

StartChar: uni0615
Encoding: 1557 1557 8
Width: -27
VWidth: 2304
GlyphClass: 4
Flags: W
AnchorPoint: "Anchor-10" 557.519 1383.15 mark 0
AnchorPoint: "Anchor-9" 557.519 1383.15 mark 0
AnchorPoint: "Anchor-1" 569.519 2080.6 basemark 0
AnchorPoint: "Anchor-1" 557.519 1383.15 mark 0
LayerCount: 2
Fore
SplineSet
474.836914062 1530.54980469 m 1,0,-1
 574.0390625 1530.54980469 l 2,1,2
 660.237513606 1530.54980469 660.237513606 1530.54980469 713.122809335 1561.77490235 c 0,3,4
 768 1595 768 1595 768 1638 c 0,5,6
 768 1668 768 1668 744 1681 c 0,7,8
 701 1705 701 1705 635 1667 c 0,9,10
 562 1625 562 1625 474.836914062 1530.54980469 c 1,0,-1
846.700195312 1640.93164062 m 0,11,12
 847.000184408 1451.88378906 847.000184408 1451.88378906 600.02734375 1451.88378906 c 2,13,-1
 293.467773438 1451.88378906 l 1,14,-1
 293.467773438 1530.54980469 l 1,15,-1
 384.991210938 1530.54980469 l 1,16,-1
 384.991210938 1981.38769531 l 1,17,-1
 464.787109375 1980.38769531 l 1,18,-1
 464 1605 l 1,19,20
 561 1715 561 1715 647.014648438 1747.5234375 c 0,21,22
 717.794865592 1773.35384839 717.794865592 1773.35384839 766 1756 c 0,23,24
 847 1726 847 1726 846.700195312 1640.93164062 c 0,11,12
EndSplineSet
EndChar

StartChar: uni061B
Encoding: 1563 1563 9
Width: 779
VWidth: 2293
GlyphClass: 2
Flags: W
LayerCount: 2
Fore
SplineSet
251.381835938 323.336914062 m 1,0,-1
 574.19140625 323.336914062 l 1,1,-1
 574.19140625 0 l 1,2,-1
 251.381835938 0 l 1,3,-1
 251.381835938 323.336914062 l 1,0,-1
541.056640625 511.2421875 m 128,-1,5
 488.043945312 474.918945312 488.043945312 474.918945312 423.470703125 475.986328125 c 128,-1,6
 358.897460938 477.053710938 358.897460938 477.053710938 320.701171875 494.998046875 c 0,7,8
 177.91300024 562.073515137 177.91300024 562.073515137 231.270507812 793.76953125 c 0,9,10
 273.162109375 977.7890625 273.162109375 977.7890625 465.32421875 1161.38085938 c 2,11,-1
 490.551757812 1185.48339844 l 1,12,-1
 630.961914062 1098.14453125 l 1,13,-1
 584.278320312 1058.19628906 l 2,14,15
 472.286132812 962.361328125 472.286132812 962.361328125 448.166015625 826.001953125 c 1,16,17
 524.569335938 816.370117188 524.569335938 816.370117188 567.103515625 764.148925781 c 128,-1,18
 609.637695312 711.927734375 609.637695312 711.927734375 601.853515625 629.746582031 c 128,-1,4
 594.069335938 547.565429688 594.069335938 547.565429688 541.056640625 511.2421875 c 128,-1,5
EndSplineSet
EndChar

StartChar: uni061F
Encoding: 1567 1567 10
Width: 1183
VWidth: 2286
GlyphClass: 2
Flags: W
LayerCount: 2
Fore
SplineSet
490.381835938 323.336914062 m 1,0,-1
 813.19140625 323.336914062 l 1,1,-1
 813.19140625 0 l 1,2,-1
 490.381835938 0 l 1,3,-1
 490.381835938 323.336914062 l 1,0,-1
517.069335938 494.142578125 m 1,4,-1
 517.069335938 578.841796875 l 2,5,6
 517.436523438 687.848632812 517.436523438 687.848632812 499.454101562 721.525390625 c 0,7,8
 496.913085938 726.284179688 496.913085938 726.284179688 493.499023438 731.657226562 c 128,-1,9
 490.084960938 737.030273438 490.084960938 737.030273438 485.67578125 743.155273438 c 128,-1,10
 481.266601562 749.280273438 481.266601562 749.280273438 476.041015625 755.896484375 c 128,-1,11
 470.815429688 762.51171875 470.815429688 762.51171875 464.533203125 769.85546875 c 128,-1,12
 458.250976562 777.200195312 458.250976562 777.200195312 451.216796875 784.903320312 c 128,-1,13
 444.18359375 792.607421875 444.18359375 792.607421875 436.03125 801.016601562 c 128,-1,14
 427.87890625 809.42578125 427.87890625 809.42578125 419.033203125 818.0703125 c 2,15,-1
 328.284179688 906.7578125 l 2,16,17
 231.251953125 999.907226562 231.251953125 999.907226562 191.206054688 1075.875 c 0,18,19
 149.354492188 1155.26757812 149.354492188 1155.26757812 149.409179688 1244.671875 c 0,20,21
 149.518554688 1423.609375 149.518554688 1423.609375 277.94140625 1535.51953125 c 0,22,23
 403.637695312 1645.05371094 403.637695312 1645.05371094 615.811523438 1645.16210938 c 0,24,25
 823.51171875 1645.26855469 823.51171875 1645.26855469 1024.55175781 1525.85253906 c 2,26,-1
 1055.6953125 1507.35351562 l 1,27,-1
 977.618164062 1272.30761719 l 1,28,-1
 928.821289062 1303.79492188 l 2,29,30
 905.46875 1318.86425781 905.46875 1318.86425781 872.397460938 1335.14941406 c 128,-1,31
 839.326171875 1351.43457031 839.326171875 1351.43457031 797.421875 1368.29785156 c 0,32,33
 691.737304688 1409.08300781 691.737304688 1409.08300781 618.236328125 1404.16699219 c 128,-1,34
 544.735351562 1399.25195312 544.735351562 1399.25195312 489.017578125 1352.03125 c 0,35,36
 434.80078125 1306.29492188 434.80078125 1306.29492188 434.80078125 1228.76757812 c 0,37,38
 434.819335938 1219.69335938 434.819335938 1219.69335938 436.162109375 1210.41894531 c 128,-1,39
 437.50390625 1201.14453125 437.50390625 1201.14453125 440.26171875 1191.26757812 c 128,-1,40
 443.018554688 1181.39160156 443.018554688 1181.39160156 447.373046875 1171.17578125 c 128,-1,41
 451.727539062 1160.95996094 451.727539062 1160.95996094 457.625 1150.265625 c 128,-1,42
 463.522460938 1139.57128906 463.522460938 1139.57128906 471.30078125 1128.38085938 c 128,-1,43
 479.079101562 1117.19140625 479.079101562 1117.19140625 488.528320312 1105.64550781 c 128,-1,44
 497.978515625 1094.09960938 497.978515625 1094.09960938 509.591796875 1081.90234375 c 128,-1,45
 521.205078125 1069.70605469 521.205078125 1069.70605469 534.62890625 1057.25878906 c 2,46,-1
 627.72265625 965.19921875 l 2,47,48
 790.0078125 809.725585938 790.0078125 809.725585938 789.928710938 610.791992188 c 2,49,-1
 789.928710938 494.142578125 l 1,50,-1
 517.069335938 494.142578125 l 1,4,-1
EndSplineSet
EndChar

StartChar: uni0621
Encoding: 1569 1569 11
Width: 936
VWidth: 2438
GlyphClass: 2
Flags: W
AnchorPoint: "Anchor-7" 362.995 -225.737 basechar 0
AnchorPoint: "Anchor-10" 389.902 1373.84 basechar 0
LayerCount: 2
Fore
SplineSet
128.530273438 -17.2880859375 m 1,0,-1
 128.530273438 242.270507812 l 1,1,-1
 281.372070312 297.08984375 l 1,2,3
 97 380 97 380 97.72265625 594.520507812 c 0,4,5
 99 801 99 801 276.249715805 897.804231549 c 0,6,7
 454.291090365 994.157533708 454.291090365 994.157533708 694.322265625 926.748046875 c 2,8,-1
 727.155273438 917.52734375 l 1,9,-1
 727.155273438 679.3828125 l 1,10,-1
 673.436523438 689.991210938 l 2,11,12
 421 740 421 740 356.578125 652.78125 c 0,13,14
 339 629 339 629 339.413574219 585.491210938 c 0,15,16
 339 473 339 473 480.0703125 444.725585938 c 4,17,18
 625.664916979 414.070551937 625.664916979 414.070551937 772.176757812 494.5390625 c 2,19,-1
 838.83984375 531.15234375 l 1,20,-1
 838.83984375 256.34765625 l 1,21,-1
 128.530273438 -17.2880859375 l 1,0,-1
EndSplineSet
EndChar

StartChar: uni0627
Encoding: 1575 1575 17
Width: 561
VWidth: 2438
GlyphClass: 2
Flags: W
AnchorPoint: "Anchor-10" 279.532 1629.3 basechar 0
AnchorPoint: "Anchor-7" 282.827 -221.836 basechar 0
LayerCount: 2
Fore
SplineSet
159.939453125 1523.23046875 m 5,0,-1
 418.89453125 1523.23046875 l 5,1,-1
 418.89453125 0.607421875 l 1,2,-1
 159.939453125 0.607421875 l 1,3,-1
 159.939453125 1523.23046875 l 5,0,-1
EndSplineSet
Substitution2: "'fina' Terminal Forms in Arabic lookup 9 subtable" uniFE8E
EndChar

StartChar: uni062D
Encoding: 1581 1581 23
Width: 1386
VWidth: 2438
GlyphClass: 2
Flags: W
AnchorPoint: "Anchor-10" 521.889 1340.9 basechar 0
AnchorPoint: "Anchor-7" 456.367 -717.2 basechar 0
LayerCount: 2
Fore
SplineSet
1278.50976562 757 m 1,0,-1
 1266.54199219 522.180664062 l 1,1,-1
 1216.19238281 525.291015625 l 2,2,3
 1082 534 1082 534 967.405273438 515.588378906 c 0,4,5
 628 464 628 464 468.71484375 307.3828125 c 0,6,7
 348 190 348 190 348.107910156 28.6909179688 c 0,8,9
 348 -133 348 -133 465.559570312 -213.012695312 c 128,-1,10
 583 -293 583 -293 840.290039062 -293.734375 c 0,11,12
 1028.29356356 -294.000415417 1028.29356356 -294.000415417 1176.59765625 -241.723632812 c 2,13,-1
 1221.62792969 -225.850585938 l 1,14,-1
 1288.49511719 -458.64453125 l 1,15,-1
 1251.97070312 -474.263671875 l 2,16,17
 1084 -546 1084 -546 808.073242188 -542.426757812 c 0,18,19
 452 -539 452 -539 274.344238281 -380.943359375 c 0,20,21
 97 -223 97 -223 98.017578125 38.650390625 c 0,22,23
 99 300 99 300 320.888671875 496.58984375 c 0,24,25
 476 634 476 634 705.80078125 686.50390625 c 1,26,27
 687 697 687 697 657.098394772 713.881769372 c 0,28,29
 627 731 627 731 596.762824616 744.799369544 c 0,30,31
 525 777 525 777 451.649954014 729.670022968 c 0,32,33
 379.393806621 684.247559103 379.393806621 684.247559103 317.26171875 602.43359375 c 2,34,-1
 290.76171875 567.5390625 l 1,35,-1
 93.2578125 709.384765625 l 1,36,-1
 123.325195312 746.446289062 l 2,37,38
 209 852 209 852 237.84765625 881.201171875 c 0,39,40
 366 1006 366 1006 535.249023438 1007.14453125 c 0,41,42
 635 1008 635 1008 770.943359375 921.576171875 c 0,43,44
 1000.36679425 775.766885155 1000.36679425 775.766885155 1230.4140625 760.245117188 c 2,45,-1
 1278.50976562 757 l 1,0,-1
EndSplineSet
Substitution2: "'fina' Terminal Forms in Arabic lookup 9 subtable" uniFEA2
Substitution2: "'medi' Medial Forms in Arabic lookup 11 subtable" uniFEA4
Substitution2: "'init' Initial Forms in Arabic lookup 13 subtable" uniFEA3
EndChar

StartChar: uni062F
Encoding: 1583 1583 25
Width: 1064
VWidth: 2438
GlyphClass: 2
Flags: W
AnchorPoint: "Anchor-10" 347.274 1265.12 basechar 0
AnchorPoint: "Anchor-7" 396.608 -234.523 basechar 0
LayerCount: 2
Fore
SplineSet
407.731445312 271.447265625 m 0,0,1
 703.705078125 271.447265625 703.705078125 271.447265625 703.705078125 376.295898438 c 0,2,3
 703.705078125 409.259765625 703.705078125 409.259765625 657.803710938 478.110351562 c 0,4,5
 557.8828125 627.993164062 557.8828125 627.993164062 339.234375 782.709960938 c 2,6,-1
 303.669921875 807.875 l 1,7,-1
 448.638671875 1027.48046875 l 1,8,-1
 486.70703125 999.868164062 l 2,9,10
 966.74609375 651.675987679 966.74609375 651.675987679 966.74609375 341.72265625 c 0,11,12
 966.74609375 200.0390625 966.74609375 200.0390625 844.080555488 100.933105469 c 128,-1,13
 721.415017226 1.8271484375 721.415017226 1.8271484375 483.076160957 1.8271484375 c 128,-1,14
 244.737304688 1.8271484375 244.737304688 1.8271484375 134.018554688 23.4970703125 c 2,15,-1
 97.662109375 30.61328125 l 1,16,-1
 97.662109375 303.388671875 l 1,17,-1
 149.85546875 294.9375 l 2,18,19
 294.918945312 271.447265625 294.918945312 271.447265625 407.731445312 271.447265625 c 0,0,1
EndSplineSet
Substitution2: "'fina' Terminal Forms in Arabic lookup 9 subtable" uniFEAA
EndChar

StartChar: uni0631
Encoding: 1585 1585 27
Width: 876
VWidth: 2438
GlyphClass: 2
Flags: W
AnchorPoint: "Anchor-10" 494.335 933.338 basechar 0
AnchorPoint: "Anchor-7" 307.636 -648.411 basechar 0
LayerCount: 2
Fore
SplineSet
443.995117188 579.118164062 m 1,0,-1
 684.728515625 672.911132812 l 1,1,-1
 701.78125 632.6796875 l 2,2,3
 780.061523438 447.998046875 780.061523438 447.998046875 778.490234375 214.440429688 c 0,4,5
 776.118164062 -94.3984375 776.118164062 -94.3984375 598.053710938 -271.133789062 c 128,-1,6
 419.989257812 -447.870117188 419.989257812 -447.870117188 79.5390625 -483.80859375 c 2,7,-1
 37.9462890625 -488.19921875 l 1,8,-1
 -7.9140625 -233.715820312 l 1,9,-1
 41.1220703125 -229.360351562 l 2,10,11
 391.60546875 -198.225585938 391.60546875 -198.225585938 484.59765625 13.263671875 c 0,12,13
 520.890625 96.9404296875 520.890625 96.9404296875 521.443359375 210.290039062 c 0,14,15
 521.973632812 409.223632812 521.973632812 409.223632812 463.904296875 535.743164062 c 2,16,-1
 443.995117188 579.118164062 l 1,0,-1
EndSplineSet
PairPos2: "'kern' Horizontal Kerning lookup 15-1" uniFEE7 dx=-150 dy=0 dh=-150 dv=0 dx=0 dy=0 dh=0 dv=0
PairPos2: "'kern' Horizontal Kerning lookup 15-2" uniFB90 dx=-190 dy=0 dh=-190 dv=0 dx=0 dy=0 dh=0 dv=0
PairPos2: "'kern' Horizontal Kerning lookup 15-2" uniFB8E dx=-190 dy=0 dh=-190 dv=0 dx=0 dy=0 dh=0 dv=0
PairPos2: "'kern' Horizontal Kerning lookup 15-2" uni06A9 dx=-190 dy=0 dh=-190 dv=0 dx=0 dy=0 dh=0 dv=0
PairPos2: "'kern' Horizontal Kerning lookup 15-2" uni064A dx=-50 dy=0 dh=-50 dv=0 dx=0 dy=0 dh=0 dv=0
PairPos2: "'kern' Horizontal Kerning lookup 15-2" afii57414 dx=-50 dy=0 dh=-50 dv=0 dx=0 dy=0 dh=0 dv=0
PairPos2: "'kern' Horizontal Kerning lookup 15-2" uni0649 dx=-50 dy=0 dh=-50 dv=0 dx=0 dy=0 dh=0 dv=0
PairPos2: "'kern' Horizontal Kerning lookup 15-2" uni0648 dx=-50 dy=0 dh=-50 dv=0 dx=0 dy=0 dh=0 dv=0
PairPos2: "'kern' Horizontal Kerning lookup 15-2" afii57412 dx=-50 dy=0 dh=-50 dv=0 dx=0 dy=0 dh=0 dv=0
PairPos2: "'kern' Horizontal Kerning lookup 15-2" uniFEEB dx=-150 dy=0 dh=-150 dv=0 dx=0 dy=0 dh=0 dv=0
PairPos2: "'kern' Horizontal Kerning lookup 15-2" uni0647 dx=-150 dy=0 dh=-150 dv=0 dx=0 dy=0 dh=0 dv=0
PairPos2: "'kern' Horizontal Kerning lookup 15-2" uni0646 dx=-50 dy=0 dh=-50 dv=0 dx=0 dy=0 dh=0 dv=0
PairPos2: "'kern' Horizontal Kerning lookup 15-2" uniFEE3 dx=-150 dy=0 dh=-150 dv=0 dx=0 dy=0 dh=0 dv=0
PairPos2: "'kern' Horizontal Kerning lookup 15-2" uni0645 dx=-150 dy=0 dh=-150 dv=0 dx=0 dy=0 dh=0 dv=0
PairPos2: "'kern' Horizontal Kerning lookup 15-2" uniFEFB dx=-150 dy=0 dh=-150 dv=0 dx=0 dy=0 dh=0 dv=0
PairPos2: "'kern' Horizontal Kerning lookup 15-2" uniFEDF dx=-150 dy=0 dh=-150 dv=0 dx=0 dy=0 dh=0 dv=0
PairPos2: "'kern' Horizontal Kerning lookup 15-2" uni0644 dx=-50 dy=0 dh=-50 dv=0 dx=0 dy=0 dh=0 dv=0
PairPos2: "'kern' Horizontal Kerning lookup 15-2" uniFEDB dx=-190 dy=0 dh=-190 dv=0 dx=0 dy=0 dh=0 dv=0
PairPos2: "'kern' Horizontal Kerning lookup 15-2" uni0643 dx=-150 dy=0 dh=-150 dv=0 dx=0 dy=0 dh=0 dv=0
PairPos2: "'kern' Horizontal Kerning lookup 15-2" uniFED7 dx=-150 dy=0 dh=-150 dv=0 dx=0 dy=0 dh=0 dv=0
PairPos2: "'kern' Horizontal Kerning lookup 15-2" uni0642 dx=-50 dy=0 dh=-50 dv=0 dx=0 dy=0 dh=0 dv=0
PairPos2: "'kern' Horizontal Kerning lookup 15-2" uniFED3 dx=-150 dy=0 dh=-150 dv=0 dx=0 dy=0 dh=0 dv=0
PairPos2: "'kern' Horizontal Kerning lookup 15-2" uni0641 dx=-150 dy=0 dh=-150 dv=0 dx=0 dy=0 dh=0 dv=0
PairPos2: "'kern' Horizontal Kerning lookup 15-2" uniFECF dx=-150 dy=0 dh=-150 dv=0 dx=0 dy=0 dh=0 dv=0
PairPos2: "'kern' Horizontal Kerning lookup 15-2" uniFECB dx=-150 dy=0 dh=-150 dv=0 dx=0 dy=0 dh=0 dv=0
PairPos2: "'kern' Horizontal Kerning lookup 15-2" uniFEC7 dx=-150 dy=0 dh=-150 dv=0 dx=0 dy=0 dh=0 dv=0
PairPos2: "'kern' Horizontal Kerning lookup 15-2" uni0638 dx=-150 dy=0 dh=-150 dv=0 dx=0 dy=0 dh=0 dv=0
PairPos2: "'kern' Horizontal Kerning lookup 15-2" uniFEC3 dx=-150 dy=0 dh=-150 dv=0 dx=0 dy=0 dh=0 dv=0
PairPos2: "'kern' Horizontal Kerning lookup 15-2" uni0637 dx=-150 dy=0 dh=-150 dv=0 dx=0 dy=0 dh=0 dv=0
PairPos2: "'kern' Horizontal Kerning lookup 15-2" uniFEBF dx=-150 dy=0 dh=-150 dv=0 dx=0 dy=0 dh=0 dv=0
PairPos2: "'kern' Horizontal Kerning lookup 15-2" uni0636 dx=-150 dy=0 dh=-150 dv=0 dx=0 dy=0 dh=0 dv=0
PairPos2: "'kern' Horizontal Kerning lookup 15-2" uniFEBB dx=-150 dy=0 dh=-150 dv=0 dx=0 dy=0 dh=0 dv=0
PairPos2: "'kern' Horizontal Kerning lookup 15-2" uni0635 dx=-150 dy=0 dh=-150 dv=0 dx=0 dy=0 dh=0 dv=0
PairPos2: "'kern' Horizontal Kerning lookup 15-2" uniFEB7 dx=-150 dy=0 dh=-150 dv=0 dx=0 dy=0 dh=0 dv=0
PairPos2: "'kern' Horizontal Kerning lookup 15-2" uni0634 dx=-150 dy=0 dh=-150 dv=0 dx=0 dy=0 dh=0 dv=0
PairPos2: "'kern' Horizontal Kerning lookup 15-2" uniFEB3 dx=-150 dy=0 dh=-150 dv=0 dx=0 dy=0 dh=0 dv=0
PairPos2: "'kern' Horizontal Kerning lookup 15-2" uni0633 dx=-150 dy=0 dh=-150 dv=0 dx=0 dy=0 dh=0 dv=0
PairPos2: "'kern' Horizontal Kerning lookup 15-2" uni0632 dx=-50 dy=0 dh=-50 dv=0 dx=0 dy=0 dh=0 dv=0
PairPos2: "'kern' Horizontal Kerning lookup 15-2" uni0631 dx=-50 dy=0 dh=-50 dv=0 dx=0 dy=0 dh=0 dv=0
PairPos2: "'kern' Horizontal Kerning lookup 15-2" uni0630 dx=-150 dy=0 dh=-150 dv=0 dx=0 dy=0 dh=0 dv=0
PairPos2: "'kern' Horizontal Kerning lookup 15-2" uni062F dx=-150 dy=0 dh=-150 dv=0 dx=0 dy=0 dh=0 dv=0
PairPos2: "'kern' Horizontal Kerning lookup 15-2" uniFEA7 dx=-150 dy=0 dh=-150 dv=0 dx=0 dy=0 dh=0 dv=0
PairPos2: "'kern' Horizontal Kerning lookup 15-2" uniFEA3 dx=-150 dy=0 dh=-150 dv=0 dx=0 dy=0 dh=0 dv=0
PairPos2: "'kern' Horizontal Kerning lookup 15-2" uniFE9F dx=-150 dy=0 dh=-150 dv=0 dx=0 dy=0 dh=0 dv=0
PairPos2: "'kern' Horizontal Kerning lookup 15-2" uniFE9B dx=-150 dy=0 dh=-150 dv=0 dx=0 dy=0 dh=0 dv=0
PairPos2: "'kern' Horizontal Kerning lookup 15-2" uni062B dx=-150 dy=0 dh=-150 dv=0 dx=0 dy=0 dh=0 dv=0
PairPos2: "'kern' Horizontal Kerning lookup 15-2" uniFE97 dx=-150 dy=0 dh=-150 dv=0 dx=0 dy=0 dh=0 dv=0
PairPos2: "'kern' Horizontal Kerning lookup 15-2" uni062A dx=-150 dy=0 dh=-150 dv=0 dx=0 dy=0 dh=0 dv=0
PairPos2: "'kern' Horizontal Kerning lookup 15-2" uni0629 dx=-150 dy=0 dh=-150 dv=0 dx=0 dy=0 dh=0 dv=0
PairPos2: "'kern' Horizontal Kerning lookup 15-2" uniFE91 dx=-50 dy=0 dh=-50 dv=0 dx=0 dy=0 dh=0 dv=0
PairPos2: "'kern' Horizontal Kerning lookup 15-2" uni0628 dx=-150 dy=0 dh=-150 dv=0 dx=0 dy=0 dh=0 dv=0
PairPos2: "'kern' Horizontal Kerning lookup 15-2" uni0627 dx=-190 dy=0 dh=-190 dv=0 dx=0 dy=0 dh=0 dv=0
PairPos2: "'kern' Horizontal Kerning lookup 15-2" uni0623 dx=-190 dy=0 dh=-190 dv=0 dx=0 dy=0 dh=0 dv=0
PairPos2: "'kern' Horizontal Kerning lookup 15-2" uni0622 dx=-190 dy=0 dh=-190 dv=0 dx=0 dy=0 dh=0 dv=0
PairPos2: "'kern' Horizontal Kerning lookup 15-2" uni0621 dx=-150 dy=0 dh=-150 dv=0 dx=0 dy=0 dh=0 dv=0
PairPos2: "'kern' Horizontal Kerning lookup 15-2" uniFB94 dx=-190 dy=0 dh=-190 dv=0 dx=0 dy=0 dh=0 dv=0
PairPos2: "'kern' Horizontal Kerning lookup 15-2" uniFB92 dx=-190 dy=0 dh=-190 dv=0 dx=0 dy=0 dh=0 dv=0
PairPos2: "'kern' Horizontal Kerning lookup 15-2" afii57509 dx=-190 dy=0 dh=-190 dv=0 dx=0 dy=0 dh=0 dv=0
PairPos2: "'kern' Horizontal Kerning lookup 15-2" afii57508 dx=-50 dy=0 dh=-50 dv=0 dx=0 dy=0 dh=0 dv=0
PairPos2: "'kern' Horizontal Kerning lookup 15-2" afii57506 dx=-150 dy=0 dh=-150 dv=0 dx=0 dy=0 dh=0 dv=0
PairPos2: "'kern' Horizontal Kerning lookup 15-2" afii57440 dx=-150 dy=0 dh=-150 dv=0 dx=0 dy=0 dh=0 dv=0
PairPos2: "'kern' Horizontal Kerning lookup 15-2" uniFE8B dx=-150 dy=0 dh=-150 dv=0 dx=0 dy=0 dh=0 dv=0
Substitution2: "'fina' Terminal Forms in Arabic lookup 9 subtable" uniFEAE
EndChar

StartChar: uni0633
Encoding: 1587 1587 29
Width: 2689
VWidth: 2438
GlyphClass: 2
Flags: W
AnchorPoint: "Anchor-10" 636.938 972.991 basechar 0
AnchorPoint: "Anchor-7" 460.709 -689.993 basechar 0
LayerCount: 2
Fore
SplineSet
1648.95410156 0 m 0,0,1
 1556 0 1556 0 1489.90136719 29.548828125 c 1,2,3
 1461 -223 1461 -223 1291.0546875 -351.265625 c 0,4,5
 1120 -481 1120 -481 824.234375 -479.88671875 c 0,6,7
 333 -478 333 -478 172.600585938 -185.229492188 c 0,8,9
 21.2307595747 89.5810580798 21.2307595747 89.5810580798 177.330078125 541.755859375 c 2,10,-1
 190.33984375 579.44140625 l 1,11,-1
 443.459960938 525.064453125 l 1,12,-1
 427.171875 477.193359375 l 2,13,14
 361 283 361 283 360.470977563 117.15918915 c 0,15,16
 360 -220 360 -220 807.319335938 -219.6796875 c 0,17,18
 1041 -220 1041 -220 1147.38378906 -136.163085938 c 0,19,20
 1254 -53 1254 -53 1254.16064453 121.408691406 c 0,21,22
 1254.00003544 295.961482232 1254.00003544 295.961482232 1188.60644531 550.4609375 c 2,23,-1
 1176.94433594 595.84765625 l 1,24,-1
 1427.25292969 649.458007812 l 1,25,-1
 1435.4296875 603.599609375 l 2,26,27
 1441 572 1441 572 1453.84179688 499.588867188 c 0,28,29
 1467 426 1467 426 1472.71191406 399.5078125 c 0,30,31
 1503 264 1503 264 1670.41796875 265.44140625 c 0,32,33
 1799.28367677 267.003438559 1799.28367677 267.003438559 1812.18359375 392.328125 c 2,34,-1
 1839.96386719 662.217773438 l 1,35,-1
 2034.90332031 662.217773438 l 1,36,-1
 2064.53613281 396.530273438 l 2,37,38
 2079.64166503 267.084907864 2079.64166503 267.084907864 2192.6484375 266.877929688 c 4,39,40
 2338 267 2338 267 2337.21679688 498.34375 c 0,41,42
 2336.9997968 601.096217612 2336.9997968 601.096217612 2274.43847656 716.216796875 c 2,43,-1
 2250.15820312 760.895507812 l 1,44,-1
 2482.69335938 852.6640625 l 1,45,-1
 2502.38574219 820.233398438 l 2,46,47
 2586 683 2586 683 2591.95996094 455.572753906 c 128,-1,48
 2598 228 2598 228 2443.24023438 91.8544921875 c 0,49,50
 2340 -0 2340 -0 2173.28412911 0.0067439048731 c 0,51,52
 2007 0 2007 0 1928.56445312 106.965820312 c 1,53,54
 1845 0 1845 0 1648.95410156 0 c 0,0,1
EndSplineSet
Substitution2: "'fina' Terminal Forms in Arabic lookup 9 subtable" uniFEB2
Substitution2: "'medi' Medial Forms in Arabic lookup 11 subtable" uniFEB4
Substitution2: "'init' Initial Forms in Arabic lookup 13 subtable" uniFEB3
EndChar

StartChar: uni0635
Encoding: 1589 1589 31
Width: 2629
VWidth: 2438
GlyphClass: 2
Flags: W
AnchorPoint: "Anchor-10" 564.816 972.991 basechar 0
AnchorPoint: "Anchor-7" 509.904 -695.235 basechar 0
LayerCount: 2
Fore
SplineSet
1490.18164062 382.203125 m 1,0,1
 1665 631 1665 631 1827.03613281 758.205078125 c 0,2,3
 1994 888 1994 888 2147.13769531 885.103515625 c 0,4,5
 2153 885 2153 885 2158.4140625 885 c 0,6,7
 2345 882 2345 882 2440.16796875 765.495117188 c 0,8,9
 2535 649 2535 649 2531.40136719 438.329101562 c 0,10,11
 2526 184 2526 184 2347.72753906 87.94921875 c 0,12,13
 2290 57 2290 57 2209.81640625 37.22265625 c 0,14,15
 2129 17 2129 17 2029.08886719 8.23828125 c 0,16,17
 1935.7422536 -0.927120522582 1935.7422536 -0.927120522582 1802.98925781 -0.828125 c 2,18,-1
 1801.6796875 -0.8271484375 l 2,19,20
 1797.80943678 -0.879908324872 1797.80943678 -0.879908324872 1778.38476562 -0.7353515625 c 2,21,-1
 1679.44140625 0.0009765625 l 2,22,23
 1553 1 1553 1 1486.57714844 51.140625 c 1,24,25
 1473 -122 1473 -122 1389.69726562 -240.764648438 c 0,26,27
 1306 -359 1306 -359 1158.14160156 -418.524414062 c 0,28,29
 1014 -476 1014 -476 801.706054688 -479.884765625 c 0,30,31
 795 -480 795 -480 788.182617188 -479.950195312 c 0,32,33
 329 -480 329 -480 172.723632812 -194.266601562 c 0,34,35
 98 -57 98 -57 97.90234375 139.110351562 c 0,36,37
 97.9997176671 310.503051807 97.9997176671 310.503051807 177.30078125 541.672851562 c 2,38,-1
 190.262695312 579.458007812 l 1,39,-1
 443.373046875 525.083007812 l 1,40,-1
 427.197265625 477.267578125 l 2,41,42
 360 279 360 279 360.358398438 132.14453125 c 0,43,44
 361 -47 361 -47 467.893554688 -133.447265625 c 0,45,46
 575 -220 575 -220 808.26953125 -219.680664062 c 0,47,48
 1042 -220 1042 -220 1148.52050781 -136.379882812 c 0,49,50
 1255 -53 1255 -53 1254.26074219 119.537109375 c 0,51,52
 1252.99822595 302.256752497 1252.99822595 302.256752497 1188.64160156 550.362304688 c 2,53,-1
 1176.84863281 595.826171875 l 1,54,-1
 1429.15332031 649.864257812 l 1,55,-1
 1438.54980469 601.567382812 l 6,56,57
 1463 475 1463 475 1490.18164062 382.203125 c 1,0,1
1714.84082031 283.618164062 m 1,58,-1
 1834.34960938 283.618164062 l 2,59,60
 1954.4921875 283.676757812 1954.4921875 283.676757812 2034.39941406 285.90625 c 128,-1,61
 2114.30566406 288.135742188 2114.30566406 288.135742188 2147.75292969 292.131835938 c 0,62,63
 2189.13476562 297.076171875 2189.13476562 297.076171875 2214.7578125 311.047851562 c 128,-1,64
 2240.37988281 325.018554688 2240.37988281 325.018554688 2253.62890625 349.653320312 c 128,-1,65
 2266.87792969 374.2890625 2266.87792969 374.2890625 2270.31152344 413.181640625 c 0,66,67
 2273.62597656 443.479492188 2273.62597656 443.479492188 2273.64648438 469.282226562 c 0,68,69
 2273.71386719 554.641601562 2273.71386719 554.641601562 2243.91015625 588.794921875 c 128,-1,70
 2214.10546875 622.948242188 2214.10546875 622.948242188 2145.39160156 622.951171875 c 0,71,72
 2072.49902344 622.954101562 2072.49902344 622.954101562 1962.01757812 538.571289062 c 128,-1,73
 1851.53613281 454.188476562 1851.53613281 454.188476562 1714.84082031 283.618164062 c 1,58,-1
EndSplineSet
Substitution2: "'fina' Terminal Forms in Arabic lookup 9 subtable" uniFEBA
Substitution2: "'medi' Medial Forms in Arabic lookup 11 subtable" uniFEBC
Substitution2: "'init' Initial Forms in Arabic lookup 13 subtable" uniFEBB
EndChar

StartChar: uni0637
Encoding: 1591 1591 33
Width: 1498
VWidth: 2438
GlyphClass: 2
Flags: W
AnchorPoint: "Anchor-10" 428.599 1701.85 basechar 0
AnchorPoint: "Anchor-7" 690.982 -275.158 basechar 0
LayerCount: 2
Fore
SplineSet
583.5625 284.35546875 m 1,0,-1
 703.05859375 284.35546875 l 2,1,2
 960 284 960 284 1000.31494141 289.967285156 c 0,3,4
 1085 301 1085 301 1117.19921875 347.311523438 c 4,5,6
 1142 382 1142 382 1142.16699219 468.404785156 c 0,7,8
 1143 556 1143 556 1112.42871094 589.958007812 c 128,-1,9
 1082 624 1082 624 1011.0703125 623.877929688 c 0,10,11
 940 624 940 624 830.209960938 539.541992188 c 0,12,13
 720 455 720 455 583.5625 284.35546875 c 1,0,-1
577.616210938 653.341796875 m 1,14,15
 812 886 812 886 1020.03710938 885.83984375 c 0,16,17
 1274.52822247 886.163417956 1274.52822247 886.163417956 1360.62402344 680.634765625 c 0,18,19
 1402 581 1402 581 1400 448.5 c 0,20,21
 1396.01314258 184.37069603 1396.01314258 184.37069603 1220.00657129 90.685348015 c 128,-1,22
 1044 -3 1044 -3 671.412109375 -0.08984375 c 0,23,24
 663 0 663 0 653.94921875 0 c 2,25,-1
 97.7392578125 0 l 1,26,-1
 97.7392578125 272.102539062 l 1,27,-1
 273.540039062 272.248046875 l 1,28,29
 295 307 295 307 318.662109375 341.025390625 c 1,30,-1
 318.662109375 1523.81542969 l 1,31,-1
 577.616210938 1523.81542969 l 1,32,-1
 577.616210938 653.341796875 l 1,14,15
EndSplineSet
Substitution2: "'fina' Terminal Forms in Arabic lookup 9 subtable" uniFEC2
Substitution2: "'medi' Medial Forms in Arabic lookup 11 subtable" uniFEC4
Substitution2: "'init' Initial Forms in Arabic lookup 13 subtable" uniFEC3
EndChar

StartChar: uni0639
Encoding: 1593 1593 35
Width: 1344
VWidth: 2438
GlyphClass: 2
Flags: W
AnchorPoint: "Anchor-10" 512.555 1519.15 basechar 0
AnchorPoint: "Anchor-7" 410.631 -745.218 basechar 0
LayerCount: 2
Fore
SplineSet
347.174804688 28.38671875 m 0,0,1
 347 -295 347 -295 838.5 -295 c 0,2,3
 1028.4896 -295 1028.4896 -295 1142.83300781 -255.751953125 c 2,4,-1
 1187.62011719 -240.37890625 l 1,5,-1
 1254.6171875 -473.620117188 l 1,6,-1
 1216.95800781 -488.774414062 l 2,7,8
 1080 -544 1080 -544 803.60546875 -543.674804688 c 0,9,10
 346 -543 346 -543 177.491210938 -268.513671875 c 0,11,12
 98 -139 98 -139 97.97265625 32.369140625 c 0,13,14
 99 358 99 358 383.747070312 556.526367188 c 1,15,16
 286 617 286 617 240.013671875 716.841796875 c 0,17,18
 212 778 212 778 210.927734375 846.9921875 c 0,19,20
 208.974449013 1081.06187292 208.974449013 1081.06187292 386.293945312 1194.1328125 c 4,21,22
 637 1353 637 1353 988.534179688 1176.02929688 c 5,23,-1
 922.380859375 951.348632812 l 5,24,25
 756 1028 756 1028 636.811523438 1021.38037109 c 0,26,27
 546 1016 546 1016 503.340820312 979.490234375 c 0,28,29
 461 943 461 943 461.157714844 882.079101562 c 0,30,31
 461 821 461 821 498.194335938 775.856445312 c 0,32,33
 535 730 535 730 616.340820312 685.973632812 c 1,34,35
 809.740109015 751.91139249 809.740109015 751.91139249 1066.67382812 746.533203125 c 2,36,-1
 1109.26855469 745.641601562 l 1,37,-1
 1117.21679688 510.297851562 l 1,38,-1
 1071.46972656 509.513671875 l 2,39,40
 818 505 818 505 690.876994764 451.006942752 c 0,41,42
 564 397 564 397 480.416015625 316.86328125 c 0,43,44
 347 190 347 190 347.174804688 28.38671875 c 0,0,1
EndSplineSet
Substitution2: "'fina' Terminal Forms in Arabic lookup 9 subtable" uniFECA
Substitution2: "'medi' Medial Forms in Arabic lookup 11 subtable" uniFECC
Substitution2: "'init' Initial Forms in Arabic lookup 13 subtable" uniFECB
EndChar

StartChar: afii57440
Encoding: 1600 1600 37
Width: 676
VWidth: 2438
GlyphClass: 2
Flags: W
AnchorPoint: "Anchor-10" 343.175 1443.04 basechar 0
AnchorPoint: "Anchor-7" 343.175 -84.6133 basechar 0
LayerCount: 2
Fore
SplineSet
-11.42578125 0 m 1,0,-1
 -11.42578125 272.2421875 l 1,1,-1
 686.775390625 272.2421875 l 5,2,-1
 686.775390625 0 l 1,3,-1
 -11.42578125 0 l 1,0,-1
EndSplineSet
EndChar

StartChar: uni0643
Encoding: 1603 1603 40
Width: 2005
VWidth: 2438
GlyphClass: 2
Flags: W
AnchorPoint: "Anchor-10" 693.485 1482.58 basechar 0
AnchorPoint: "Anchor-7" 594.645 -228.483 basechar 0
LayerCount: 2
Fore
SplineSet
799.956054688 875.872070312 m 2,0,1
 862.974609375 867.684570312 862.974609375 867.684570312 921.211602833 867.684570312 c 128,-1,2
 979.44859629 867.684570312 979.44859629 867.684570312 1034.6969544 889.122070312 c 128,-1,3
 1089.9453125 910.559570312 1089.9453125 910.559570312 1089.9453125 940.339629949 c 128,-1,4
 1089.9453125 970.119689586 1089.9453125 970.119689586 1015.40917969 981.853790106 c 128,-1,5
 940.873046875 993.587890625 940.873046875 993.587890625 889.198015298 1050.213976 c 128,-1,6
 837.52298372 1106.84006138 837.52298372 1106.84006138 856.725782484 1196.32644067 c 0,7,8
 892.763691586 1364.26560634 892.763691586 1364.26560634 1178.34863281 1383.54101562 c 2,9,-1
 1226.37890625 1386.78320312 l 1,10,-1
 1226.37890625 1243.1875 l 1,11,-1
 1184.75878906 1240.05273438 l 2,12,13
 1065.23535156 1231.05078125 1065.23535156 1231.05078125 1012.62402344 1186.55761719 c 0,14,15
 1000.75683594 1176.52138571 1000.75683594 1176.52138571 1000.75683594 1166.09565379 c 128,-1,16
 1000.75683594 1155.66992188 1000.75683594 1155.66992188 1002.18652344 1149.92871094 c 0,17,18
 1009.56407244 1120.3026108 1009.56407244 1120.3026108 1079.85137216 1109.96917649 c 128,-1,19
 1150.13867188 1099.63574219 1150.13867188 1099.63574219 1193.35449219 1062.53710938 c 128,-1,20
 1236.5703125 1025.43847656 1236.5703125 1025.43847656 1236.5703125 962.434082031 c 0,21,22
 1236.5703125 833.166357148 1236.5703125 833.166357148 1112.49316406 762.99968248 c 128,-1,23
 988.416015625 692.833007812 988.416015625 692.833007812 786.859375 725.96484375 c 2,24,-1
 749.158203125 732.162109375 l 1,25,-1
 749.158203125 882.471679688 l 1,26,-1
 799.956054688 875.872070312 l 2,0,1
367.26953125 568.55859375 m 0,27,28
 384 457 384 457 445.5 391 c 128,-1,29
 507 325 507 325 601 302.5 c 128,-1,30
 695 280 695 280 918.5 273.5 c 128,-1,31
 1142 267 1142 267 1273.42285156 280.224609375 c 0,32,33
 1587.17028035 313.017797869 1587.17028035 313.017797869 1603.23828125 466.33203125 c 2,34,-1
 1609.390625 525.03515625 l 1,35,-1
 1609.390625 1524.27050781 l 1,36,-1
 1872.7265625 1524.27050781 l 1,37,-1
 1872.7265625 490.111328125 l 1,38,39
 1874 354 1874 354 1826.81640625 276.492675781 c 0,40,41
 1689 52 1689 52 1291.99707031 13.52734375 c 0,42,43
 1166 1 1166 1 911 3 c 128,-1,44
 656 5 656 5 494.5 51.5 c 128,-1,45
 333 98 333 98 225.892970322 223.713284811 c 0,46,47
 119 349 119 349 99.0595703125 535.649414062 c 0,48,49
 85.0087257264 671.915377363 85.0087257264 671.915377363 138.439453125 823.258789062 c 2,50,-1
 151.389648438 859.940429688 l 1,51,-1
 400.790039062 810.881835938 l 1,52,-1
 390.318359375 765.571289062 l 2,53,54
 358 628 358 628 367.26953125 568.55859375 c 0,27,28
EndSplineSet
Substitution2: "'fina' Terminal Forms in Arabic lookup 9 subtable" uniFEDA
Substitution2: "'medi' Medial Forms in Arabic lookup 11 subtable" uniFEDC
Substitution2: "'init' Initial Forms in Arabic lookup 13 subtable" uniFEDB
EndChar

StartChar: uni0644
Encoding: 1604 1604 41
Width: 1456
VWidth: 2438
GlyphClass: 2
Flags: W
AnchorPoint: "Anchor-10" 517.778 1217.9 basechar 0
AnchorPoint: "Anchor-7" 482.788 -524.038 basechar 0
LayerCount: 2
Fore
SplineSet
1062.55175781 219.3515625 m 0,0,1
 1065.19042969 229.055436411 1065.19042969 229.055436411 1065.19042969 533.678710938 c 2,2,-1
 1065.19042969 1523.19140625 l 5,3,-1
 1323.04589844 1523.19140625 l 5,4,-1
 1323.04589844 533.533203125 l 2,5,6
 1323.01168172 337.072457527 1323.01168172 337.072457527 1320.421875 248.555664062 c 0,7,8
 1312 -41 1312 -41 1161 -208.5 c 128,-1,9
 1010 -376 1010 -376 725 -376 c 128,-1,10
 440 -376 440 -376 269 -227 c 128,-1,11
 98 -78 98 -78 97.9619140625 212.107421875 c 0,12,13
 98.0002859705 359.095443163 98.0002859705 359.095443163 148.368164062 490.505859375 c 2,14,-1
 162.04296875 526.18359375 l 1,15,-1
 404.520507812 476.23828125 l 1,16,-1
 390.936523438 429.447265625 l 2,17,18
 354 303 354 303 353.930664062 220.36328125 c 0,19,20
 354 47 354 47 442 -34.5 c 128,-1,21
 530 -116 530 -116 710 -116 c 128,-1,22
 890 -116 890 -116 972 -35.5 c 128,-1,23
 1054 45 1054 45 1062.55175781 219.3515625 c 0,0,1
EndSplineSet
Substitution2: "'fina' Terminal Forms in Arabic lookup 9 subtable" uniFEDE
Substitution2: "'medi' Medial Forms in Arabic lookup 11 subtable" uniFEE0
Substitution2: "'init' Initial Forms in Arabic lookup 13 subtable" uniFEDF
EndChar

StartChar: uni0645
Encoding: 1605 1605 42
Width: 1186
VWidth: 2438
GlyphClass: 2
Flags: W
AnchorPoint: "Anchor-10" 636.078 1135.98 basechar 0
AnchorPoint: "Anchor-7" 221.936 -641.918 basechar 0
LayerCount: 2
Fore
SplineSet
559.108398438 463.64453125 m 0,0,1
 559.139648438 434.77734375 559.139648438 434.77734375 559.05859375 408.852539062 c 1,2,3
 669.333984375 392.927734375 669.333984375 392.927734375 754.028609272 396.03503596 c 128,-1,4
 838.723234169 399.142337545 838.723234169 399.142337545 849.879882812 413.094726562 c 128,-1,5
 861.104111506 427.131630489 861.104111506 427.131630489 831.711914062 489.0078125 c 0,6,7
 760.911132812 641.360351562 760.911132812 641.360351562 669.727539062 640.276367188 c 0,8,9
 628.030273438 639.8203125 628.030273438 639.8203125 593.520996094 596.583984375 c 128,-1,10
 559.01171875 553.34765625 559.01171875 553.34765625 559.108398438 463.64453125 c 0,0,1
97.7392578125 -86.26171875 m 2,11,12
 97.7392578125 321.913276919 97.7392578125 321.913276919 308.212890625 391.916992188 c 1,13,14
 311 687 311 687 457.487304688 814.950195312 c 0,15,16
 545 892 545 892 675.946289062 891.926757812 c 128,-1,17
 807 892 807 892 908.745117188 795.590820312 c 0,18,19
 1011 699 1011 699 1068.81933594 518.7109375 c 0,20,21
 1088 459 1088 459 1088.56152344 412.724609375 c 0,22,23
 1092 306 1092 306 1050.94921875 235.817382812 c 0,24,25
 1010 165 1010 165 938.534460664 149.579066386 c 0,26,27
 890 139 890 139 762 139 c 4,28,29
 638 139 638 139 550.108886719 147.200195312 c 0,30,31
 399 161 399 161 374.177734375 84.2001953125 c 0,32,33
 355.727539062 25.1276536751 355.727539062 25.1276536751 355.727539062 -101.63671875 c 2,34,-1
 355.727539062 -532.821289062 l 1,35,-1
 97.7392578125 -532.821289062 l 1,36,-1
 97.7392578125 -86.26171875 l 2,11,12
EndSplineSet
Substitution2: "'init' Initial Forms in Arabic lookup 13 subtable" uniFEE3
Substitution2: "'medi' Medial Forms in Arabic lookup 11 subtable" uniFEE4
Substitution2: "'fina' Terminal Forms in Arabic lookup 9 subtable" uniFEE2
EndChar

StartChar: uni0647
Encoding: 1607 1607 44
Width: 1064
VWidth: 2438
GlyphClass: 2
Flags: W
AnchorPoint: "Anchor-10" 494.621 1305.85 basechar 0
AnchorPoint: "Anchor-7" 383.632 -226.353 basechar 0
LayerCount: 2
Fore
SplineSet
528.740234375 647.887695312 m 1,0,1
 366 497 366 497 365.612304688 392.571289062 c 0,2,3
 366 253 366 253 531.553710938 250.89453125 c 24,4,5
 698 249 698 249 698.15234375 381.28125 c 0,6,7
 698 503 698 503 528.740234375 647.887695312 c 1,0,1
97.962890625 370.350585938 m 0,8,9
 97.7177734375 524.831054688 97.7177734375 524.831054688 269.374023438 731.283203125 c 1,10,-1
 350.678710938 823.483398438 l 1,11,-1
 294.692382812 870.6875 l 1,12,-1
 457.415039062 1055.52734375 l 1,13,-1
 490.928710938 1028.77441406 l 2,14,15
 788.436523438 791.291992188 788.436523438 791.291992188 899.57421875 580.083984375 c 0,16,17
 932.68359375 515.375 932.68359375 515.375 949.416015625 459.069335938 c 128,-1,18
 966.1484375 402.764648438 966.1484375 402.764648438 965.928710938 352.837890625 c 0,19,20
 966.405273438 171.427734375 966.405273438 171.427734375 788.951171875 63.73046875 c 0,21,22
 692.092773438 4.4013671875 692.092773438 4.4013671875 546.7109375 4.3994140625 c 0,23,24
 403.405273438 4.3974609375 403.405273438 4.3974609375 308.787109375 51.634765625 c 0,25,26
 206.241210938 101.7578125 206.241210938 101.7578125 152.040039062 182.969726562 c 128,-1,27
 97.8388671875 264.181640625 97.8388671875 264.181640625 97.962890625 370.350585938 c 0,8,9
EndSplineSet
Substitution2: "'fina' Terminal Forms in Arabic lookup 9 subtable" uniFEEA
Substitution2: "'medi' Medial Forms in Arabic lookup 11 subtable" uniFEEC
Substitution2: "'init' Initial Forms in Arabic lookup 13 subtable" uniFEEB
EndChar

StartChar: uni0648
Encoding: 1608 1608 45
Width: 957
VWidth: 2438
GlyphClass: 2
Flags: W
AnchorPoint: "Anchor-10" 418.293 1176.9 basechar 0
AnchorPoint: "Anchor-7" 379.53 -632.771 basechar 0
LayerCount: 2
Fore
SplineSet
604.407226562 262.760742188 m 5,0,1
 597.550621753 547.168147834 597.550621753 547.168147834 486.799804688 547.522460938 c 4,2,3
 421.089307297 547.867452479 421.089307297 547.867452479 387.982421875 465.055664062 c 4,4,5
 314 280 314 280 466.703125 259.465820312 c 4,6,7
 516.373046875 253.161132812 516.373046875 253.161132812 604.407226562 262.760742188 c 5,0,1
792.727539062 601.974609375 m 0,8,9
 874.581054688 432.069335938 874.581054688 432.069335938 858.747070312 145.95703125 c 128,-1,10
 842.913085938 -140.155273438 842.913085938 -140.155273438 648.263671875 -313.439453125 c 0,11,12
 489.880859375 -455.515625 489.880859375 -455.515625 164.314453125 -484.091796875 c 2,13,-1
 123.288085938 -487.692382812 l 1,14,-1
 78.3486328125 -235.063476562 l 1,15,-1
 126.83984375 -230.358398438 l 2,16,17
 460.2265625 -198.013671875 460.2265625 -198.013671875 567.013671875 4.7373046875 c 1,18,19
 509.748046875 -0.9052734375 509.748046875 -0.9052734375 469.288085938 -0.732421875 c 0,20,21
 268.176757812 1.23046875 268.176757812 1.23046875 179.059570312 130.791992188 c 0,22,23
 49.76953125 319.115234375 49.76953125 319.115234375 161.666716966 575.033781765 c 128,-1,24
 273.563902682 830.952329154 273.563902682 830.952329154 478.48352689 830.95355279 c 128,-1,25
 683.403151097 830.954776426 683.403151097 830.954776426 792.727539062 601.974609375 c 0,8,9
EndSplineSet
Substitution2: "'fina' Terminal Forms in Arabic lookup 9 subtable" uniFEEE
EndChar

StartChar: uni0649
Encoding: 1609 1609 46
Width: 1554
VWidth: 2438
GlyphClass: 2
Flags: W
AnchorPoint: "Anchor-10" 508.206 1119.7 basechar 0
AnchorPoint: "Anchor-7" 485.913 -599.935 basechar 0
LayerCount: 2
Fore
SplineSet
1048.16210938 -113.831054688 m 4,0,1
 1199 -50 1199 -50 1196.42480469 47.892578125 c 0,2,3
 1196 64 1196 64 1152.78613281 65.173828125 c 0,4,5
 1110 66 1110 66 1053.83496094 71.2509765625 c 0,6,7
 907 85 907 85 830.139648438 180.35546875 c 0,8,9
 753 276 753 276 795.599609375 464.23046875 c 0,10,11
 838 653 838 653 992.106445312 761.78515625 c 0,12,13
 1145.8877805 870.920360306 1145.8877805 870.920360306 1371.82226562 841.938476562 c 2,14,-1
 1414.45507812 836.469726562 l 1,15,-1
 1394.37695312 591.31640625 l 1,16,-1
 1330.17480469 591.31640625 l 2,17,18
 1146 591 1146 591 1078.31445312 489.522460938 c 0,19,20
 1052 450 1052 450 1042 405.659179688 c 0,21,22
 1033 366 1033 366 1049.9296875 350.927734375 c 0,23,24
 1076 328 1076 328 1195.29589844 320.318359375 c 0,25,26
 1325 313 1325 313 1391.40234375 255.120117188 c 0,27,28
 1457 198 1457 198 1456.65429688 96.287109375 c 0,29,30
 1456 -111 1456 -111 1305.54003906 -246.947265625 c 0,31,32
 1109 -425 1109 -425 736.256835938 -418.994140625 c 0,33,34
 283 -412 283 -412 156.004882812 -110.778320312 c 0,35,36
 103 14 103 14 102.702148438 176.641601562 c 0,37,38
 103.000304402 416.244622508 103.000304402 416.244622508 231.793945312 657.823242188 c 2,39,-1
 250.720703125 693.32421875 l 1,40,-1
 491.284179688 597.790039062 l 1,41,-1
 465.821289062 552.849609375 l 2,42,43
 335 322 335 322 367.98828125 98.626953125 c 0,44,45
 385 -19 385 -19 452.3984375 -77.19140625 c 0,46,47
 547 -159 547 -159 751.634765625 -158.360351562 c 0,48,49
 943 -158 943 -158 1048.16210938 -113.831054688 c 4,0,1
EndSplineSet
Substitution2: "'fina' Terminal Forms in Arabic lookup 9 subtable" uniFEF0
Substitution2: "'medi' Medial Forms in Arabic lookup 11 subtable" uniFBE9
Substitution2: "'init' Initial Forms in Arabic lookup 13 subtable" uniFBE8
EndChar

StartChar: uni064B
Encoding: 1611 1611 48
Width: -27
VWidth: 2304
GlyphClass: 4
Flags: W
AnchorPoint: "Anchor-10" 609.519 1111.82 mark 0
AnchorPoint: "Anchor-9" 609.519 1111.82 mark 0
AnchorPoint: "Anchor-1" 569.519 1660.78 basemark 0
AnchorPoint: "Anchor-1" 609.519 1111.82 mark 0
LayerCount: 2
Fore
SplineSet
302.015625 1058.01181702 m 1,0,-1
 302.015625 1172.7510716 l 1,1,-1
 805.6796875 1378.70301363 l 1,2,-1
 805.6796875 1263.96280149 l 1,3,-1
 302.015625 1058.01181702 l 1,0,-1
302.015625 1331.51572327 m 1,4,-1
 302.015625 1446.25497785 l 1,5,-1
 805.6796875 1652.20691988 l 1,6,-1
 805.6796875 1537.46670774 l 1,7,-1
 302.015625 1331.51572327 l 1,4,-1
EndSplineSet
EndChar

StartChar: uni064C
Encoding: 1612 1612 49
Width: -27
VWidth: 2304
GlyphClass: 4
Flags: W
AnchorPoint: "Anchor-10" 676.432 1216.14 mark 0
AnchorPoint: "Anchor-9" 676.432 1216.14 mark 0
AnchorPoint: "Anchor-1" 567.983 1908.35 basemark 0
AnchorPoint: "Anchor-1" 676.432 1216.14 mark 0
LayerCount: 2
Fore
SplineSet
652.655273437 1732.86425781 m 0,0,1
 569.463867188 1732.86425781 569.463867188 1732.86425781 569.463867188 1658.640625 c 0,2,3
 569.463867188 1604.83203125 569.463867188 1604.83203125 631.455078125 1580.03515625 c 0,4,5
 654.595973423 1570.77996279 654.595973423 1570.77996279 700.032226562 1556.78613281 c 1,6,-1
 713.090820312 1587.25292969 l 2,7,8
 724.69140625 1614.32226562 724.69140625 1614.32226562 724.69140625 1653.09667969 c 128,-1,9
 724.69140625 1691.87109375 724.69140625 1691.87109375 699.799316406 1712.36767578 c 128,-1,10
 674.907226562 1732.86425781 674.907226562 1732.86425781 652.655273437 1732.86425781 c 0,0,1
322.107421875 1515.49121094 m 1,11,12
 324.455667462 1290.57604303 324.455667462 1290.57604303 449.545331419 1291.76660156 c 0,13,14
 518 1292 518 1292 592.768554688 1364.57714844 c 0,15,16
 636.118126436 1406.1131846 636.118126436 1406.1131846 661.806640625 1457.5 c 2,17,-1
 672.059570312 1478.00976562 l 1,18,-1
 649.625 1482.76953125 l 2,19,20
 547 1504 547 1504 510.5 1554 c 128,-1,21
 474 1604 474 1604 474.5 1640 c 0,22,23
 475.662853297 1723.72543742 475.662853297 1723.72543742 509 1765 c 4,24,25
 553 1822 553 1822 635 1822 c 128,-1,26
 717 1822 717 1822 765 1775 c 128,-1,27
 813 1728 813 1728 813.52734375 1645.08105469 c 0,28,29
 813.997428752 1605.21804078 813.997428752 1605.21804078 800.791015625 1563.41113281 c 2,30,-1
 793.893554688 1541.57617188 l 1,31,-1
 816.765625 1540.37597656 l 2,32,33
 842 1539 842 1539 880.192382812 1538.27148438 c 1,34,-1
 880.192382812 1449.32617188 l 1,35,36
 838.775681949 1450.00366941 838.775681949 1450.00366941 823.913085938 1451.43261719 c 2,37,-1
 752.243164062 1458.32324219 l 1,38,39
 719 1380 719 1380 655.074213481 1314.56331625 c 128,-1,40
 591 1249 591 1249 543.5 1226 c 128,-1,41
 496 1203 496 1203 447.08203125 1202.93164062 c 0,42,43
 332 1203 332 1203 279 1347 c 0,44,45
 257 1407 257 1407 255.86328125 1515.49121094 c 1,46,-1
 322.107421875 1515.49121094 l 1,11,12
854.4921875 1539.21972656 m 2,47,-1
 854.388671875 1539.22558594 l 2,48,49
 854.440429688 1539.22265625 854.440429688 1539.22265625 854.4921875 1539.21972656 c 2,47,-1
EndSplineSet
EndChar

StartChar: uni064D
Encoding: 1613 1613 50
Width: -27
VWidth: 2304
GlyphClass: 4
Flags: W
AnchorPoint: "Anchor-7" 552.623 75.7275 mark 0
AnchorPoint: "Anchor-6" 552.623 75.7275 mark 0
AnchorPoint: "Anchor-0" 635.519 -468.112 basemark 0
AnchorPoint: "Anchor-0" 552.623 75.7275 mark 0
LayerCount: 2
Fore
SplineSet
307.295898438 -515.428599567 m 1,0,-1
 307.295898438 -400.688387431 l 1,1,-1
 810.959960938 -194.737402955 l 1,2,-1
 810.959960938 -309.47665754 l 1,3,-1
 307.295898438 -515.428599567 l 1,0,-1
307.295898438 -241.924693317 m 1,4,-1
 307.295898438 -127.184481181 l 1,5,-1
 810.959960938 78.7665032954 l 1,6,-1
 810.959960938 -35.9727512898 l 1,7,-1
 307.295898438 -241.924693317 l 1,4,-1
EndSplineSet
EndChar

StartChar: uni064E
Encoding: 1614 1614 51
Width: -27
VWidth: 2304
GlyphClass: 4
Flags: W
AnchorPoint: "Anchor-10" 577.839 1361.15 mark 0
AnchorPoint: "Anchor-9" 577.839 1361.15 mark 0
AnchorPoint: "Anchor-1" 537.839 1686.13 basemark 0
AnchorPoint: "Anchor-1" 577.839 1361.15 mark 0
LayerCount: 2
Fore
SplineSet
271.391601562 1330.45909574 m 1,0,-1
 271.391601562 1445.19931378 l 1,1,-1
 775.055664062 1651.15125582 l 1,2,-1
 775.055664062 1536.41103778 l 1,3,-1
 271.391601562 1330.45909574 l 1,0,-1
EndSplineSet
EndChar

StartChar: uni064F
Encoding: 1615 1615 52
Width: -27
VWidth: 2304
GlyphClass: 4
Flags: W
AnchorPoint: "Anchor-10" 615.623 1281.01 mark 0
AnchorPoint: "Anchor-9" 615.623 1281.01 mark 0
AnchorPoint: "Anchor-1" 546.519 1923.2 basemark 0
AnchorPoint: "Anchor-1" 615.623 1281.01 mark 0
LayerCount: 2
Fore
SplineSet
822.727539062 1464.22460938 m 1,0,1
 766 1465 766 1465 690.735351562 1473.01953125 c 1,2,3
 638 1399 638 1399 563.377929688 1352.99902344 c 0,4,5
 445 1279 445 1279 311 1274 c 1,6,-1
 311 1362.74121094 l 1,7,8
 469.98114436 1367.90966253 469.98114436 1367.90966253 569.69921875 1477.09472656 c 1,9,-1
 591.280273438 1499.82519531 l 1,10,-1
 560.689453125 1506.61621094 l 2,11,12
 554 1508 554 1508 515.5 1528 c 128,-1,13
 477 1548 477 1548 449 1586.5 c 128,-1,14
 421 1625 421 1625 420.904296875 1671.78222656 c 0,15,16
 421 1763 421 1763 491.776367188 1816.36425781 c 0,17,18
 519 1837 519 1837 589 1837 c 128,-1,19
 659 1837 659 1837 707.5 1789.5 c 128,-1,20
 756 1742 756 1742 756.0625 1659.92871094 c 0,21,22
 756 1626.25097656 756 1626.25097656 741.043945312 1578.18945312 c 2,23,-1
 734.313476562 1556.56152344 l 1,24,-1
 756.931640625 1555.22460938 l 2,25,26
 795 1553 795 1553 822.727539062 1553.02832031 c 1,27,-1
 822.727539062 1464.22460938 l 1,0,1
642.567382812 1571.63476562 m 1,28,-1
 655.625976562 1602.09960938 l 2,29,30
 667.227539062 1629.17382812 667.227539062 1629.17382812 667.227539062 1667.94628906 c 128,-1,31
 667.227539062 1706.71875 667.227539062 1706.71875 642.33203125 1727.21582031 c 128,-1,32
 617.435546875 1747.71191406 617.435546875 1747.71191406 587.264648438 1747.71191406 c 128,-1,33
 557.09375 1747.71191406 557.09375 1747.71191406 534.546875 1730.53710938 c 128,-1,34
 512 1713.36230469 512 1713.36230469 512 1666.52148438 c 128,-1,35
 512 1619.6796875 512 1619.6796875 573.990234375 1594.88183594 c 0,36,37
 597.16015625 1585.61523438 597.16015625 1585.61523438 642.567382812 1571.63476562 c 1,28,-1
EndSplineSet
EndChar

StartChar: uni0650
Encoding: 1616 1616 53
Width: -27
VWidth: 2304
GlyphClass: 4
Flags: W
AnchorPoint: "Anchor-7" 567.391 -16.2002 mark 0
AnchorPoint: "Anchor-6" 567.391 -16.2002 mark 0
AnchorPoint: "Anchor-0" 615.023 -326.944 basemark 0
AnchorPoint: "Anchor-0" 567.391 -16.2002 mark 0
LayerCount: 2
Fore
SplineSet
317.856445312 -352.804583874 m 1,0,-1
 317.856445312 -238.064361577 l 1,1,-1
 821.51953125 -32.1133848752 l 1,2,-1
 821.51953125 -146.853607173 l 1,3,-1
 317.856445312 -352.804583874 l 1,0,-1
EndSplineSet
EndChar

StartChar: uni0651
Encoding: 1617 1617 54
Width: -27
VWidth: 2304
GlyphClass: 4
Flags: W
AnchorPoint: "Anchor-10" 609.519 1390.22 mark 0
AnchorPoint: "Anchor-9" 609.519 1390.22 mark 0
AnchorPoint: "Anchor-1" 578.847 1840.34 basemark 0
AnchorPoint: "Anchor-1" 609.519 1390.22 mark 0
LayerCount: 2
Fore
SplineSet
577.407226562 1531.921875 m 1,0,1
 547 1367 547 1367 402.48400556 1366.87597656 c 0,2,3
 258 1367 258 1367 257.186523438 1552.89257812 c 0,4,5
 257 1590 257 1590 272.712890625 1693.63867188 c 1,6,-1
 347.826171875 1693.63867188 l 1,7,8
 335 1604 335 1604 335 1576 c 0,9,10
 335 1463 335 1463 414.949708912 1463.0777407 c 0,11,12
 525 1463 525 1463 530.60546875 1607.45214844 c 0,13,14
 532 1647 532 1647 531.875 1694.11621094 c 0,15,16
 532 1741 532 1741 531.86328125 1749.95605469 c 1,17,-1
 606.123046875 1749.95605469 l 1,18,19
 608 1714 608 1714 608.287109375 1665.99121094 c 0,20,21
 608.000414097 1525.20335128 608.000414097 1525.20335128 730.454841185 1525.40617962 c 2,22,-1
 731.086914062 1525.40722656 l 2,23,24
 805 1526 805 1526 805.22265625 1644.49707031 c 0,25,26
 806 1750 806 1750 794.323242188 1812.33496094 c 1,27,-1
 873.943359375 1812.33496094 l 1,28,29
 885 1733 885 1733 885 1639 c 0,30,31
 885 1486 885 1486 800.654296875 1449.91699219 c 0,32,33
 768 1436 768 1436 736 1435 c 0,34,35
 665 1432 665 1432 628 1459 c 0,36,37
 583 1492 583 1492 577.407226562 1531.921875 c 1,0,1
EndSplineSet
EndChar

StartChar: uni0652
Encoding: 1618 1618 55
Width: -27
VWidth: 2304
GlyphClass: 4
Flags: W
AnchorPoint: "Anchor-10" 588.527 1187.7 mark 0
AnchorPoint: "Anchor-9" 588.527 1187.7 mark 0
AnchorPoint: "Anchor-1" 573.743 1793.31 basemark 0
AnchorPoint: "Anchor-1" 588.527 1187.7 mark 0
LayerCount: 2
Fore
SplineSet
707.344726562 1457.10253906 m 0,0,1
 707.344726562 1505.78320312 707.344726562 1505.78320312 673.299804688 1539.828125 c 128,-1,2
 639.258789062 1573.87304688 639.258789062 1573.87304688 589.884765625 1573.87304688 c 0,3,4
 539.819335938 1573.87304688 539.819335938 1573.87304688 506.124023438 1540.17675781 c 128,-1,5
 472.427734375 1506.48046875 472.427734375 1506.48046875 472.427734375 1457.10253906 c 0,6,7
 472.427734375 1407.03808594 472.427734375 1407.03808594 506.124023438 1373.34277344 c 128,-1,8
 539.819335938 1339.64648438 539.819335938 1339.64648438 589.884765625 1339.64648438 c 0,9,10
 639.260742188 1339.64648438 639.260742188 1339.64648438 673.299804688 1373.69140625 c 128,-1,11
 707.344726562 1407.73535156 707.344726562 1407.73535156 707.344726562 1457.10253906 c 0,0,1
779.41796875 1457.21875 m 128,-1,13
 779.41796875 1377.71484375 779.41796875 1377.71484375 724.528320312 1322.47265625 c 128,-1,14
 669.673828125 1267.2734375 669.673828125 1267.2734375 590.212890625 1267.2734375 c 0,15,16
 563.655273438 1267.2734375 563.655273438 1267.2734375 539.920898438 1273.39550781 c 128,-1,17
 516.186523438 1279.51757812 516.186523438 1279.51757812 495.203125 1291.77636719 c 128,-1,18
 474.220703125 1304.03515625 474.220703125 1304.03515625 455.8984375 1322.47265625 c 0,19,20
 428.400390625 1350.14648438 428.400390625 1350.14648438 414.704101562 1383.76074219 c 128,-1,21
 401.006835938 1417.375 401.006835938 1417.375 401.006835938 1457.21875 c 0,22,23
 401.006835938 1536.6953125 401.006835938 1536.6953125 455.8671875 1591.56542969 c 128,-1,24
 510.7265625 1646.42480469 510.7265625 1646.42480469 590.212890625 1646.42480469 c 128,-1,25
 669.698242188 1646.42480469 669.698242188 1646.42480469 724.556640625 1591.56542969 c 128,-1,12
 779.41796875 1536.6953125 779.41796875 1536.6953125 779.41796875 1457.21875 c 128,-1,13
EndSplineSet
EndChar

StartChar: uni0653
Encoding: 1619 1619 56
Width: -28
VWidth: 2393
GlyphClass: 4
Flags: W
AnchorPoint: "Anchor-10" 412.188 1381.58 mark 0
AnchorPoint: "Anchor-9" 412.188 1381.58 mark 0
AnchorPoint: "Anchor-1" 412.188 1762.58 basemark 0
AnchorPoint: "Anchor-1" 412.188 1381.58 mark 0
LayerCount: 2
Fore
SplineSet
336.745117188 1444.66503906 m 2,0,1
 241.37812183 1455.01000874 241.37812183 1455.01000874 171.194335938 1367.69824219 c 2,2,-1
 155.288085938 1347.91015625 l 1,3,-1
 45.5427511554 1455.57285401 l 1,4,-1
 53.6377318347 1467.54995887 l 2,5,6
 161.802416706 1627.70744201 161.802416706 1627.70744201 328.439290969 1604.16307455 c 2,7,-1
 494.1953125 1580.74316406 l 2,8,9
 618 1563 618 1563 713.430664062 1625.48046875 c 1,10,-1
 790 1499 l 1,11,12
 686.671564176 1406.70663985 686.671564176 1406.70663985 496.145507812 1427.37402344 c 2,13,-1
 336.745117188 1444.66503906 l 2,0,1
EndSplineSet
EndChar

StartChar: uni0657
Encoding: 1623 1623 59
Width: -27
VWidth: 2304
GlyphClass: 4
Flags: W
AnchorPoint: "Anchor-10" 569.519 1347.15 mark 0
AnchorPoint: "Anchor-9" 569.519 1347.15 mark 0
AnchorPoint: "Anchor-1" 569.519 2081.6 basemark 0
AnchorPoint: "Anchor-1" 569.519 1347.15 mark 0
LayerCount: 2
Fore
SplineSet
659.133789062 1603.78173828 m 0,0,1
 659 1430 659 1430 491.074544274 1431.54492188 c 0,2,3
 421 1432 421 1432 372.388183594 1478.93945313 c 0,4,5
 324 1526 324 1526 323.975585938 1608.16308594 c 0,6,7
 323.99979061 1641.70979344 323.99979061 1641.70979344 338.994140625 1689.90234375 c 2,8,-1
 345.723632812 1711.53125 l 1,9,-1
 323.10546875 1712.8671875 l 2,10,11
 287 1715 287 1715 257.310546875 1715.06347656 c 1,12,-1
 257.310546875 1803.8671875 l 1,13,14
 314 1803 314 1803 389.303710938 1795.07324219 c 1,15,16
 442 1870 442 1870 516.661132812 1915.09375 c 0,17,18
 698 2026 698 2026 785 2030.74121094 c 5,19,-1
 785 1942 l 5,20,21
 692 1939 692 1939 559.72265625 1835.68164062 c 0,22,23
 533 1815 533 1815 510.338867188 1790.99804688 c 2,24,-1
 488.760742188 1768.28125 l 1,25,-1
 519.344726562 1761.47558594 l 2,26,27
 528 1760 528 1760 565.211425781 1739.94873047 c 0,28,29
 603 1720 603 1720 631.176757812 1681.52148438 c 0,30,31
 659 1643 659 1643 659.133789062 1603.78173828 c 0,0,1
480.167480469 1520.38085938 m 0,32,33
 568.038085938 1520.38085938 568.038085938 1520.38085938 568.038085938 1594.60449219 c 0,34,35
 568.038085938 1648.41148902 568.038085938 1648.41148902 506.048828125 1673.20996094 c 0,36,37
 482.976628637 1682.4430983 482.976628637 1682.4430983 437.471679688 1696.45898438 c 1,38,-1
 424.413085938 1665.99316406 l 2,39,40
 412.810546875 1638.92285156 412.810546875 1638.92285156 412.810546875 1600.15429688 c 128,-1,41
 412.810546875 1561.38574219 412.810546875 1561.38574219 437.703125 1540.88330078 c 128,-1,42
 462.595703125 1520.38085938 462.595703125 1520.38085938 480.167480469 1520.38085938 c 0,32,33
EndSplineSet
EndChar

StartChar: uni065A
Encoding: 1626 1626 60
Width: 1129
VWidth: 2304
GlyphClass: 4
Flags: W
AnchorPoint: "Anchor-10" 569.519 1347.15 mark 0
AnchorPoint: "Anchor-9" 569.519 1347.15 mark 0
AnchorPoint: "Anchor-1" 567.259 1855.62 basemark 0
AnchorPoint: "Anchor-1" 569.519 1347.15 mark 0
LayerCount: 2
Fore
SplineSet
495.958007812 1434.93457031 m 1,0,-1
 296.83203125 1767.83300781 l 1,1,-1
 413.142578125 1767.83300781 l 1,2,-1
 569.518554688 1533.26269531 l 1,3,-1
 725.89453125 1767.83300781 l 1,4,-1
 842.206054688 1767.83300781 l 1,5,-1
 643.077148438 1434.93457031 l 1,6,-1
 495.958007812 1434.93457031 l 1,0,-1
EndSplineSet
EndChar

StartChar: afii57392
Encoding: 1632 1632 61
Width: 1047
VWidth: 2438
GlyphClass: 2
Flags: W
LayerCount: 2
Fore
SplineSet
411.860351562 614.306640625 m 132,-1,1
 411.860351562 565.426757812 411.860351562 565.426757812 445.700195312 531.586914062 c 132,-1,2
 479.540039062 497.747070312 479.540039062 497.747070312 528.419921875 497.747070312 c 132,-1,3
 577.299804688 497.747070312 577.299804688 497.747070312 611.139648438 531.586914062 c 132,-1,4
 644.98046875 565.426757812 644.98046875 565.426757812 644.98046875 614.306640625 c 132,-1,5
 644.98046875 663.186523438 644.98046875 663.186523438 611.139648438 697.026367188 c 132,-1,6
 577.299804688 730.8671875 577.299804688 730.8671875 528.419921875 730.8671875 c 132,-1,7
 479.540039062 730.8671875 479.540039062 730.8671875 445.700195312 697.026367188 c 132,-1,0
 411.860351562 663.186523438 411.860351562 663.186523438 411.860351562 614.306640625 c 132,-1,1
215.997070312 612.5 m 0,8,9
 215.251953125 740.391601562 215.251953125 740.391601562 306.180664062 831.319335938 c 0,10,11
 397.445355823 922.586015169 397.445355823 922.586015169 524.99953338 922.585976335 c 128,-1,12
 652.553710938 922.5859375 652.553710938 922.5859375 743.819335938 831.319335938 c 128,-1,13
 835.086015169 740.054644177 835.086015169 740.054644177 835.085976335 612.50046662 c 128,-1,14
 835.0859375 484.946289062 835.0859375 484.946289062 743.819335938 393.680664062 c 128,-1,15
 652.553710938 302.4140625 652.553710938 302.4140625 525 302.4140625 c 128,-1,16
 397.446289062 302.4140625 397.446289062 302.4140625 306.349121094 393.511230469 c 128,-1,17
 215.251953125 484.608398438 215.251953125 484.608398438 215.997070312 612.5 c 0,8,9
EndSplineSet
EndChar

StartChar: afii57393
Encoding: 1633 1633 62
Width: 779
VWidth: 2438
GlyphClass: 2
Flags: W
LayerCount: 2
Fore
SplineSet
567.952148438 9.3349609375 m 1,0,-1
 309.4609375 9.3349609375 l 1,1,-1
 309.299804688 54.1728515625 l 2,2,3
 308 320 308 320 264.11328125 729.463867188 c 4,4,5
 219.887299528 1136.03606244 219.887299528 1136.03606244 114.223632812 1332.9765625 c 6,6,-1
 89.3212890625 1379.390625 l 5,7,-1
 327.275390625 1462.40429688 l 5,8,-1
 345.810546875 1429.80566406 l 6,9,10
 467 1217 467 1217 530.40625 662.30078125 c 4,11,12
 567.987826143 338.105017226 567.987826143 338.105017226 567.95703125 54.330078125 c 2,13,-1
 567.952148438 9.3349609375 l 1,0,-1
EndSplineSet
EndChar

StartChar: afii57394
Encoding: 1634 1634 63
Width: 1247
VWidth: 2438
GlyphClass: 2
Flags: W
LayerCount: 2
Fore
SplineSet
347.467773438 1464.03710938 m 1,0,-1
 437.025390625 1182.81640625 l 2,1,2
 465 1094 465 1094 530.751953125 1054.74316406 c 0,3,4
 596 1016 596 1016 711.317382812 1022.73144531 c 0,5,6
 826 1030 826 1030 864.107421875 1158.62109375 c 0,7,8
 883.877640783 1225.58555245 883.877640783 1225.58555245 880.149414062 1408.171875 c 2,9,-1
 879.208984375 1454.22851562 l 1,10,-1
 1138.40429688 1453.453125 l 1,11,-1
 1139.67089844 1409.89160156 l 2,12,13
 1153 935 1153 935 911.762695312 806.64453125 c 0,14,15
 831 764 831 764 727.576171875 762.427734375 c 128,-1,16
 624 761 624 761 552.732421875 777.793945312 c 1,17,18
 585.485678055 623.589167192 585.485678055 623.589167192 604.001953125 406.962402344 c 4,19,20
 623 173 623 173 614.8515625 9.3349609375 c 1,21,-1
 359.096679688 9.3349609375 l 1,22,23
 358.315348053 248.578707484 358.315348053 248.578707484 309.111328125 626.375 c 4,24,25
 259.951718226 1000.36731399 259.951718226 1000.36731399 111.985351562 1336.06152344 c 2,26,-1
 91.8486328125 1381.74609375 l 1,27,-1
 347.467773438 1464.03710938 l 1,0,-1
EndSplineSet
EndChar

StartChar: afii57395
Encoding: 1635 1635 64
Width: 1366
VWidth: 2438
GlyphClass: 2
Flags: W
LayerCount: 2
Fore
SplineSet
764.147460938 834.331054688 m 1,0,1
 684 768 684 768 551.389648438 767.481445312 c 1,2,3
 565 698 565 698 590.330078125 527.420898438 c 0,4,5
 616 354 616 354 617.590820312 9.3349609375 c 1,6,-1
 358.919921875 9.3349609375 l 1,7,-1
 358.788085938 54.203125 l 2,8,9
 357.9553518 231.506359829 357.9553518 231.506359829 316.526367188 594.826171875 c 0,10,11
 275.096484549 959.151535895 275.096484549 959.151535895 112.095703125 1336.02148438 c 2,12,-1
 92.587890625 1381.125 l 1,13,-1
 345.114257812 1464.88964844 l 1,14,-1
 429.791992188 1157.69433594 l 2,15,16
 460 1049 460 1049 521.993164062 1032.64355469 c 4,17,18
 544 1027 544 1027 566.727539062 1028.49316406 c 4,19,20
 627 1034 627 1034 630.296875 1114.35742188 c 0,21,22
 636.436760685 1267.91360135 636.436760685 1267.91360135 637.241210938 1357.515625 c 2,23,-1
 637.641601562 1402.11230469 l 1,24,-1
 871.458007812 1402.11230469 l 1,25,-1
 871.540039062 1357.19433594 l 2,26,27
 872 1116 872 1116 876.841796875 1086.76855469 c 0,28,29
 887 1027 887 1027 953.966796875 1030.52832031 c 0,30,31
 997 1033 997 1033 1011 1077 c 0,32,33
 1037.96117494 1158.88208685 1037.96117494 1158.88208685 1032.19921875 1408.08007812 c 2,34,-1
 1031.13574219 1454.07421875 l 1,35,-1
 1274.61621094 1454.31640625 l 1,36,-1
 1274.31835938 1408.97558594 l 2,37,38
 1272 1046 1272 1046 1208.8046875 912.8203125 c 0,39,40
 1137 763 1137 763 970.934570312 764.927734375 c 0,41,42
 843 766 843 766 764.147460938 834.331054688 c 1,0,1
EndSplineSet
EndChar

StartChar: afii57396
Encoding: 1636 1636 65
Width: 1073
VWidth: 2438
GlyphClass: 2
Flags: W
LayerCount: 2
Fore
SplineSet
107.015625 376.9296875 m 0,0,1
 100 580 100 580 383.984375 760.768554688 c 1,2,3
 180 848 180 848 183.173828125 1031.33105469 c 0,4,5
 190.993310743 1437.65240823 190.993310743 1437.65240823 723.208984375 1429.84570312 c 2,6,-1
 767.548828125 1429.1953125 l 1,7,-1
 767.548828125 1168.4765625 l 1,8,-1
 724.091796875 1166.98632812 l 2,9,10
 448 1158 448 1158 448.0625 1036.4375 c 128,-1,11
 447.99994231 914.887908361 447.99994231 914.887908361 755.567382812 914.127929688 c 2,12,-1
 799.83203125 914.018554688 l 1,13,-1
 802.952148438 691.141601562 l 5,14,15
 356 566 356 566 357.3515625 386.661132812 c 0,16,17
 359.019664527 266.715597847 359.019664527 266.715597847 617.927734375 267.599609375 c 2,18,-1
 964.291015625 268.782226562 l 1,19,-1
 967.3125 -0.046875 l 1,20,-1
 578.669921875 0.37890625 l 2,21,22
 261 1 261 1 155.797851562 187.123046875 c 0,23,24
 110 268 110 268 107.015625 376.9296875 c 0,0,1
EndSplineSet
EndChar

StartChar: afii57397
Encoding: 1637 1637 66
Width: 1278
VWidth: 2438
GlyphClass: 2
Flags: W
LayerCount: 2
Fore
SplineSet
620.008789062 963.112304688 m 5,0,1
 494 837 494 837 447.896484375 759.108398438 c 4,2,3
 371 629 371 629 370.938476562 516.426757812 c 4,4,5
 371 426 371 426 440.716796875 369.1640625 c 4,6,7
 511 312 511 312 668.471679688 312.290039062 c 4,8,9
 839 313 839 313 899.416015625 438.619140625 c 4,10,11
 966 574 966 574 813.686523438 776.717773438 c 4,12,13
 721 900 721 900 620.008789062 963.112304688 c 5,0,1
371.27734375 1144.63085938 m 5,14,-1
 513.900390625 1360.72460938 l 5,15,-1
 549.77734375 1342.33300781 l 6,16,17
 666 1283 666 1283 810.116210938 1158.15820312 c 4,18,19
 1171 843 1171 843 1170.96484375 513.543945312 c 4,20,21
 1171 321 1171 321 1064.8125 210.420898438 c 4,22,23
 922 60 922 60 644.65625 60.8994140625 c 4,24,25
 270 61 270 61 145.915039062 334.086914062 c 4,26,27
 107 420 107 420 107.227539062 504.25390625 c 4,28,29
 109 801 109 801 412.840820312 1118.86328125 c 5,30,-1
 371.27734375 1144.63085938 l 5,14,-1
EndSplineSet
EndChar

StartChar: afii57398
Encoding: 1638 1638 67
Width: 1291
VWidth: 2438
GlyphClass: 2
Flags: W
LayerCount: 2
Fore
SplineSet
746.174804688 1125.67871094 m 1,0,1
 434.290778961 1055.06583453 434.290778961 1055.06583453 92.736328125 1153.71386719 c 2,2,-1
 60.22265625 1163.10449219 l 1,3,-1
 60.22265625 1436.00097656 l 1,4,-1
 116.68359375 1421.13085938 l 2,5,6
 501.238307198 1319.9372907 501.238307198 1319.9372907 946.590820312 1422.37304688 c 2,7,-1
 1001.44140625 1434.98925781 l 1,8,-1
 1001.67773438 1378.70703125 l 2,9,10
 1005 684 1005 684 1132.31152344 180.8515625 c 24,11,12
 1147 123 1147 123 1183.68261719 9.3349609375 c 1,13,-1
 904.97265625 9.3349609375 l 1,14,15
 801.063834647 429.835313706 801.063834647 429.835313706 781.619140625 648.666015625 c 4,16,17
 750 1000 750 1000 746.174804688 1125.67871094 c 1,0,1
EndSplineSet
EndChar

StartChar: afii57399
Encoding: 1639 1639 68
Width: 1291
VWidth: 2438
GlyphClass: 2
Flags: W
LayerCount: 2
Fore
SplineSet
381.66796875 553.966796875 m 4,0,1
 206.803471589 1113.6289986 206.803471589 1113.6289986 93.0703125 1333.50195312 c 6,2,-1
 69.169921875 1379.70703125 l 5,3,-1
 309.518554688 1462.80957031 l 5,4,-1
 327.252929688 1427.75976562 l 6,5,6
 544 999 544 999 645.05859375 535.453125 c 5,7,8
 746.347831518 997.586987191 746.347831518 997.586987191 962.8515625 1427.68554688 c 6,9,-1
 980.513671875 1462.77246094 l 5,10,-1
 1221.69628906 1379.92675781 l 5,11,-1
 1198.32910156 1333.81835938 l 6,12,13
 1080 1100 1080 1100 908.263671875 553.293945312 c 4,14,15
 786 166 786 166 773.15234375 9.3349609375 c 5,16,-1
 517.76953125 9.3349609375 l 5,17,18
 506 155 506 155 381.66796875 553.966796875 c 4,0,1
EndSplineSet
EndChar

StartChar: afii57400
Encoding: 1640 1640 69
Width: 1291
VWidth: 2438
GlyphClass: 2
Flags: W
LayerCount: 2
Fore
SplineSet
381.66796875 918.177734375 m 4,0,1
 206.803710938 358.515625 206.803710938 358.515625 93.0703125 138.642578125 c 6,2,-1
 69.169921875 92.4375 l 5,3,-1
 309.518554688 9.3349609375 l 5,4,-1
 327.252929688 44.384765625 l 6,5,6
 544 473.14453125 544 473.14453125 645.05859375 936.69140625 c 5,7,8
 746.34765625 474.557617188 746.34765625 474.557617188 962.8515625 44.458984375 c 6,9,-1
 980.513671875 9.3720703125 l 5,10,-1
 1221.69628906 92.2177734375 l 5,11,-1
 1198.32910156 138.326171875 l 6,12,13
 1080 372.14453125 1080 372.14453125 908.263671875 918.850585938 c 4,14,15
 786 1306.14453125 786 1306.14453125 773.15234375 1462.80957031 c 5,16,-1
 517.76953125 1462.80957031 l 5,17,18
 506 1317.14453125 506 1317.14453125 381.66796875 918.177734375 c 4,0,1
EndSplineSet
EndChar

StartChar: afii57401
Encoding: 1641 1641 70
Width: 1285
VWidth: 2438
GlyphClass: 2
Flags: W
LayerCount: 2
Fore
SplineSet
904.55078125 44.8125 m 2,0,1
 861.006975661 245.944466083 861.006975661 245.944466083 818.927734375 580.94140625 c 1,2,3
 612 582 612 582 513.62109375 604.317382812 c 0,4,5
 218 671 218 671 133.618164062 879.459960938 c 0,6,7
 108 943 108 943 107.870117188 1023.65429688 c 0,8,9
 108 1197 108 1197 224.026367188 1314.24609375 c 0,10,11
 407 1500 407 1500 670.754882812 1463.44238281 c 0,12,13
 805 1445 805 1445 883.205078125 1368.74511719 c 0,14,15
 1026 1230 1026 1230 1041.98046875 1009.265625 c 0,16,17
 1052.6819386 865.386703322 1052.6819386 865.386703322 1092.0546875 536.862304688 c 0,18,19
 1122.89758307 278.856733371 1122.89758307 278.856733371 1177.58398438 65.5078125 c 2,20,-1
 1191.98242188 9.3349609375 l 1,21,-1
 912.231445312 9.3349609375 l 1,22,-1
 904.55078125 44.8125 l 2,0,1
794.272460938 841.221679688 m 1,23,-1
 788.250976562 915.670898438 l 2,24,25
 776 1073 776 1073 744.376953125 1119.12011719 c 0,26,27
 685 1207 685 1207 568.23828125 1207.21679688 c 0,28,29
 485 1208 485 1208 426.013671875 1150.43066406 c 128,-1,30
 367 1093 367 1093 367 1021.5 c 128,-1,31
 367 950 367 950 429 901 c 128,-1,32
 491 852 491 852 620.5 847 c 128,-1,33
 750 842 750 842 794.272460938 841.221679688 c 1,23,-1
EndSplineSet
EndChar

StartChar: afii57381
Encoding: 1642 1642 71
Width: 1263
VWidth: 2438
GlyphClass: 2
Flags: W
LayerCount: 2
Fore
SplineSet
802.077148438 235.817382812 m 128,-1,1
 802.077148438 312.45703125 802.077148438 312.45703125 855.2578125 365.63671875 c 128,-1,2
 908.4375 418.817382812 908.4375 418.817382812 985.077148438 418.817382812 c 128,-1,3
 1061.71679688 418.817382812 1061.71679688 418.817382812 1114.89648438 365.63671875 c 128,-1,4
 1168.07714844 312.45703125 1168.07714844 312.45703125 1168.07714844 235.815429688 c 128,-1,5
 1168.07714844 159.174804688 1168.07714844 159.174804688 1114.89648438 105.998046875 c 128,-1,6
 1061.71679688 52.8173828125 1061.71679688 52.8173828125 985.077148438 52.8173828125 c 128,-1,7
 908.4375 52.8173828125 908.4375 52.8173828125 855.2578125 105.998046875 c 128,-1,0
 802.077148438 159.176757812 802.077148438 159.176757812 802.077148438 235.817382812 c 128,-1,1
105.1015625 1368.59765625 m 128,-1,9
 105.1015625 1445.23730469 105.1015625 1445.23730469 158.282226562 1498.41699219 c 128,-1,10
 211.461914062 1551.59765625 211.461914062 1551.59765625 288.1015625 1551.59765625 c 128,-1,11
 364.741210938 1551.59765625 364.741210938 1551.59765625 417.920898438 1498.41699219 c 128,-1,12
 471.1015625 1445.23730469 471.1015625 1445.23730469 471.1015625 1368.59614961 c 128,-1,13
 471.1015625 1291.95499453 471.1015625 1291.95499453 417.920898438 1238.77832031 c 128,-1,14
 364.741210938 1185.59765625 364.741210938 1185.59765625 288.1015625 1185.59765625 c 128,-1,15
 211.461914062 1185.59765625 211.461914062 1185.59765625 158.282226562 1238.77832031 c 128,-1,8
 105.1015625 1291.95698803 105.1015625 1291.95698803 105.1015625 1368.59765625 c 128,-1,9
934.987304688 1604.359375 m 1,16,-1
 1138.07910156 1496.91601562 l 1,17,-1
 359.13671875 -3.3681640625 l 1,18,-1
 155.259765625 98.3271484375 l 1,19,-1
 934.987304688 1604.359375 l 1,16,-1
EndSplineSet
EndChar

StartChar: uni066B
Encoding: 1643 1643 72
Width: 751
VWidth: 2438
GlyphClass: 2
Flags: W
LayerCount: 2
Fore
SplineSet
462.526367188 624.966796875 m 1,0,-1
 690.881835938 623.34375 l 5,1,-1
 261.158203125 -253.1953125 l 1,2,-1
 29.580078125 -250.159179688 l 1,3,-1
 462.526367188 624.966796875 l 1,0,-1
EndSplineSet
EndChar

StartChar: uni066C
Encoding: 1644 1644 73
Width: 654
VWidth: 2349
GlyphClass: 2
Flags: W
LayerCount: 2
Fore
SplineSet
214.40234375 404.861328125 m 128,-1,1
 266.942382812 440.951171875 266.942382812 440.951171875 324.015136719 439.005859375 c 0,2,3
 417.67996742 435.813313834 417.67996742 435.813313834 465.982421875 396.79296875 c 0,4,5
 569.682172227 313.013089545 569.682172227 313.013089545 515.760031426 102.598341647 c 128,-1,6
 461.837890625 -107.81640625 461.837890625 -107.81640625 283.228515625 -249.809570312 c 2,7,-1
 258.069335938 -269.809570312 l 1,8,-1
 121.984375 -182.82421875 l 1,9,-1
 168.852539062 -143.43359375 l 2,10,11
 279.56640625 -50.3798828125 279.56640625 -50.3798828125 303.504882812 87.734375 c 1,12,13
 214.646693616 98.4074823905 214.646693616 98.4074823905 176.16416712 156.548956039 c 128,-1,14
 137.681640625 214.690429688 137.681640625 214.690429688 149.771972656 291.731445312 c 128,-1,0
 161.862304688 368.772460938 161.862304688 368.772460938 214.40234375 404.861328125 c 128,-1,1
EndSplineSet
EndChar

StartChar: afii63167
Encoding: 1645 1645 74
Width: 1282
VWidth: 2438
GlyphClass: 2
Flags: W
LayerCount: 2
Fore
SplineSet
20.71875 948.374023438 m 1,0,-1
 497.6796875 948.374023438 l 1,1,-1
 646.35546875 1401.03710938 l 1,2,-1
 795.03125 948.374023438 l 1,3,-1
 1271.99414062 948.374023438 l 1,4,-1
 886.743164062 666.7421875 l 1,5,-1
 1034.26464844 213.545898438 l 1,6,-1
 646.35546875 493.850585938 l 1,7,-1
 258.447265625 213.545898438 l 1,8,-1
 405.966796875 666.7421875 l 1,9,-1
 20.71875 948.374023438 l 1,0,-1
EndSplineSet
EndChar

StartChar: uni066E
Encoding: 1646 1646 75
Width: 1970
VWidth: 2438
GlyphClass: 2
Flags: W
AnchorPoint: "Anchor-10" 875.918 1198.13 basechar 0
AnchorPoint: "Anchor-7" 875.918 -153.254 basechar 0
LayerCount: 2
Fore
SplineSet
1605.98046875 573.62890625 m 0,0,1
 1605.99902066 634.828574117 1605.99902066 634.828574117 1582.19042969 762.01171875 c 2,2,-1
 1574.09082031 805.279296875 l 1,3,-1
 1820.44824219 857.04296875 l 1,4,-1
 1832.77832031 818.282226562 l 2,5,6
 1900.69273361 604.788118925 1900.69273361 604.788118925 1850.59179688 396.7734375 c 0,7,8
 1756.58398438 0 1756.58398438 0 1041.36230469 -0.0009765625 c 0,9,10
 664.295898438 0 664.295898438 0 481.156738281 55.8354492188 c 128,-1,11
 298.017578125 111.670898438 298.017578125 111.670898438 198.017578125 247.356445312 c 128,-1,12
 98.017578125 383.041015625 98.017578125 383.041015625 98.0380859375 586.212890625 c 0,13,14
 97.998046875 693.3203125 97.998046875 693.3203125 135.94921875 825.575195312 c 2,15,-1
 147.598632812 866.171875 l 1,16,-1
 400.512695312 810.653320312 l 1,17,-1
 389.760742188 766.008789062 l 2,18,19
 341.936245213 567.448201152 341.936245213 567.448201152 391.527700349 454.301377798 c 128,-1,20
 441.119155486 341.154554445 441.119155486 341.154554445 623.735351562 301.720703125 c 0,21,22
 754.837890625 273.006835938 754.837890625 273.006835938 1013.72567002 273.133584764 c 128,-1,23
 1272.61344941 273.260333591 1272.61344941 273.260333591 1347.10839844 291.565429688 c 0,24,25
 1482.13574219 324.330078125 1482.13574219 324.330078125 1544.0625 393.153320312 c 128,-1,26
 1605.98925781 461.9765625 1605.98925781 461.9765625 1605.98046875 573.62890625 c 0,0,1
EndSplineSet
Substitution2: "'init' Initial Forms in Arabic lookup 13 subtable" uni066E.init
Substitution2: "'medi' Medial Forms in Arabic lookup 11 subtable" uni066E.medi
Substitution2: "'fina' Terminal Forms in Arabic lookup 9 subtable" uni066E.fina
EndChar

StartChar: uni066F
Encoding: 1647 1647 76
Width: 1607
VWidth: 2393
GlyphClass: 2
Flags: W
AnchorPoint: "Anchor-10" 402.586 1191.54 basechar 0
AnchorPoint: "Anchor-7" 575.01 -595.719 basechar 0
LayerCount: 2
Fore
SplineSet
1252.28710938 341.103515625 m 1,0,1
 1245.43066406 625.510742188 1245.43066406 625.510742188 1134.6796875 625.865234375 c 0,2,3
 1068.96875 626.209960938 1068.96875 626.209960938 1035.86230469 543.3984375 c 0,4,5
 961.879882812 358.342773438 961.879882812 358.342773438 1114.58300781 337.80859375 c 0,6,7
 1164.25292969 331.50390625 1164.25292969 331.50390625 1252.28710938 341.103515625 c 1,0,1
1118.08300781 76.66015625 m 0,8,9
 766 77.32421875 766 77.32421875 766 444.758789062 c 0,10,11
 766 535.725585938 766 535.725585938 815.280273438 644.413085938 c 0,12,13
 935.9921875 909.924804688 935.9921875 909.924804688 1133.17089844 909.92578125 c 128,-1,14
 1330.34960938 909.926757812 1330.34960938 909.926757812 1433.5859375 694.875 c 0,15,16
 1511.53515625 531.141601562 1511.53515625 531.141601562 1509.46777344 290.212890625 c 0,17,18
 1511.79394531 264.5234375 1511.79394531 264.5234375 1498.79199219 120.766601562 c 0,19,20
 1469.77539062 -136.165039062 1469.77539062 -136.165039062 1297.40136719 -267.055664062 c 128,-1,21
 1125.02636719 -397.946289062 1125.02636719 -397.946289062 824.293945312 -397.88671875 c 0,22,23
 336.827148438 -397.967773438 336.827148438 -397.967773438 178.799804688 -115.29296875 c 128,-1,24
 20.7724609375 167.3828125 20.7724609375 167.3828125 177.301757812 623.671875 c 2,25,-1
 190.263671875 661.456054688 l 1,26,-1
 443.586914062 607.037109375 l 1,27,-1
 427.127929688 559.081054688 l 2,28,29
 360.017578125 363.54296875 360.017578125 363.54296875 360.333007812 199.481445312 c 0,30,31
 360.979492188 -137.024414062 360.979492188 -137.024414062 807.186523438 -137.268554688 c 0,32,33
 1185.15722656 -137.047851562 1185.15722656 -137.047851562 1237.12792969 79.7109375 c 1,34,35
 1179.19238281 76.890625 1179.19238281 76.890625 1118.08300781 76.66015625 c 0,8,9
EndSplineSet
Substitution2: "'init' Initial Forms in Arabic lookup 13 subtable" uni066F.init
Substitution2: "'medi' Medial Forms in Arabic lookup 11 subtable" uni066F.medi
Substitution2: "'fina' Terminal Forms in Arabic lookup 9 subtable" uni066F.fina
EndChar

StartChar: uni0670
Encoding: 1648 1648 77
Width: -27
VWidth: 2304
GlyphClass: 4
Flags: W
AnchorPoint: "Anchor-10" 569.519 1347.15 mark 0
AnchorPoint: "Anchor-9" 569.519 1347.15 mark 0
AnchorPoint: "Anchor-1" 569.519 2081.6 basemark 0
AnchorPoint: "Anchor-1" 569.519 1347.15 mark 0
LayerCount: 2
Fore
SplineSet
525.1015625 1402.16699219 m 1,0,-1
 525.1015625 2026.58496094 l 1,1,-1
 613.936523438 2026.58496094 l 1,2,-1
 613.936523438 1402.16699219 l 1,3,-1
 525.1015625 1402.16699219 l 1,0,-1
EndSplineSet
EndChar

StartChar: uni0674
Encoding: 1652 1652 78
Width: 672
VWidth: 2393
GlyphClass: 2
Flags: W
LayerCount: 2
Fore
SplineSet
201.332561922 1695.72002972 m 1,0,1
 124.791015625 1754.29570392 124.791015625 1754.29570392 124.791015625 1856.18675858 c 128,-1,2
 124.791015625 1958.07781324 124.791015625 1958.07781324 193.961134264 2018.77456611 c 128,-1,3
 263.131252903 2079.47131897 263.131252903 2079.47131897 354.471478077 2079.78315126 c 128,-1,4
 445.811703251 2080.09498355 445.811703251 2080.09498355 523.954101562 2036.18754515 c 1,5,-1
 523.954101562 1896.21219429 l 1,6,7
 300.768314628 1998.57029214 300.768314628 1998.57029214 264.373457216 1884.17930022 c 4,8,9
 236 1795 236 1795 361.977696637 1749.43280637 c 0,10,11
 388.611554402 1739.40364504 388.611554402 1739.40364504 524.242662547 1769.91282658 c 2,12,-1
 548.631835938 1775.39898479 l 1,13,-1
 548.631835938 1632.03721162 l 1,14,-1
 122.44140625 1536.35481491 l 1,15,-1
 122.44140625 1677.51604955 l 1,16,-1
 201.332561922 1695.72002972 l 1,0,1
EndSplineSet
EndChar

StartChar: uni06A1
Encoding: 1697 1697 82
Width: 1968
VWidth: 2438
GlyphClass: 2
Flags: W
AnchorPoint: "Anchor-10" 604.034 1388.99 basechar 0
AnchorPoint: "Anchor-7" 589.757 -229.998 basechar 0
LayerCount: 2
Fore
SplineSet
1870.13964844 604.944335938 m 0,0,1
 1872 386 1872 386 1776.34375 245.068359375 c 0,2,3
 1681 104 1681 104 1488.40332031 51.4985351562 c 128,-1,4
 1296 -1 1296 -1 945.501464844 -1 c 128,-1,5
 595 -1 595 -1 425.963378906 71.9448242188 c 0,6,7
 99 213 99 213 98.041015625 594.803710938 c 0,8,9
 98.0000801467 703.786624548 98.0000801467 703.786624548 140.661132812 823.399414062 c 2,10,-1
 153.686523438 859.919921875 l 1,11,-1
 405.948242188 810.299804688 l 1,12,-1
 391.705078125 762.793945312 l 2,13,14
 367 680 367 680 365.349609375 617.162109375 c 0,15,16
 360 363 360 363 616.05859375 299.421875 c 0,17,18
 674 285 674 285 824.323730469 277.372558594 c 0,19,20
 975 270 975 270 1025.19921875 270.391601562 c 0,21,22
 1307.30063567 272.862491303 1307.30063567 272.862491303 1395.15031784 284.931245652 c 132,-1,23
 1483 297 1483 297 1526.89160156 337.770507812 c 1,24,25
 1291 331 1291 331 1191.66601562 468.140625 c 0,26,27
 1062 648 1062 648 1179.73414331 909.625416033 c 0,28,29
 1298 1171 1298 1171 1508.52410639 1171.0362172 c 128,-1,30
 1719 1171 1719 1171 1820.33789062 902.827148438 c 0,31,32
 1869 775 1869 775 1870.13964844 604.944335938 c 0,0,1
1616.39355469 600.2578125 m 1,33,34
 1609.47460938 885.2421875 1609.47460938 885.2421875 1498.79589844 885.764648438 c 0,35,36
 1443.61583171 885.922751628 1443.61583171 885.922751628 1405.95976795 810.912029969 c 128,-1,37
 1368.30370419 735.901308311 1368.30370419 735.901308311 1378.06152344 669.231445312 c 0,38,39
 1389.38348045 591.899347659 1389.38348045 591.899347659 1505.546875 591.752929688 c 0,40,41
 1549.70898438 591.696289062 1549.70898438 591.696289062 1616.39355469 600.2578125 c 1,33,34
EndSplineSet
Substitution2: "'init' Initial Forms in Arabic lookup 13 subtable" uni06A1.init
Substitution2: "'medi' Medial Forms in Arabic lookup 11 subtable" uni06A1.medi
Substitution2: "'fina' Terminal Forms in Arabic lookup 9 subtable" uni06A1.fina
EndChar

StartChar: uni06A9
Encoding: 1705 1705 83
Width: 1891
VWidth: 2438
GlyphClass: 2
Flags: W
AnchorPoint: "Anchor-10" 460.659 1363.79 basechar 0
AnchorPoint: "Anchor-7" 573.777 -237.467 basechar 0
LayerCount: 2
Fore
SplineSet
892.024414062 0 m 1,0,1
 644.0703125 3.1962890625 644.0703125 3.1962890625 492.291015625 47.0380859375 c 0,2,3
 296.831054688 103.2734375 296.831054688 103.2734375 196.2265625 243.499023438 c 128,-1,4
 95.6220703125 383.725585938 95.6220703125 383.725585938 95.6923828125 597.685546875 c 0,5,6
 95.5528072696 704.71091002 95.5528072696 704.71091002 134.9921875 822.508789062 c 2,7,-1
 147.623046875 860.236328125 l 1,8,-1
 391.912109375 810.6640625 l 1,9,-1
 382.05078125 765.969726562 l 2,10,11
 327.803203978 520.099979974 327.803203978 520.099979974 420.7578125 407.208007812 c 0,12,13
 483.430664062 331.092773438 483.430664062 331.092773438 621.2109375 297.538085938 c 0,14,15
 703.4453125 277.37890625 703.4453125 277.37890625 892.767578125 272.243164062 c 1,16,-1
 1191.85644531 272.26953125 l 2,17,18
 1374.53163123 272.253567558 1374.53163123 272.253567558 1425.0625 322.634765625 c 0,19,20
 1454.07714844 351.561523438 1454.07714844 351.561523438 1446.14746094 403.157714844 c 128,-1,21
 1438.21777344 454.75390625 1438.21777344 454.75390625 1388.87792969 517.529296875 c 0,22,23
 1281.53843391 654.098584682 1281.53843391 654.098584682 995.887695312 815.254882812 c 0,24,25
 889.086914062 875.458584634 889.086914062 875.458584634 889.086914062 1020.55314954 c 128,-1,26
 889.086914062 1165.64771445 889.086914062 1165.64771445 1034.90820312 1236.50292969 c 2,27,-1
 1856.63867188 1635.79003906 l 1,28,-1
 1856.63867188 1357.51660156 l 1,29,-1
 1172.94042969 1028.36035156 l 1,30,31
 1463.96191406 815.072265625 1463.96191406 815.072265625 1529.49121094 743.498046875 c 0,32,33
 1682.82910156 575.916015625 1682.82910156 575.916015625 1697.26074219 433.329101562 c 128,-1,34
 1711.69238281 290.7421875 1711.69238281 290.7421875 1648.48925781 191.041015625 c 0,35,36
 1527.38183594 0 1527.38183594 0 1237.22460938 0 c 2,37,-1
 892.024414062 0 l 1,0,1
EndSplineSet
Substitution2: "'init' Initial Forms in Arabic lookup 13 subtable" uniFB90
Substitution2: "'medi' Medial Forms in Arabic lookup 11 subtable" uniFB91
Substitution2: "'fina' Terminal Forms in Arabic lookup 9 subtable" uniFB8F
EndChar

StartChar: afii57514
Encoding: 1722 1722 85
Width: 1608
VWidth: 2438
GlyphClass: 2
Flags: W
AnchorPoint: "Anchor-10" 741.929 994.235 basechar 0
AnchorPoint: "Anchor-7" 766.607 -457.659 basechar 0
LayerCount: 2
Fore
SplineSet
1147.97070312 -56.462890625 m 128,-1,1
 1254.59179688 27.0751953125 1254.59179688 27.0751953125 1254.12597656 194.29296875 c 128,-1,2
 1253.66113281 361.51171875 1253.66113281 361.51171875 1185.58007812 630.564453125 c 2,3,-1
 1173.86816406 676.850585938 l 1,4,-1
 1439.96875 727.659179688 l 1,5,-1
 1448.94335938 684.256835938 l 2,6,7
 1514.08691406 369.181640625 1514.08691406 369.181640625 1510.4921875 179.1484375 c 0,8,9
 1505.08398438 -106.692382812 1505.08398438 -106.692382812 1329.203125 -253.377929688 c 128,-1,10
 1153.32128906 -400.063476562 1153.32128906 -400.063476562 811.677734375 -399.484375 c 128,-1,11
 470.033203125 -398.90625 470.033203125 -398.90625 283.993164062 -242.22265625 c 128,-1,12
 97.9541015625 -85.5400390625 97.9541015625 -85.5400390625 97.90234375 219.110351562 c 0,13,14
 98.0048828125 390.516601562 98.0048828125 390.516601562 177.30078125 621.672851562 c 2,15,-1
 190.262695312 659.458007812 l 1,16,-1
 443.373046875 605.083007812 l 1,17,-1
 427.197265625 557.267578125 l 2,18,19
 360.969726562 361.504882812 360.969726562 361.504882812 360.80859375 197.21484375 c 0,20,21
 360.479492188 -140 360.479492188 -140 808 -140 c 0,22,0
 1041.35058594 -140 1041.35058594 -140 1147.97070312 -56.462890625 c 128,-1,1
EndSplineSet
Substitution2: "'init' Initial Forms in Arabic lookup 13 subtable" uni06BA.init
Substitution2: "'medi' Medial Forms in Arabic lookup 11 subtable" uni06BA.medi
Substitution2: "'fina' Terminal Forms in Arabic lookup 9 subtable" uniFB9F
EndChar

StartChar: uni06F4
Encoding: 1780 1780 92
Width: 1270
VWidth: 2438
GlyphClass: 2
Flags: W
LayerCount: 2
Fore
SplineSet
633.125976562 991.219726562 m 4,0,1
 651 962 651 962 710.515625 942.3515625 c 4,2,3
 770 923 770 923 848.45703125 923.004882812 c 132,-1,4
 926.718392267 923.000017507 926.718392267 923.000017507 1108.61523438 949.684570312 c 6,5,-1
 1159.34667969 957.126953125 l 5,6,-1
 1162.98535156 722.217773438 l 5,7,-1
 1125.62597656 715.2734375 l 6,8,9
 978.050690152 687.691576444 978.050690152 687.691576444 858.334960938 686.889648438 c 4,10,11
 683 686 683 686 558.168945312 744.00390625 c 5,12,13
 622 447 622 447 617.18359375 9.3349609375 c 1,14,-1
 358.916992188 9.3349609375 l 1,15,16
 357 515 357 515 276.5390625 847.0703125 c 4,17,18
 220.852783408 1073.59886856 220.852783408 1073.59886856 112.364257812 1336.67480469 c 6,19,-1
 93.875 1381.50976562 l 5,20,-1
 345.369140625 1463.83300781 l 5,21,-1
 359.80859375 1421.95117188 l 6,22,23
 402 1300 402 1300 428.5546875 1221.68457031 c 5,24,25
 556 1525 556 1525 957.81640625 1472.83886719 c 4,26,27
 1018.11391436 1465.11352566 1018.11391436 1465.11352566 1067.4765625 1446.88769531 c 6,28,-1
 1096.890625 1436.02734375 l 5,29,-1
 1096.890625 1205.27441406 l 5,30,-1
 1039.37304688 1221.93066406 l 6,31,32
 967 1243 967 1243 877.348632812 1243.28808594 c 4,33,34
 732 1243 732 1243 675.208007812 1181.34667969 c 4,35,36
 581 1078 581 1078 633.125976562 991.219726562 c 4,0,1
EndSplineSet
EndChar

StartChar: uni06F5
Encoding: 1781 1781 93
Width: 1418
VWidth: 2438
GlyphClass: 2
Flags: W
LayerCount: 2
Fore
SplineSet
492.6015625 279.551757812 m 0,0,1
 575.56419832 279.997657694 575.56419832 279.997657694 610.875 452.330078125 c 6,2,-1
 618.250976562 488.328125 l 5,3,-1
 809.697265625 488.166992188 l 5,4,-1
 815.755859375 450.310546875 l 6,5,6
 843 277 843 277 951.9765625 275.5625 c 0,7,8
 1011 275 1011 275 1033.01171875 296.79296875 c 0,9,10
 1055 318 1055 318 1055.16210938 382.306640625 c 4,11,12
 1055 655 1055 655 683.063476562 1000.96972656 c 5,13,14
 353 610 353 610 367.310546875 371.93359375 c 4,15,16
 370 330 370 330 397.827504451 304.662302558 c 0,17,18
 425 280 425 280 492.6015625 279.551757812 c 0,0,1
711.073242188 129.8671875 m 1,19,20
 621 2 621 2 442.387298055 9.42606509808 c 0,21,22
 264 17 264 17 176.9296875 120.279296875 c 0,23,24
 87 227 87 227 97.275390625 377.41796875 c 4,25,26
 105 501 105 501 161.791015625 650.295898438 c 4,27,28
 242 860 242 860 496.250976562 1179.87890625 c 5,29,-1
 450.380859375 1222.81640625 l 5,30,-1
 621.213867188 1431.57128906 l 5,31,-1
 656.37109375 1396.32226562 l 6,32,33
 694 1359 694 1359 763.026367188 1294.18261719 c 4,34,35
 1320 773 1320 773 1320.20996094 365.399414062 c 4,36,37
 1320 109 1320 109 1108.92578125 34.384765625 c 0,38,39
 1040 10 1040 10 951.180664062 9.6630859375 c 0,40,41
 790 9 790 9 711.073242188 129.8671875 c 1,19,20
EndSplineSet
EndChar

StartChar: uni06F6
Encoding: 1782 1782 94
Width: 1101
VWidth: 2438
GlyphClass: 2
Flags: W
LayerCount: 2
Fore
SplineSet
110.077148438 68.01171875 m 2,0,1
 235.225271356 460.287005179 235.225271356 460.287005179 379.095703125 643.583984375 c 5,2,3
 167 678 167 678 91.41796875 889.4609375 c 4,4,5
 74 938 74 938 74 995.5 c 132,-1,6
 74 1053 74 1053 82.5 1099 c 132,-1,7
 91 1145 91 1145 123.637695312 1209.56054688 c 4,8,9
 245 1452 245 1452 585.880859375 1449.43457031 c 4,10,11
 636.645722514 1449.00301176 636.645722514 1449.00301176 719.33203125 1435.40820312 c 6,12,-1
 763.338867188 1428.17285156 l 5,13,-1
 722.646484375 1187.03613281 l 5,14,15
 659 1203 659 1203 585.643554688 1204.09667969 c 4,16,17
 406 1206 406 1206 340.20703125 1073.19140625 c 4,18,19
 322 1036 322 1036 322 992.000976562 c 132,-1,20
 322 948 322 948 341.8515625 921.575195312 c 4,21,22
 385 865 385 865 542.8515625 855.852539062 c 5,23,24
 599.581623593 873.396577473 599.581623593 873.396577473 945.579101562 1001.58691406 c 6,25,-1
 1003.62011719 1023.09082031 l 5,26,-1
 1014.734375 753.9765625 l 5,27,-1
 977.96875 745.817382812 l 6,28,29
 711 687 711 687 527.380859375 402.712890625 c 4,30,31
 455.981683428 290.398133068 455.981683428 290.398133068 381.7734375 41.4794921875 c 2,32,-1
 372.190429688 9.3349609375 l 1,33,-1
 91.357421875 9.3349609375 l 1,34,-1
 110.077148438 68.01171875 l 2,0,1
EndSplineSet
EndChar

StartChar: uniFB8F
Encoding: 64399 64399 109
Width: 1896
VWidth: 2438
GlyphClass: 2
Flags: W
AnchorPoint: "Anchor-10" 466.178 1333.21 basechar 0
AnchorPoint: "Anchor-7" 550.742 -187.299 basechar 0
LayerCount: 2
Fore
SplineSet
1876.5703125 1.09765625 m 2,0,1
 1677.92224035 1.09765625 1677.92224035 1.09765625 1581.60058594 122.065429688 c 1,2,3
 1451.51806576 0.5498046875 1451.51806576 0.5498046875 1224.92578125 0.5498046875 c 2,4,-1
 849.030273438 0.5498046875 l 1,5,6
 599 3 599 3 447.311523438 47.0322265625 c 0,7,8
 251 103 251 103 150.444335938 243.505859375 c 128,-1,9
 50 384 50 384 50.6923828125 597.870117188 c 0,10,11
 51.0008457001 705.294521092 51.0008457001 705.294521092 89.9609375 822.42578125 c 2,12,-1
 102.54296875 860.252929688 l 1,13,-1
 349.118164062 810.215820312 l 1,14,-1
 336.526367188 763.868164062 l 2,15,16
 317 692 317 692 315.724609375 611.103515625 c 0,17,18
 314 483 314 483 376.30078125 406.747070312 c 0,19,20
 457 308 457 308 644.286132812 286.53515625 c 0,21,22
 734 276 734 276 880.400390625 272.79296875 c 1,23,-1
 1179.52832031 272.818359375 l 2,24,25
 1364 273 1364 273 1413.77148438 323.702148438 c 0,26,27
 1442 352 1442 352 1433.81396484 402.828613281 c 0,28,29
 1426 453 1426 453 1375.93164062 515.603515625 c 0,30,31
 1268 652 1268 652 983.181640625 816.038085938 c 0,32,33
 878 877 878 877 878.110404516 1021.93346098 c 0,34,35
 878.000162827 1166.78605302 878.000162827 1166.78605302 1022.60839844 1237.05273438 c 2,36,-1
 1844.33789062 1636.33984375 l 1,37,-1
 1844.33789062 1358.06445312 l 1,38,-1
 1160.609375 1028.89648438 l 1,39,40
 1453 815 1453 815 1515.5475481 746.147838546 c 0,41,42
 1640 611 1640 611 1698.76660156 421.395507812 c 0,43,44
 1723 342 1723 342 1764.37402344 307.833007812 c 0,45,46
 1804.73006374 273.231445312 1804.73006374 273.231445312 1868.54394531 273.231445312 c 2,47,-1
 1907.05175781 273.231445312 l 5,48,-1
 1907.05175781 1.09765625 l 5,49,-1
 1876.5703125 1.09765625 l 2,0,1
EndSplineSet
EndChar

StartChar: uniFB9F
Encoding: 64415 64415 117
Width: 1643
VWidth: 2438
GlyphClass: 2
Flags: W
AnchorPoint: "Anchor-10" 671.411 796.724 basechar 0
AnchorPoint: "Anchor-7" 634.05 -608.475 basechar 0
LayerCount: 2
Fore
SplineSet
1636.83691406 0.546875 m 2,0,1
 1561.16397409 0.507151671931 1561.16397409 0.507151671931 1490.09375 30.599609375 c 1,2,3
 1462 -223 1462 -223 1291.72070312 -351.265625 c 0,4,5
 1122 -480 1122 -480 824.293945312 -479.88671875 c 0,6,7
 337 -480 337 -480 178.799804688 -197.293945312 c 128,-1,8
 20.7768181387 85.3992583406 20.7768181387 85.3992583406 177.301757812 541.671875 c 2,9,-1
 190.263671875 579.456054688 l 1,10,-1
 443.586914062 525.037109375 l 1,11,-1
 427.127929688 477.081054688 l 2,12,13
 360 282 360 282 360.107421875 117.452148438 c 0,14,15
 360 -219 360 -219 807.1875 -219.268554688 c 0,16,17
 1151 -219 1151 -219 1228.61328125 -28.7060546875 c 0,18,19
 1295.30728452 135.757746986 1295.30728452 135.757746986 1188.61523438 550.447265625 c 2,20,-1
 1176.93554688 595.84375 l 1,21,-1
 1424.05175781 648.771484375 l 1,22,-1
 1432.37011719 603.1171875 l 2,23,24
 1468 410 1468 410 1482.4453125 366.266601562 c 0,25,26
 1514.10770984 272.681640625 1514.10770984 272.681640625 1641.45898438 272.681640625 c 2,27,-1
 1655.44042969 272.681640625 l 5,28,-1
 1655.44042969 0.556640625 l 5,29,-1
 1636.83691406 0.546875 l 2,0,1
EndSplineSet
EndChar

StartChar: uniFBE8
Encoding: 64488 64488 120
Width: 701
VWidth: 2438
GlyphClass: 2
Flags: W
AnchorPoint: "Anchor-10" 333.214 1190.44 basechar 0
AnchorPoint: "Anchor-7" 305.758 -344.896 basechar 0
LayerCount: 2
Fore
SplineSet
59.884765625 272.243164062 m 2,0,1
 235.283501131 272.243164062 235.283501131 272.243164062 303.62890625 330.864257812 c 0,2,3
 355 376 355 376 350.895507812 492.924804688 c 0,4,5
 347.041200418 608.761766824 347.041200418 608.761766824 288.603515625 715.58203125 c 2,6,-1
 264.244140625 760.109375 l 1,7,-1
 492.094726562 851.2578125 l 1,8,-1
 512.719726562 823.147460938 l 2,9,10
 603 700 603 700 603.651855469 464.942382812 c 0,11,12
 604 230 604 230 468.836914062 115.062011719 c 0,13,14
 334 0 334 0 50.93359375 0 c 2,15,-1
 -13.1650390625 0 l 5,16,-1
 -13.1650390625 272.243164062 l 5,17,-1
 59.884765625 272.243164062 l 2,0,1
EndSplineSet
EndChar

StartChar: uniFBE9
Encoding: 64489 64489 121
Width: 722
VWidth: 2438
GlyphClass: 2
Flags: W
AnchorPoint: "Anchor-10" 309.627 1102.58 basechar 0
AnchorPoint: "Anchor-7" 356.851 -89.0068 basechar 0
LayerCount: 2
Fore
SplineSet
418.194335938 102.84765625 m 1,0,1
 299 0 299 0 98.732421875 0 c 2,2,-1
 -12.2451171875 0 l 1,3,-1
 -12.2451171875 272.243164062 l 1,4,-1
 47.310546875 272.243164062 l 2,5,6
 206 272 206 272 254.678710938 319.423828125 c 0,7,8
 284.810823907 348.815472731 284.810823907 348.815472731 293.403320312 424.561523438 c 2,9,-1
 320.416015625 662.688476562 l 1,10,-1
 517.0859375 662.688476562 l 1,11,-1
 546.436523438 425.086914062 l 2,12,13
 557 344 557 344 596.78515625 307.8828125 c 0,14,15
 636.727479423 272.243164062 636.727479423 272.243164062 718.041015625 272.243164062 c 2,16,-1
 734.07421875 272.243164062 l 5,17,-1
 734.07421875 0 l 5,18,-1
 706.124023438 0 l 2,19,20
 535 0 535 0 418.194335938 102.84765625 c 1,0,1
EndSplineSet
EndChar

StartChar: uniFE73
Encoding: 65139 65139 129
Width: 601
VWidth: 2438
GlyphClass: 2
Flags: W
AnchorPoint: "Anchor-10" 222.139 1443.04 basechar 0
AnchorPoint: "Anchor-7" 222.139 -84.6133 basechar 0
LayerCount: 2
Fore
SplineSet
353.8125 423.037109375 m 2,0,1
 353.8125 395.852539062 353.8125 395.852539062 365.83984375 369.982421875 c 128,-1,2
 377.866210938 344.112304688 377.866210938 344.112304688 404.493164062 317.485351562 c 0,3,4
 449.29296875 272.681640625 449.29296875 272.681640625 555.87109375 272.681640625 c 2,5,-1
 667.568359375 272.681640625 l 1,6,-1
 667.568359375 9.3349609375 l 1,7,-1
 491.239257812 9.3349609375 l 2,8,9
 314.614257812 9.3349609375 314.614257812 9.3349609375 199.6015625 124.34765625 c 0,10,11
 145.130859375 178.817382812 145.130859375 178.817382812 117.796875 250.815429688 c 128,-1,12
 90.4638671875 322.813476562 90.4638671875 322.813476562 90.4638671875 408.935546875 c 2,13,-1
 90.4638671875 483.028320312 l 1,14,-1
 353.8125 483.028320312 l 1,15,-1
 353.8125 423.037109375 l 2,0,1
EndSplineSet
EndChar

StartChar: uniFE8E
Encoding: 65166 65166 155
Width: 611
VWidth: 2438
GlyphClass: 2
Flags: W
AnchorPoint: "Anchor-10" 284.479 1622.66 basechar 0
AnchorPoint: "Anchor-7" 304.246 -225.188 basechar 0
LayerCount: 2
Fore
SplineSet
159.392578125 486.879882812 m 2,0,-1
 159.392578125 1523.24902344 l 1,1,-1
 418.34765625 1523.24902344 l 1,2,-1
 418.34765625 500.993164062 l 2,3,4
 418 341 418 341 506.190429688 292.9140625 c 0,5,6
 543.560546875 272.243164062 543.560546875 272.243164062 603.93359375 272.243164062 c 2,7,-1
 621.915039062 272.243164062 l 5,8,-1
 621.915039062 0 l 5,9,-1
 598.608398438 0 l 2,10,11
 347 0 347 0 225.634765625 200.833984375 c 0,12,13
 159 309 159 309 159.392578125 486.879882812 c 2,0,-1
EndSplineSet
EndChar

StartChar: uniFEA2
Encoding: 65186 65186 175
Width: 1376
VWidth: 2438
GlyphClass: 2
Flags: W
AnchorPoint: "Anchor-10" 611.107 1297.12 basechar 0
AnchorPoint: "Anchor-7" 475.396 -665.504 basechar 0
LayerCount: 2
Fore
SplineSet
1118.97851562 529.994140625 m 1,0,1
 1127.22027887 272.681640625 1127.22027887 272.681640625 1361.35839844 272.681640625 c 6,2,-1
 1386.54492188 272.681640625 l 1,3,-1
 1386.54492188 0.5498046875 l 1,4,-1
 1371.63574219 0.5498046875 l 2,5,6
 1147 1 1147 1 1024.79785156 130.614257812 c 0,7,8
 903 260 903 260 892.885742188 503.775390625 c 1,9,10
 622 458 622 458 468.715820312 307.383789062 c 0,11,12
 348 190 348 190 348.107910156 28.6909179688 c 0,13,14
 348 -133 348 -133 465.559570312 -213.012695312 c 128,-1,15
 583 -293 583 -293 840.290039062 -293.734375 c 0,16,17
 1028.29356356 -294.000415417 1028.29356356 -294.000415417 1176.59765625 -241.723632812 c 2,18,-1
 1221.62792969 -225.850585938 l 1,19,-1
 1288.49511719 -458.64453125 l 1,20,-1
 1251.97070312 -474.263671875 l 2,21,22
 1084 -546 1084 -546 808.016601562 -542.42578125 c 0,23,24
 451 -538 451 -538 273.821289062 -380.418945312 c 0,25,26
 97 -223 97 -223 98.017578125 38.650390625 c 0,27,28
 99 300 99 300 320.888671875 496.58984375 c 0,29,30
 476 634 476 634 705.80078125 686.50390625 c 1,31,32
 687 697 687 697 657.098394772 713.881769372 c 0,33,34
 627 731 627 731 596.762824616 744.799369544 c 0,35,36
 525 777 525 777 451.649954014 729.670022968 c 0,37,38
 379.393806621 684.247559103 379.393806621 684.247559103 317.26171875 602.43359375 c 2,39,-1
 290.76171875 567.5390625 l 1,40,-1
 93.2578125 709.384765625 l 1,41,-1
 123.325195312 746.446289062 l 2,42,43
 209 852 209 852 237.84765625 881.201171875 c 0,44,45
 366 1006 366 1006 535.249023438 1007.14453125 c 0,46,47
 635 1008 635 1008 770.943359375 921.576171875 c 0,48,49
 989.816315749 782.481226936 989.816315749 782.481226936 1230.4140625 761.245117188 c 2,50,-1
 1278.50976562 757 l 1,51,-1
 1266.56054688 522.529296875 l 1,52,-1
 1216.49414062 528.23828125 l 2,53,54
 1174 533 1174 533 1118.97851562 529.994140625 c 1,0,1
EndSplineSet
EndChar

StartChar: uniFEA3
Encoding: 65187 65187 176
Width: 1417
VWidth: 2438
GlyphClass: 2
Flags: W
AnchorPoint: "Anchor-10" 488.918 1247.81 basechar 0
AnchorPoint: "Anchor-7" 620.707 -232.876 basechar 0
LayerCount: 2
Fore
SplineSet
866.203125 467.922851562 m 5,0,1
 776.438476562 501.784179688 776.438476562 501.784179688 680.287109375 549.458984375 c 4,2,3
 546.474609375 615.807617188 546.474609375 615.807617188 487.186523438 623.00390625 c 4,4,5
 388.094726562 634.854492188 388.094726562 634.854492188 260.5625 469.169921875 c 6,6,-1
 233.616210938 434.162109375 l 5,7,-1
 35.7978515625 580.701171875 l 5,8,-1
 62.0322265625 616.776367188 l 6,9,10
 122.71875 700.2265625 122.71875 700.2265625 175.298828125 754.6484375 c 4,11,12
 309.423828125 893.685546875 309.423828125 893.685546875 472.161132812 888.565429688 c 4,13,14
 535.201171875 886.3671875 535.201171875 886.3671875 621.139648438 854.15625 c 132,-1,15
 707.078125 821.9453125 707.078125 821.9453125 824.803710938 758.7421875 c 4,16,17
 1043.37109375 641.401367188 1043.37109375 641.401367188 1294.36816406 596.55859375 c 6,18,-1
 1336.0390625 589.11328125 l 5,19,-1
 1311.8828125 381.201171875 l 5,20,-1
 1269.20507812 383.971679688 l 6,21,22
 1187.05273438 389.302734375 1187.05273438 389.302734375 1021.87988281 279.029296875 c 4,23,24
 838.643554688 156.694335938 838.643554688 156.694335938 701.876953125 98.9951171875 c 4,25,26
 583.939453125 48.994140625 583.939453125 48.994140625 428.940429688 24.4970703125 c 132,-1,27
 273.942382812 0 273.942382812 0 80.6533203125 0 c 6,28,-1
 -10.6220703125 0 l 5,29,-1
 -10.6220703125 272.243164062 l 5,30,-1
 43.69140625 272.243164062 l 6,31,32
 361.874023438 272.240234375 361.874023438 272.240234375 488.561523438 298.865234375 c 4,33,34
 659.643554688 334.876953125 659.643554688 334.876953125 866.203125 467.922851562 c 5,0,1
EndSplineSet
EndChar

StartChar: uniFEA4
Encoding: 65188 65188 177
Width: 1481
VWidth: 2438
GlyphClass: 2
Flags: W
AnchorPoint: "Anchor-10" 486.339 1265.4 basechar 0
AnchorPoint: "Anchor-7" 590.058 -223.616 basechar 0
LayerCount: 2
Fore
SplineSet
1175.30761719 365.400390625 m 1,0,1
 1215.89807336 273.231445312 1215.89807336 273.231445312 1437.05078125 273.231445312 c 2,2,-1
 1493.171875 273.231445312 l 5,3,-1
 1493.171875 0 l 5,4,-1
 1413.54882812 0 l 2,5,6
 1213 0 1213 0 1105.2578125 76.3916015625 c 0,7,8
 1018 138 1018 138 976.109375 249.255859375 c 1,9,10
 809 143 809 143 701.440429688 98.814453125 c 0,11,12
 461 0 461 0 80.6533203125 0 c 2,13,-1
 -10.6220703125 0 l 1,14,-1
 -10.6220703125 272.243164062 l 1,15,-1
 43.69140625 272.243164062 l 2,16,17
 362 272 362 272 488.6015625 298.873046875 c 0,18,19
 661 335 661 335 866.491210938 467.947265625 c 1,20,21
 822 485 822 485 777.251953125 504.569335938 c 0,22,23
 732 524 732 524 683.396484375 548.405273438 c 0,24,25
 547 616 547 616 487.186523438 623.00390625 c 0,26,27
 388.188077134 634.97725305 388.188077134 634.97725305 260.5625 469.169921875 c 2,28,-1
 233.616210938 434.162109375 l 1,29,-1
 35.7978515625 580.701171875 l 1,30,-1
 62.0322265625 616.776367188 l 2,31,32
 123 700 123 700 175.298828125 754.6484375 c 0,33,34
 309 894 309 894 472.161132812 888.565429688 c 0,35,36
 535 886 535 886 621.139648438 854.15625 c 0,37,38
 707 822 707 822 824.803710938 758.7421875 c 0,39,40
 1041.696812 641.703220971 1041.696812 641.703220971 1294.36816406 596.55859375 c 2,41,-1
 1336.0390625 589.11328125 l 1,42,-1
 1311.88769531 381.248046875 l 1,43,-1
 1269.26074219 383.959960938 l 2,44,45
 1229 387 1229 387 1175.30761719 365.400390625 c 1,0,1
EndSplineSet
EndChar

StartChar: uniFEAA
Encoding: 65194 65194 183
Width: 1174
VWidth: 2438
GlyphClass: 2
Flags: W
AnchorPoint: "Anchor-10" 469.434 1350.95 basechar 0
AnchorPoint: "Anchor-7" 429.359 -219.148 basechar 0
LayerCount: 2
Fore
SplineSet
1151.90722656 0.5498046875 m 6,0,1
 1014.421875 0.5498046875 1014.421875 0.5498046875 909.03515625 112.94921875 c 5,2,3
 761 -12 761 -12 406.692382812 0.0205078125 c 4,4,5
 217.553710938 5.982421875 217.553710938 5.982421875 132.69921875 27.0947265625 c 6,6,-1
 98.5634765625 35.587890625 l 5,7,-1
 98.5634765625 312.024414062 l 5,8,-1
 153.208984375 300.033203125 l 6,9,10
 391 248 391 248 639.829101562 279.803710938 c 4,11,12
 721 290 721 290 734.643554688 306.192382812 c 4,13,14
 748 322 748 322 735.047851562 363.180664062 c 4,15,16
 722.209960938 403.342773438 722.209960938 403.342773438 669.75 524.329101562 c 6,17,-1
 490.904296875 936.79296875 l 5,18,-1
 735.150390625 1040.60058594 l 5,19,-1
 977.46484375 484.979492188 l 6,20,21
 1035 353 1035 353 1069.01074219 318.177734375 c 4,22,23
 1116.57617188 270.42578125 1116.57617188 270.42578125 1161.33496094 272.26171875 c 6,24,-1
 1184.54296875 273.213867188 l 5,25,-1
 1184.54296875 0.5498046875 l 5,26,-1
 1151.90722656 0.5498046875 l 6,0,1
EndSplineSet
EndChar

StartChar: uniFEAE
Encoding: 65198 65198 187
Width: 919
VWidth: 2438
GlyphClass: 2
Flags: W
AnchorPoint: "Anchor-10" 522.16 936.2 basechar 0
AnchorPoint: "Anchor-7" 354.048 -675.522 basechar 0
LayerCount: 2
Fore
SplineSet
760.362304688 31.67578125 m 1,0,1
 665.654546277 -425.594421033 665.654546277 -425.594421033 79.13671875 -486.916015625 c 2,2,-1
 37.5810546875 -491.260742188 l 1,3,-1
 -8.2724609375 -236.819335938 l 1,4,-1
 40.7568359375 -232.458007812 l 2,5,6
 288 -210 288 -210 404.536132812 -101.642578125 c 0,7,8
 521 7 521 7 521.999184147 204.329328408 c 128,-1,9
 522.998368294 401.658656816 522.998368294 401.658656816 465.303710938 534.498046875 c 2,10,-1
 446.970703125 576.708984375 l 1,11,-1
 688.583007812 675.262695312 l 1,12,-1
 702.421875 627.091796875 l 2,13,14
 741 495 741 495 761 411.5 c 128,-1,15
 781 328 781 328 815.850928061 300.121582031 c 128,-1,16
 850.701856122 272.243164062 850.701856122 272.243164062 911.859375 272.243164062 c 2,17,-1
 929.204101562 272.243164062 l 1,18,-1
 929.204101562 0 l 1,19,-1
 891.158203125 0 l 2,20,21
 815 0 815 0 760.362304688 31.67578125 c 1,0,1
EndSplineSet
PairPos2: "'kern' Horizontal Kerning lookup 15-1" uniFEE7 dx=-150 dy=0 dh=-150 dv=0 dx=0 dy=0 dh=0 dv=0
PairPos2: "'kern' Horizontal Kerning lookup 15-2" uniFB90 dx=-190 dy=0 dh=-190 dv=0 dx=0 dy=0 dh=0 dv=0
PairPos2: "'kern' Horizontal Kerning lookup 15-2" uniFB8E dx=-190 dy=0 dh=-190 dv=0 dx=0 dy=0 dh=0 dv=0
PairPos2: "'kern' Horizontal Kerning lookup 15-2" uni06A9 dx=-190 dy=0 dh=-190 dv=0 dx=0 dy=0 dh=0 dv=0
PairPos2: "'kern' Horizontal Kerning lookup 15-2" uni064A dx=-50 dy=0 dh=-50 dv=0 dx=0 dy=0 dh=0 dv=0
PairPos2: "'kern' Horizontal Kerning lookup 15-2" afii57414 dx=-50 dy=0 dh=-50 dv=0 dx=0 dy=0 dh=0 dv=0
PairPos2: "'kern' Horizontal Kerning lookup 15-2" uni0649 dx=-50 dy=0 dh=-50 dv=0 dx=0 dy=0 dh=0 dv=0
PairPos2: "'kern' Horizontal Kerning lookup 15-2" uni0648 dx=-50 dy=0 dh=-50 dv=0 dx=0 dy=0 dh=0 dv=0
PairPos2: "'kern' Horizontal Kerning lookup 15-2" afii57412 dx=-50 dy=0 dh=-50 dv=0 dx=0 dy=0 dh=0 dv=0
PairPos2: "'kern' Horizontal Kerning lookup 15-2" uniFEEB dx=-150 dy=0 dh=-150 dv=0 dx=0 dy=0 dh=0 dv=0
PairPos2: "'kern' Horizontal Kerning lookup 15-2" uni0647 dx=-150 dy=0 dh=-150 dv=0 dx=0 dy=0 dh=0 dv=0
PairPos2: "'kern' Horizontal Kerning lookup 15-2" uni0646 dx=-50 dy=0 dh=-50 dv=0 dx=0 dy=0 dh=0 dv=0
PairPos2: "'kern' Horizontal Kerning lookup 15-2" uniFEE3 dx=-150 dy=0 dh=-150 dv=0 dx=0 dy=0 dh=0 dv=0
PairPos2: "'kern' Horizontal Kerning lookup 15-2" uni0645 dx=-150 dy=0 dh=-150 dv=0 dx=0 dy=0 dh=0 dv=0
PairPos2: "'kern' Horizontal Kerning lookup 15-2" uniFEFB dx=-150 dy=0 dh=-150 dv=0 dx=0 dy=0 dh=0 dv=0
PairPos2: "'kern' Horizontal Kerning lookup 15-2" uniFEDF dx=-150 dy=0 dh=-150 dv=0 dx=0 dy=0 dh=0 dv=0
PairPos2: "'kern' Horizontal Kerning lookup 15-2" uni0644 dx=-50 dy=0 dh=-50 dv=0 dx=0 dy=0 dh=0 dv=0
PairPos2: "'kern' Horizontal Kerning lookup 15-2" uniFEDB dx=-190 dy=0 dh=-190 dv=0 dx=0 dy=0 dh=0 dv=0
PairPos2: "'kern' Horizontal Kerning lookup 15-2" uni0643 dx=-150 dy=0 dh=-150 dv=0 dx=0 dy=0 dh=0 dv=0
PairPos2: "'kern' Horizontal Kerning lookup 15-2" uniFED7 dx=-150 dy=0 dh=-150 dv=0 dx=0 dy=0 dh=0 dv=0
PairPos2: "'kern' Horizontal Kerning lookup 15-2" uni0642 dx=-50 dy=0 dh=-50 dv=0 dx=0 dy=0 dh=0 dv=0
PairPos2: "'kern' Horizontal Kerning lookup 15-2" uniFED3 dx=-150 dy=0 dh=-150 dv=0 dx=0 dy=0 dh=0 dv=0
PairPos2: "'kern' Horizontal Kerning lookup 15-2" uni0641 dx=-150 dy=0 dh=-150 dv=0 dx=0 dy=0 dh=0 dv=0
PairPos2: "'kern' Horizontal Kerning lookup 15-2" uniFECF dx=-150 dy=0 dh=-150 dv=0 dx=0 dy=0 dh=0 dv=0
PairPos2: "'kern' Horizontal Kerning lookup 15-2" uniFECB dx=-150 dy=0 dh=-150 dv=0 dx=0 dy=0 dh=0 dv=0
PairPos2: "'kern' Horizontal Kerning lookup 15-2" uniFEC7 dx=-150 dy=0 dh=-150 dv=0 dx=0 dy=0 dh=0 dv=0
PairPos2: "'kern' Horizontal Kerning lookup 15-2" uni0638 dx=-150 dy=0 dh=-150 dv=0 dx=0 dy=0 dh=0 dv=0
PairPos2: "'kern' Horizontal Kerning lookup 15-2" uniFEC3 dx=-150 dy=0 dh=-150 dv=0 dx=0 dy=0 dh=0 dv=0
PairPos2: "'kern' Horizontal Kerning lookup 15-2" uni0637 dx=-150 dy=0 dh=-150 dv=0 dx=0 dy=0 dh=0 dv=0
PairPos2: "'kern' Horizontal Kerning lookup 15-2" uniFEBF dx=-150 dy=0 dh=-150 dv=0 dx=0 dy=0 dh=0 dv=0
PairPos2: "'kern' Horizontal Kerning lookup 15-2" uni0636 dx=-150 dy=0 dh=-150 dv=0 dx=0 dy=0 dh=0 dv=0
PairPos2: "'kern' Horizontal Kerning lookup 15-2" uniFEBB dx=-150 dy=0 dh=-150 dv=0 dx=0 dy=0 dh=0 dv=0
PairPos2: "'kern' Horizontal Kerning lookup 15-2" uni0635 dx=-150 dy=0 dh=-150 dv=0 dx=0 dy=0 dh=0 dv=0
PairPos2: "'kern' Horizontal Kerning lookup 15-2" uniFEB7 dx=-150 dy=0 dh=-150 dv=0 dx=0 dy=0 dh=0 dv=0
PairPos2: "'kern' Horizontal Kerning lookup 15-2" uni0634 dx=-150 dy=0 dh=-150 dv=0 dx=0 dy=0 dh=0 dv=0
PairPos2: "'kern' Horizontal Kerning lookup 15-2" uniFEB3 dx=-150 dy=0 dh=-150 dv=0 dx=0 dy=0 dh=0 dv=0
PairPos2: "'kern' Horizontal Kerning lookup 15-2" uni0633 dx=-150 dy=0 dh=-150 dv=0 dx=0 dy=0 dh=0 dv=0
PairPos2: "'kern' Horizontal Kerning lookup 15-2" uni0632 dx=-50 dy=0 dh=-50 dv=0 dx=0 dy=0 dh=0 dv=0
PairPos2: "'kern' Horizontal Kerning lookup 15-2" uni0631 dx=-50 dy=0 dh=-50 dv=0 dx=0 dy=0 dh=0 dv=0
PairPos2: "'kern' Horizontal Kerning lookup 15-2" uni0630 dx=-150 dy=0 dh=-150 dv=0 dx=0 dy=0 dh=0 dv=0
PairPos2: "'kern' Horizontal Kerning lookup 15-2" uni062F dx=-150 dy=0 dh=-150 dv=0 dx=0 dy=0 dh=0 dv=0
PairPos2: "'kern' Horizontal Kerning lookup 15-2" uniFEA7 dx=-150 dy=0 dh=-150 dv=0 dx=0 dy=0 dh=0 dv=0
PairPos2: "'kern' Horizontal Kerning lookup 15-2" uniFEA3 dx=-150 dy=0 dh=-150 dv=0 dx=0 dy=0 dh=0 dv=0
PairPos2: "'kern' Horizontal Kerning lookup 15-2" uniFE9F dx=-150 dy=0 dh=-150 dv=0 dx=0 dy=0 dh=0 dv=0
PairPos2: "'kern' Horizontal Kerning lookup 15-2" uniFE9B dx=-150 dy=0 dh=-150 dv=0 dx=0 dy=0 dh=0 dv=0
PairPos2: "'kern' Horizontal Kerning lookup 15-2" uni062B dx=-150 dy=0 dh=-150 dv=0 dx=0 dy=0 dh=0 dv=0
PairPos2: "'kern' Horizontal Kerning lookup 15-2" uniFE97 dx=-150 dy=0 dh=-150 dv=0 dx=0 dy=0 dh=0 dv=0
PairPos2: "'kern' Horizontal Kerning lookup 15-2" uni062A dx=-150 dy=0 dh=-150 dv=0 dx=0 dy=0 dh=0 dv=0
PairPos2: "'kern' Horizontal Kerning lookup 15-2" uni0629 dx=-150 dy=0 dh=-150 dv=0 dx=0 dy=0 dh=0 dv=0
PairPos2: "'kern' Horizontal Kerning lookup 15-2" uniFE91 dx=-50 dy=0 dh=-50 dv=0 dx=0 dy=0 dh=0 dv=0
PairPos2: "'kern' Horizontal Kerning lookup 15-2" uni0628 dx=-150 dy=0 dh=-150 dv=0 dx=0 dy=0 dh=0 dv=0
PairPos2: "'kern' Horizontal Kerning lookup 15-2" uni0627 dx=-190 dy=0 dh=-190 dv=0 dx=0 dy=0 dh=0 dv=0
PairPos2: "'kern' Horizontal Kerning lookup 15-2" uni0623 dx=-190 dy=0 dh=-190 dv=0 dx=0 dy=0 dh=0 dv=0
PairPos2: "'kern' Horizontal Kerning lookup 15-2" uni0622 dx=-190 dy=0 dh=-190 dv=0 dx=0 dy=0 dh=0 dv=0
PairPos2: "'kern' Horizontal Kerning lookup 15-2" uni0621 dx=-150 dy=0 dh=-150 dv=0 dx=0 dy=0 dh=0 dv=0
PairPos2: "'kern' Horizontal Kerning lookup 15-2" uniFB94 dx=-190 dy=0 dh=-190 dv=0 dx=0 dy=0 dh=0 dv=0
PairPos2: "'kern' Horizontal Kerning lookup 15-2" uniFB92 dx=-190 dy=0 dh=-190 dv=0 dx=0 dy=0 dh=0 dv=0
PairPos2: "'kern' Horizontal Kerning lookup 15-2" afii57509 dx=-190 dy=0 dh=-190 dv=0 dx=0 dy=0 dh=0 dv=0
PairPos2: "'kern' Horizontal Kerning lookup 15-2" afii57508 dx=-50 dy=0 dh=-50 dv=0 dx=0 dy=0 dh=0 dv=0
PairPos2: "'kern' Horizontal Kerning lookup 15-2" afii57506 dx=-150 dy=0 dh=-150 dv=0 dx=0 dy=0 dh=0 dv=0
PairPos2: "'kern' Horizontal Kerning lookup 15-2" afii57440 dx=-150 dy=0 dh=-150 dv=0 dx=0 dy=0 dh=0 dv=0
PairPos2: "'kern' Horizontal Kerning lookup 15-2" uniFE8B dx=-150 dy=0 dh=-150 dv=0 dx=0 dy=0 dh=0 dv=0
EndChar

StartChar: uniFEB2
Encoding: 65202 65202 191
Width: 2680
VWidth: 2438
GlyphClass: 2
Flags: W
AnchorPoint: "Anchor-10" 741.809 1011.43 basechar 0
AnchorPoint: "Anchor-7" 508.981 -664.484 basechar 0
LayerCount: 2
Fore
SplineSet
2641.33398438 0.5498046875 m 2,0,1
 2486.39082338 0.5498046875 2486.39082338 0.5498046875 2395.55957031 105.1796875 c 1,2,3
 2303 -1 2303 -1 2164.51855469 0.0009765625 c 0,4,5
 1988 1 1988 1 1896.93652344 110.934570312 c 1,6,7
 1814 -1 1814 -1 1667.50390625 -0.51953125 c 0,8,9
 1559 -0 1559 -0 1490.07519531 31.109375 c 1,10,11
 1462 -222 1462 -222 1291.65039062 -350.732421875 c 0,12,13
 1121 -480 1121 -480 824.234375 -479.88671875 c 0,14,15
 333.262329753 -477.993298723 333.262329753 -477.993298723 172.600585938 -185.229492188 c 0,16,17
 21.2307595747 89.5810580798 21.2307595747 89.5810580798 177.330078125 541.755859375 c 2,18,-1
 190.33984375 579.44140625 l 1,19,-1
 443.459960938 525.064453125 l 1,20,-1
 427.171875 477.193359375 l 2,21,22
 361 281 361 281 360.470977563 117.15918915 c 0,23,24
 360 -220 360 -220 807.319335938 -219.6796875 c 0,25,26
 1041 -220 1041 -220 1147.38378906 -136.163085938 c 0,27,28
 1254 -53 1254 -53 1254.16113281 121.407714844 c 0,29,30
 1253.99910416 295.965106588 1253.99910416 295.965106588 1188.60644531 550.4609375 c 2,31,-1
 1176.94433594 595.84765625 l 1,32,-1
 1427.05175781 649.415039062 l 1,33,-1
 1435.41210938 603.821289062 l 2,34,35
 1441 573 1441 573 1457.42871094 482.23046875 c 0,36,37
 1481 350 1481 350 1509.90380859 318.520507812 c 0,38,39
 1550 274 1550 274 1627.8672468 273.893048039 c 0,40,41
 1705 274 1705 274 1737.52441406 301.765625 c 0,42,43
 1769.52651197 329.588348039 1769.52651197 329.588348039 1775.30957031 396.299804688 c 2,44,-1
 1798.51171875 663.952148438 l 1,45,-1
 2002.42871094 663.952148438 l 1,46,-1
 2005.68261719 622.470703125 l 2,47,48
 2020 439 2020 439 2031.7711079 381.489592749 c 0,49,50
 2056 265 2056 265 2164.67773438 269.15234375 c 0,51,52
 2252.06243677 272.002036118 2252.06243677 272.002036118 2262.95019531 407.995117188 c 2,53,-1
 2283.41699219 663.634765625 l 1,54,-1
 2483.37695312 663.634765625 l 1,55,-1
 2506.45703125 411.059570312 l 2,56,57
 2519.02892354 272.681640625 2519.02892354 272.681640625 2672.74511719 272.681640625 c 2,58,-1
 2688.50585938 272.681640625 l 5,59,-1
 2688.50585938 0.5498046875 l 5,60,-1
 2641.33398438 0.5498046875 l 2,0,1
EndSplineSet
EndChar

StartChar: uniFEB3
Encoding: 65203 65203 192
Width: 1685
VWidth: 2438
GlyphClass: 2
Flags: W
AnchorPoint: "Anchor-10" 777.466 1090.51 basechar 0
AnchorPoint: "Anchor-7" 790.645 -248.801 basechar 0
LayerCount: 2
Fore
SplineSet
362.967773438 118.606445312 m 1,0,1
 274 0 274 0 87.2412109375 0 c 2,2,-1
 -15.42578125 0 l 1,3,-1
 -15.42578125 272.243164062 l 1,4,-1
 58.875 272.243164062 l 2,5,6
 149 272 149 272 191.868164062 304.293945312 c 4,7,8
 235.215029483 336.158067385 235.215029483 336.158067385 243.181640625 405.724609375 c 6,9,-1
 272.5546875 662.217773438 l 5,10,-1
 463.564453125 662.217773438 l 1,11,-1
 489.271484375 416.294921875 l 2,12,13
 505 265 505 265 671.255371094 265.180175781 c 0,14,15
 790.364558291 264.999446842 790.364558291 264.999446842 805.368164062 395.224609375 c 2,16,-1
 836.221679688 663.020507812 l 1,17,-1
 1031.13476562 663.020507812 l 1,18,-1
 1060.71777344 394.262695312 l 2,19,20
 1075 265 1075 265 1188.75244141 264.740234375 c 0,21,22
 1334 265 1334 265 1333.390625 496.155273438 c 0,23,24
 1333.00177468 599.528215894 1333.00177468 599.528215894 1270.63867188 713.975585938 c 2,25,-1
 1246.28125 758.67578125 l 1,26,-1
 1476.39746094 849.501953125 l 1,27,-1
 1496.90917969 821.415039062 l 2,28,29
 1588 697 1588 697 1588.03515625 459.23828125 c 0,30,31
 1588 222 1588 222 1439.49609375 89.7314453125 c 0,32,33
 1336 -2 1336 -2 1169.99961616 -1.997790965 c 128,-1,34
 1004 -2 1004 -2 925.171875 104.27734375 c 1,35,36
 844 -2 844 -2 655.285644531 -0.98193359375 c 0,37,38
 467 -0 467 -0 362.967773438 118.606445312 c 1,0,1
EndSplineSet
EndChar

StartChar: uniFEB4
Encoding: 65204 65204 193
Width: 1696
VWidth: 2432
GlyphClass: 2
Flags: W
AnchorPoint: "Anchor-10" 697.932 1085.02 basechar 0
AnchorPoint: "Anchor-7" 746.335 -220.246 basechar 0
LayerCount: 2
Fore
SplineSet
364.983398438 120.373046875 m 1,0,1
 277 0 277 0 88.30078125 0 c 2,2,-1
 -10.826171875 0 l 1,3,-1
 -10.826171875 272.240234375 l 1,4,-1
 45.330078125 272.2421875 l 6,5,6
 128 272 128 272 159.970703125 288.064453125 c 4,7,8
 232.742294645 321.880248441 232.742294645 321.880248441 241.001953125 401.9453125 c 6,9,-1
 267.791992188 661.634765625 l 5,10,-1
 457.102539062 661.634765625 l 1,11,-1
 485.96484375 420.307617188 l 2,12,13
 504 268 504 268 644.838378906 267.924316406 c 0,14,15
 769.375830586 268.00022909 769.375830586 268.00022909 786.25 396.512695312 c 2,16,-1
 821.061523438 661.634765625 l 1,17,-1
 1010.64648438 661.634765625 l 1,18,-1
 1042.34667969 398.6484375 l 2,19,20
 1058 266 1058 266 1177.51367188 268.517578125 c 0,21,22
 1262.64259765 269.993802271 1262.64259765 269.993802271 1278.28417969 408.584960938 c 2,23,-1
 1306.92285156 662.3359375 l 1,24,-1
 1500.515625 662.3359375 l 1,25,-1
 1529.49121094 405.099609375 l 2,26,27
 1537 336 1537 336 1576.38378906 304.43359375 c 0,28,29
 1615.70830614 273.231445312 1615.70830614 273.231445312 1700.390625 273.231445312 c 2,30,-1
 1706.61816406 273.231445312 l 1,31,-1
 1706.61816406 0 l 1,32,-1
 1647.20117188 0 l 2,33,34
 1499 0 1499 0 1412.765625 101.592773438 c 1,35,36
 1341 1 1341 1 1171.23242188 1.01123046875 c 0,37,38
 1002 1 1002 1 915.569335938 110.087890625 c 1,39,40
 836 1 836 1 650.010253906 5.02978515625 c 128,-1,41
 464 9 464 9 364.983398438 120.373046875 c 1,0,1
EndSplineSet
EndChar

StartChar: uniFEBA
Encoding: 65210 65210 199
Width: 2715
VWidth: 2438
GlyphClass: 2
Flags: W
AnchorPoint: "Anchor-10" 564.816 972.991 basechar 0
AnchorPoint: "Anchor-7" 457.364 -729.28 basechar 0
LayerCount: 2
Fore
SplineSet
1489.31542969 383.041015625 m 1,0,1
 1840 885 1840 885 2147.77832031 885.103515625 c 0,2,3
 2345 885 2345 885 2447.84356995 758.078262319 c 0,4,5
 2548 634 2548 634 2528.13183594 375.133789062 c 0,6,7
 2526 347 2526 347 2521.47949219 326.60546875 c 1,8,9
 2579.85661869 272.133789062 2579.85661869 272.133789062 2705.53417969 272.133789062 c 2,10,-1
 2725.75585938 272.133789062 l 1,11,-1
 2725.75585938 0 l 1,12,-1
 2677.87304688 0 l 2,13,14
 2485 0 2485 0 2379.47558594 103.6796875 c 1,15,16
 2210.08193335 -3.94794201322 2210.08193335 -3.94794201322 1778.38476562 -0.7353515625 c 2,17,-1
 1679.43945312 0.0009765625 l 2,18,19
 1554 1 1554 1 1486.70117188 51.0439453125 c 1,20,21
 1448 -481 1448 -481 799.310546875 -479.930664062 c 0,22,23
 470 -479 470 -479 284.015625 -322.72265625 c 0,24,25
 98 -166 98 -166 97.90234375 139.110351562 c 0,26,27
 97.9997176671 310.503051807 97.9997176671 310.503051807 177.30078125 541.672851562 c 2,28,-1
 190.262695312 579.458007812 l 1,29,-1
 443.373046875 525.083007812 l 1,30,-1
 427.197265625 477.267578125 l 2,31,32
 361 282 361 282 360.809082031 117.221679688 c 0,33,34
 360 -220 360 -220 808.26953125 -219.680664062 c 0,35,36
 1042 -220 1042 -220 1148.52050781 -136.379882812 c 0,37,38
 1255 -53 1255 -53 1254.0390625 124.591308594 c 128,-1,39
 1252.99850247 302.255686443 1252.99850247 302.255686443 1188.64160156 550.362304688 c 2,40,-1
 1176.84863281 595.826171875 l 1,41,-1
 1425.91894531 649.171875 l 1,42,-1
 1434.3671875 600.943359375 l 6,43,44
 1466 419 1466 419 1489.31542969 383.041015625 c 1,0,1
1714.84082031 283.618164062 m 1,45,-1
 1834.34960938 283.618164062 l 2,46,47
 2077.48607677 283.736742152 2077.48607677 283.736742152 2133.3104212 290.406457014 c 128,-1,48
 2189.13476562 297.076171875 2189.13476562 297.076171875 2214.7578125 311.047851562 c 0,49,50
 2273.54619798 343.102836608 2273.54619798 343.102836608 2273.64648438 469.282226562 c 0,51,52
 2273.71386719 554.641601562 2273.71386719 554.641601562 2243.91015625 588.794921875 c 128,-1,53
 2214.10546875 622.948242188 2214.10546875 622.948242188 2143.30224609 622.951171875 c 128,-1,54
 2072.49902344 622.954101562 2072.49902344 622.954101562 1962.01757812 538.571289062 c 128,-1,55
 1851.53613281 454.188476562 1851.53613281 454.188476562 1714.84082031 283.618164062 c 1,45,-1
EndSplineSet
EndChar

StartChar: uniFEBB
Encoding: 65211 65211 200
Width: 1607
VWidth: 2438
GlyphClass: 2
Flags: W
AnchorPoint: "Anchor-10" 590.482 1177.67 basechar 0
AnchorPoint: "Anchor-7" 568.643 -200.479 basechar 0
LayerCount: 2
Fore
SplineSet
692.315429688 284.35546875 m 1,0,-1
 811.83984375 284.35546875 l 2,1,2
 1109.36706297 284.784973957 1109.36706297 284.784973957 1143.37103148 294.371490885 c 0,3,4
 1210.68369428 313.348510612 1210.68369428 313.348510612 1233.5605847 355.471215209 c 0,5,6
 1249.69873634 385.186031442 1249.69873634 385.186031442 1249.60522755 467.707273533 c 128,-1,7
 1249.51171875 550.228515625 1249.51171875 550.228515625 1219.01367188 587.053710938 c 128,-1,8
 1188.51660156 623.87890625 1188.51660156 623.87890625 1118.64404297 623.876464844 c 128,-1,9
 1048.77148438 623.874023438 1048.77148438 623.874023438 938.962890625 539.541992188 c 128,-1,10
 829.153320312 455.2109375 829.153320312 455.2109375 692.315429688 284.35546875 c 1,0,-1
474.494140625 389.162109375 m 1,11,12
 821 886 821 886 1125.67285156 885.83984375 c 0,13,14
 1321 886 1321 886 1416.94615952 767.886619368 c 0,15,16
 1513 650 1513 650 1508.90039062 439.00390625 c 0,17,18
 1503 186 1503 186 1328.9566402 91.2116975643 c 0,19,20
 1154 -3 1154 -3 780.17578125 -0.0908203125 c 0,21,22
 769 0 769 0 756.052734375 0 c 2,23,-1
 656.947265625 0.7373046875 l 2,24,25
 461 2 461 2 346.2421875 142.940429688 c 1,26,27
 218 0 218 0 33.4609375 0 c 2,28,-1
 -13.6220703125 0 l 5,29,-1
 -13.6220703125 272.243164062 l 5,30,-1
 -4.7890625 272.243164062 l 2,31,32
 89 272 89 272 138.303710938 319.155273438 c 0,33,34
 187.848707477 365.85738861 187.848707477 365.85738861 202.685546875 472.504882812 c 2,35,-1
 229.2265625 663.282226562 l 1,36,-1
 430.95703125 663.282226562 l 1,37,-1
 455.749023438 458.793945312 l 2,38,39
 461 416 461 416 474.494140625 389.162109375 c 1,11,12
EndSplineSet
EndChar

StartChar: uniFEBC
Encoding: 65212 65212 201
Width: 1691
VWidth: 2438
GlyphClass: 2
Flags: W
AnchorPoint: "Anchor-10" 684.328 1208.16 basechar 0
AnchorPoint: "Anchor-7" 658.919 -235.622 basechar 0
LayerCount: 2
Fore
SplineSet
692.315429688 284.35546875 m 1,0,-1
 811.83984375 284.35546875 l 2,1,2
 1109.36706297 284.784973957 1109.36706297 284.784973957 1143.37103148 294.371490885 c 0,3,4
 1210.68369428 313.348510612 1210.68369428 313.348510612 1233.5605847 355.471215209 c 0,5,6
 1249.69873634 385.186031442 1249.69873634 385.186031442 1249.60522755 467.707273533 c 128,-1,7
 1249.51171875 550.228515625 1249.51171875 550.228515625 1219.01367188 587.053710938 c 128,-1,8
 1188.51660156 623.87890625 1188.51660156 623.87890625 1118.64404297 623.876464844 c 128,-1,9
 1048.77148438 623.874023438 1048.77148438 623.874023438 938.962890625 539.541992188 c 128,-1,10
 829.153320312 455.2109375 829.153320312 455.2109375 692.315429688 284.35546875 c 1,0,-1
475.254882812 389.015625 m 1,11,12
 822 886 822 886 1121.51269531 885.83984375 c 0,13,14
 1387 886 1387 886 1472.51171875 676.087890625 c 0,15,16
 1513 578 1513 578 1508.89355469 438.69921875 c 0,17,18
 1507 379 1507 379 1496.43261719 326.797851562 c 1,19,20
 1566.41167868 272.681640625 1566.41167868 272.681640625 1680.29296875 272.681640625 c 2,21,-1
 1701.51464844 272.681640625 l 5,22,-1
 1701.51464844 0.5498046875 l 5,23,-1
 1656.74023438 0.5498046875 l 2,24,25
 1455 1 1455 1 1352.90917969 105.576171875 c 1,26,27
 1183 -4 1183 -4 780.182617188 -0.08984375 c 0,28,29
 769 0 769 0 756.052734375 0 c 2,30,-1
 656.947265625 0.7373046875 l 2,31,32
 461 2 461 2 346.2421875 142.940429688 c 1,33,34
 218 0 218 0 33.4609375 0 c 2,35,-1
 -13.6220703125 0 l 1,36,-1
 -13.6220703125 272.243164062 l 1,37,-1
 -4.7890625 272.243164062 l 2,38,39
 89 272 89 272 138.303710938 319.155273438 c 0,40,41
 187.848707477 365.85738861 187.848707477 365.85738861 202.685546875 472.504882812 c 2,42,-1
 229.2265625 663.282226562 l 1,43,-1
 430.8125 663.282226562 l 1,44,-1
 456.647460938 456.87109375 l 2,45,46
 462 415 462 415 475.254882812 389.015625 c 1,11,12
EndSplineSet
EndChar

StartChar: uniFEC2
Encoding: 65218 65218 207
Width: 1571
VWidth: 2438
GlyphClass: 2
Flags: W
AnchorPoint: "Anchor-7" 616.701 -240.714 basechar 0
AnchorPoint: "Anchor-10" 425.876 1689.38 basechar 0
LayerCount: 2
Fore
SplineSet
1384.24121094 311.0078125 m 1,0,1
 1425.34140198 272.681640625 1425.34140198 272.681640625 1552.41894531 272.681640625 c 2,2,-1
 1580.98730469 272.681640625 l 1,3,-1
 1580.98730469 0.5498046875 l 1,4,-1
 1487.71777344 0.5498046875 l 2,5,6
 1336 1 1336 1 1232.40234375 97.8896484375 c 1,7,8
 1060 -4 1060 -4 671.360351562 -0.08984375 c 0,9,10
 663 0 663 0 653.94921875 0 c 2,11,-1
 97.7392578125 0 l 1,12,-1
 97.7392578125 272.102539062 l 1,13,-1
 273.529296875 272.248046875 l 1,14,15
 295 307 295 307 318.662109375 341.032226562 c 1,16,-1
 318.662109375 1523.81542969 l 1,17,-1
 577.616210938 1523.81542969 l 1,18,-1
 577.616210938 653.577148438 l 1,19,20
 802.748801899 877.782775492 802.748801899 877.782775492 1013.8046875 885.83984375 c 0,21,22
 1018 886 1018 886 1022.5 886 c 0,23,24
 1213 886 1213 886 1309.47071147 767 c 0,25,26
 1404.9216463 649.329379843 1404.9216463 649.329379843 1400.13867188 438.69140625 c 0,27,28
 1399 368 1399 368 1384.24121094 311.0078125 c 1,0,1
583.5625 284.35546875 m 1,29,-1
 703.05859375 284.35546875 l 2,30,31
 962.545936046 285.106189845 962.545936046 285.106189845 1019.60314528 292.429259521 c 0,32,33
 1140.53469434 307.950350923 1140.53469434 307.950350923 1140.67022917 456.294211895 c 4,34,35
 1140.75488281 548.948242188 1140.75488281 548.948242188 1110.19726562 586.4140625 c 128,-1,36
 1079.640625 623.87890625 1079.640625 623.87890625 1022.26757812 623.86328125 c 0,37,38
 855.43766653 623.817846721 855.43766653 623.817846721 583.5625 284.35546875 c 1,29,-1
EndSplineSet
EndChar

StartChar: uniFEC3
Encoding: 65219 65219 208
Width: 1358
VWidth: 2438
GlyphClass: 2
Flags: W
AnchorPoint: "Anchor-10" 284.745 1695.08 basechar 0
AnchorPoint: "Anchor-7" 488.394 -235.622 basechar 0
LayerCount: 2
Fore
SplineSet
443.73828125 284.35546875 m 1,0,-1
 563.262695312 284.35546875 l 2,1,2
 812.515625 284.715820312 812.515625 284.715820312 874.40234375 292.147460938 c 0,3,4
 989.3828125 305.955078125 989.3828125 305.955078125 999.216796875 413.71484375 c 0,5,6
 1011.31640625 538.483398438 1011.31640625 538.483398438 974.874023438 581.249023438 c 128,-1,7
 938.432617188 624.015625 938.432617188 624.015625 869.373046875 624.01171875 c 128,-1,8
 800.314453125 624.0078125 800.314453125 624.0078125 690.44140625 539.604492188 c 128,-1,9
 580.568359375 455.201171875 580.568359375 455.201171875 443.73828125 284.35546875 c 1,0,-1
437.791992188 653.456054688 m 1,10,11
 672 886 672 886 877.09375 885.83984375 c 1,12,13
 1067 891 1067 891 1165.3046875 770.489257812 c 0,14,15
 1264 650 1264 650 1260.32519531 439.12109375 c 0,16,17
 1256 185 1256 185 1083.5 92.5 c 128,-1,18
 911 0 911 0 514.125976562 0 c 2,19,-1
 -20.1650390625 0 l 5,20,-1
 -20.1650390625 272.102539062 l 5,21,-1
 133.650390625 272.248046875 l 1,22,23
 155 307 155 307 178.838867188 341.095703125 c 1,24,-1
 178.838867188 1523.81542969 l 1,25,-1
 437.791992188 1523.81542969 l 1,26,-1
 437.791992188 653.456054688 l 1,10,11
EndSplineSet
EndChar

StartChar: uniFEC4
Encoding: 65220 65220 209
Width: 1430
VWidth: 2438
GlyphClass: 2
Flags: W
AnchorPoint: "Anchor-10" 302.112 1692.67 basechar 0
AnchorPoint: "Anchor-7" 569.839 -253.193 basechar 0
LayerCount: 2
Fore
SplineSet
444.141601562 284.35546875 m 5,0,-1
 563.637695312 284.35546875 l 6,1,2
 823.124023438 285.106445312 823.124023438 285.106445312 879.966796875 292.34375 c 4,3,4
 989.868164062 306.337890625 989.868164062 306.337890625 997.748046875 395.96484375 c 4,5,6
 1010.23730469 538.032226562 1010.23730469 538.032226562 975.228515625 580.955078125 c 132,-1,7
 940.219726562 623.87890625 940.219726562 623.87890625 870.408203125 623.876953125 c 132,-1,8
 800.59765625 623.874023438 800.59765625 623.874023438 690.7890625 539.541992188 c 132,-1,9
 580.979492188 455.2109375 580.979492188 455.2109375 444.141601562 284.35546875 c 5,0,-1
1091.9609375 98.6357421875 m 5,10,11
 916 0 916 0 514.125976562 0 c 6,12,-1
 -20.181640625 0 l 5,13,-1
 -20.181640625 272.099609375 l 5,14,-1
 133.446289062 272.24609375 l 5,15,16
 155 307 155 307 178.838867188 341.290039062 c 5,17,-1
 178.838867188 1523.81542969 l 5,18,-1
 437.791992188 1523.81542969 l 5,19,-1
 437.791992188 653.618164062 l 5,20,21
 669.499023438 884.504882812 669.499023438 884.504882812 873.98046875 885.83984375 c 4,22,23
 1009 887 1009 887 1095.64550781 831.094726562 c 4,24,25
 1269.66015625 719.939453125 1269.66015625 719.939453125 1260.3125 438.6015625 c 4,26,27
 1258 369 1258 369 1244.3203125 311.051757812 c 5,28,29
 1285.34082031 272.681640625 1285.34082031 272.681640625 1412.59570312 272.681640625 c 6,30,-1
 1440.1640625 272.681640625 l 5,31,-1
 1440.1640625 0.5498046875 l 5,32,-1
 1347.89355469 0.5498046875 l 6,33,34
 1196 1 1196 1 1091.9609375 98.6357421875 c 5,10,11
EndSplineSet
EndChar

StartChar: uniFECA
Encoding: 65226 65226 215
Width: 1264
VWidth: 2393
GlyphClass: 2
Flags: W
AnchorPoint: "Anchor-10" 715.28 1252.35 basechar 0
AnchorPoint: "Anchor-7" 515.435 -706.551 basechar 0
LayerCount: 2
Fore
SplineSet
710.8359375 722.552734375 m 5,0,1
 779.080078125 750.8203125 779.080078125 750.8203125 824.385742188 777.303710938 c 4,2,3
 869.3203125 804.400390625 869.3203125 804.400390625 882.138671875 819.895507812 c 5,4,5
 869.3203125 825.080078125 869.3203125 825.080078125 837.360351562 830.719726562 c 132,-1,6
 805.400390625 836.360351562 805.400390625 836.360351562 767.538085938 836.530273438 c 4,7,8
 686.01953125 837.299804688 686.01953125 837.299804688 649.109375 817.125 c 5,9,10
 661.580078125 782.780273438 661.580078125 782.780273438 710.8359375 722.552734375 c 5,0,1
836.19921875 536.659179688 m 1,11,12
 968.075589318 272.681640625 968.075589318 272.681640625 1236.79882812 272.681640625 c 2,13,-1
 1300.86816406 272.681640625 l 1,14,-1
 1300.86816406 0.5498046875 l 1,15,-1
 1255.57324219 0.5498046875 l 2,16,17
 843.093337556 0.5498046875 843.093337556 0.5498046875 626.6328125 424.158203125 c 1,18,19
 547 381 547 381 480.506835938 316.950195312 c 0,20,21
 347 190 347 190 347 36.5 c 128,-1,22
 347 -117 347 -117 461.5 -206.5 c 128,-1,23
 576 -296 576 -296 779.631557734 -296.000083918 c 128,-1,24
 983.263115467 -296.000167835 983.263115467 -296.000167835 1071.04199219 -264.916015625 c 2,25,-1
 1116.11425781 -248.955078125 l 1,26,-1
 1183.07617188 -482.083984375 l 1,27,-1
 1146.17578125 -497.551757812 l 2,28,29
 1021 -550 1021 -550 804.178710938 -547.564453125 c 0,30,31
 453 -544 453 -544 274.5 -384.5 c 128,-1,32
 96 -225 96 -225 98 40.5 c 128,-1,33
 100 306 100 306 339.712890625 508.142578125 c 0,34,35
 418 574 418 574 489.498046875 614.7265625 c 1,36,37
 384.592237137 733.434407129 384.592237137 733.434407129 379.243164062 839.83984375 c 0,38,39
 376 905 376 905 440 967.5 c 0,40,41
 564.221887635 1088.81043714 564.221887635 1088.81043714 770.610943817 1089.40521857 c 128,-1,42
 977 1090 977 1090 1127.44238281 957.487304688 c 0,43,44
 1180 911 1180 911 1184.5 851 c 128,-1,45
 1189 791 1189 791 1143.2734375 741.116210938 c 0,46,47
 1063.89583585 654.14915173 1063.89583585 654.14915173 836.19921875 536.659179688 c 1,11,12
EndSplineSet
EndChar

StartChar: uniFECB
Encoding: 65227 65227 216
Width: 1133
VWidth: 2438
GlyphClass: 2
Flags: W
AnchorPoint: "Anchor-10" 466.469 1284.59 basechar 0
AnchorPoint: "Anchor-7" 432.792 -246.055 basechar 0
LayerCount: 2
Fore
SplineSet
823.348632812 614.959960938 m 2,0,1
 737.016272557 692.000066514 737.016272557 692.000066514 614.674804688 691.5 c 0,2,3
 573 691 573 691 538.431640625 683.192382812 c 0,4,5
 504 675 504 675 476.350585938 658.995117188 c 0,6,7
 449 643 449 643 426.268554688 618.956054688 c 0,8,9
 405 596 405 596 394.533203125 570.077148438 c 128,-1,10
 384 544 384 544 383.104492188 510.951171875 c 0,11,12
 381 437 381 437 434.924804688 386.583984375 c 128,-1,13
 489 336 489 336 614.034179688 307.14453125 c 1,14,-1
 1035.56542969 396.954101562 l 1,15,-1
 1035.56542969 120.162109375 l 1,16,-1
 997.505859375 114.220703125 l 2,17,18
 950 107 950 107 895.35546875 95.232421875 c 0,19,20
 841 84 841 84 780.890625 68.2158203125 c 0,21,22
 720 52 720 52 671.2421875 40.1240234375 c 0,23,24
 623 28 623 28 587.515625 18.9658203125 c 0,25,26
 511.90433305 -0.0240268445338 511.90433305 -0.0240268445338 382.00390625 -0.017578125 c 2,27,-1
 -11.42578125 0.001953125 l 5,28,-1
 -11.42578125 272.23828125 l 5,29,-1
 201.500976562 272.267578125 l 1,30,31
 186 291 186 291 173.466796875 311.9765625 c 128,-1,32
 161 333 161 333 151.530273438 354.516601562 c 128,-1,33
 142 376 142 376 135.717773438 399.63671875 c 0,34,35
 129 423 129 423 125.973632812 447.17578125 c 0,36,37
 123 471 123 471 122.32421875 496.883789062 c 0,38,39
 118 733 118 733 312.01171875 865.580078125 c 0,40,41
 472.346948452 973.910061398 472.346948452 973.910061398 694.5078125 934.348632812 c 0,42,43
 745 925 745 925 789.727539062 907.5859375 c 0,44,45
 834 890 834 890 872.583984375 863.099609375 c 0,46,47
 911.616480229 835.56511957 911.616480229 835.56511957 941.864257812 801.064453125 c 2,48,-1
 960.853515625 779.405273438 l 1,49,-1
 869.33984375 573.918945312 l 1,50,-1
 823.348632812 614.959960938 l 2,0,1
EndSplineSet
EndChar

StartChar: uniFECC
Encoding: 65228 65228 217
Width: 1023
VWidth: 2438
GlyphClass: 2
Flags: W
AnchorPoint: "Anchor-10" 510.221 1208.02 basechar 0
AnchorPoint: "Anchor-7" 493.747 -246.055 basechar 0
LayerCount: 2
Fore
SplineSet
647.606445312 600.333984375 m 5,0,1
 608.548828125 616.0859375 608.548828125 616.0859375 523.995117188 616.0859375 c 132,-1,2
 439.440429688 616.0859375 439.440429688 616.0859375 400.3828125 600.333984375 c 5,3,4
 435.7421875 561.373046875 435.7421875 561.373046875 523.995117188 496.934570312 c 5,5,6
 612.251953125 561.377929688 612.251953125 561.377929688 647.606445312 600.333984375 c 5,0,1
971.284179688 0.5498046875 m 1,7,8
 695 3 695 3 511.340820312 165.080078125 c 1,9,10
 317 0 317 0 44.8740234375 0 c 2,11,-1
 -10.2451171875 0 l 1,12,-1
 -10.2451171875 272.243164062 l 1,13,-1
 19.041015625 272.243164062 l 2,14,15
 237 272 237 272 349.029296875 368.40625 c 1,16,17
 155.04576172 471.946083011 155.04576172 471.946083011 108.841796875 546.998046875 c 0,18,19
 95 570 95 570 95.25390625 593.635742188 c 0,20,21
 95 721 95 721 279.422851562 806.907226562 c 0,22,23
 416.480557283 870.545638012 416.480557283 870.545638012 606.209960938 850.686523438 c 0,24,25
 691.357221523 840.90362934 691.357221523 840.90362934 772.678610761 802.45181467 c 128,-1,26
 854 764 854 764 906 710 c 128,-1,27
 958 656 958 656 945 594.5 c 128,-1,28
 932 533 932 533 869.071289062 482.032226562 c 128,-1,29
 806 431 806 431 686.458007812 366.543945312 c 1,30,31
 795.516640061 267.439243019 795.516640061 267.439243019 1001.15820312 272.2421875 c 2,32,-1
 1036.78222656 273.07421875 l 1,33,-1
 1036.78222656 0.5498046875 l 1,34,-1
 1004.25390625 0.5244140625 l 1,35,-1
 973.740234375 0.5478515625 l 2,36,37
 974 1 974 1 972.826171875 0.5498046875 c 2,38,-1
 971.284179688 0.5498046875 l 1,7,8
EndSplineSet
EndChar

StartChar: uniFEDA
Encoding: 65242 65242 231
Width: 2056
VWidth: 2438
GlyphClass: 2
Flags: W
AnchorPoint: "Anchor-10" 682.503 1532 basechar 0
AnchorPoint: "Anchor-7" 903.25 -202.125 basechar 0
LayerCount: 2
Fore
SplineSet
801.0546875 875.872070312 m 2,0,1
 864.071289062 867.684570312 864.071289062 867.684570312 922.310546875 867.684570312 c 128,-1,2
 980.549804688 867.684570312 980.549804688 867.684570312 1035.796875 889.192382812 c 128,-1,3
 1091.04296875 910.700195312 1091.04296875 910.700195312 1091.04296875 940.48046875 c 128,-1,4
 1091.04296875 970.122070312 1091.04296875 970.122070312 1016.5078125 981.85546875 c 128,-1,5
 941.971679688 993.587890625 941.971679688 993.587890625 897.586914062 1042.22460938 c 128,-1,6
 853.203125 1090.86035156 853.203125 1090.86035156 854.685546875 1155.43652344 c 0,7,8
 857.452148438 1275.8984375 857.452148438 1275.8984375 955.352539062 1325.46972656 c 128,-1,9
 1053.25292969 1375.04101562 1053.25292969 1375.04101562 1179.453125 1383.54199219 c 2,10,-1
 1227.47753906 1386.77636719 l 1,11,-1
 1227.47753906 1243.21484375 l 1,12,-1
 1185.88671875 1240.0546875 l 2,13,14
 1024.58691406 1227.74804688 1024.58691406 1227.74804688 1001.89355469 1174.29492188 c 24,15,16
 991 1148 991 1148 1014.85644531 1128.04785156 c 0,17,18
 1026.87304688 1117.9375 1026.87304688 1117.9375 1070.16894531 1111.5703125 c 128,-1,19
 1113.46484375 1105.203125 1113.46484375 1105.203125 1146.92578125 1095.08691406 c 128,-1,20
 1180.38769531 1084.97070312 1180.38769531 1084.97070312 1209.02832031 1049.13671875 c 128,-1,21
 1237.66992188 1013.30175781 1237.66992188 1013.30175781 1237.66992188 956.365234375 c 128,-1,22
 1237.66992188 899.428710938 1237.66992188 899.428710938 1204.16210938 847.348632812 c 128,-1,23
 1170.65527344 795.267578125 1170.65527344 795.267578125 1109.0703125 760.440429688 c 0,24,25
 989.517578125 692.83203125 989.517578125 692.83203125 787.958007812 725.96484375 c 2,26,-1
 750.256835938 732.162109375 l 1,27,-1
 750.256835938 882.471679688 l 1,28,-1
 801.0546875 875.872070312 l 2,0,1
1851.28027344 326.27734375 m 1,29,30
 1904.31502733 272.681640625 1904.31502733 272.681640625 2008.04589844 272.681640625 c 2,31,-1
 2074.74316406 272.681640625 l 1,32,-1
 2074.74316406 0.5498046875 l 1,33,-1
 2005.4140625 0.5498046875 l 6,34,35
 1820 1 1820 1 1680.02539062 112.119140625 c 1,36,37
 1521 29 1521 29 1274.04492188 9.90625 c 128,-1,38
 1027 -9 1027 -9 817.174804688 9.060546875 c 0,39,40
 608 27 608 27 503.446289062 56.078125 c 128,-1,41
 399 85 399 85 309.338867188 150.616210938 c 0,42,43
 126 284 126 284 99.0556640625 535.688476562 c 0,44,45
 85.00864785 671.916133339 85.00864785 671.916133339 138.439453125 823.259765625 c 2,46,-1
 151.389648438 859.94140625 l 1,47,-1
 405.438476562 809.969726562 l 1,48,-1
 389.49609375 761.571289062 l 2,49,50
 331 583 331 583 402.159179688 457.196289062 c 0,51,52
 486 308 486 308 762.34375 282.05078125 c 0,53,54
 1043 255 1043 255 1295.11035156 282.4765625 c 0,55,56
 1440 298 1440 298 1520.02148438 348.112304688 c 0,57,58
 1599.72790632 398.826875753 1599.72790632 398.826875753 1606.41894531 477.080078125 c 2,59,-1
 1610.48828125 524.671875 l 1,60,-1
 1610.48828125 1524.27050781 l 1,61,-1
 1873.82421875 1524.27050781 l 1,62,-1
 1873.82421875 490.111328125 l 2,63,64
 1874 390 1874 390 1851.28027344 326.27734375 c 1,29,30
EndSplineSet
EndChar

StartChar: uniFEDB
Encoding: 65243 65243 232
Width: 1026
VWidth: 2438
GlyphClass: 2
Flags: W
AnchorPoint: "Anchor-10" 281.26 1545.73 basechar 0
AnchorPoint: "Anchor-7" 385.043 -209.264 basechar 0
LayerCount: 2
Fore
SplineSet
774.05078125 178.662109375 m 5,0,1
 660.78125 0 660.78125 0 372.633789062 0 c 6,2,-1
 -10.1650390625 0 l 5,3,-1
 -10.1650390625 272.239257812 l 5,4,-1
 327.264648438 272.26953125 l 6,5,6
 511.596609513 272.251421952 511.596609513 272.251421952 561.640625 323.1875 c 4,7,8
 589.798828125 351.84765625 589.798828125 351.84765625 581.638671875 401.756835938 c 4,9,10
 568.861328125 477.881835938 568.861328125 477.881835938 455.76953125 584.6875 c 132,-1,11
 342.677734375 691.493164062 342.677734375 691.493164062 130.733398438 815.579101562 c 4,12,13
 25.7578125 876.942382812 25.7578125 876.942382812 25.7578125 1021.60214569 c 132,-1,14
 25.7578125 1166.26190858 25.7578125 1166.26190858 170.31640625 1236.50292969 c 6,15,-1
 992.045898438 1635.79003906 l 5,16,-1
 992.045898438 1357.51660156 l 5,17,-1
 308.469726562 1028.41992188 l 5,18,19
 600.573242188 815.075195312 600.573242188 815.075195312 665.000976562 743.385742188 c 4,20,21
 936.927004199 447.413376492 936.927004199 447.413376492 774.05078125 178.662109375 c 5,0,1
EndSplineSet
EndChar

StartChar: uniFEDC
Encoding: 65244 65244 233
Width: 1033
VWidth: 2438
GlyphClass: 2
Flags: W
AnchorPoint: "Anchor-10" 290.046 1514.97 basechar 0
AnchorPoint: "Anchor-7" 402.615 -281.748 basechar 0
LayerCount: 2
Fore
SplineSet
729.388671875 121.485351562 m 1,0,1
 600 0 600 0 372.633789062 0 c 2,2,-1
 -10.1650390625 0 l 1,3,-1
 -10.1650390625 272.239257812 l 1,4,-1
 327.26171875 272.26953125 l 1,5,6
 508.863566915 270.818734964 508.863566915 270.818734964 560.7265625 322.782226562 c 0,7,8
 590 352 590 352 581.599609375 401.994140625 c 0,9,10
 555.617360492 564.915850369 555.617360492 564.915850369 130.831054688 815.520507812 c 0,11,12
 26 877 26 877 26.1787506799 1021.77588252 c 128,-1,13
 26.3575013598 1166.55176504 26.3575013598 1166.55176504 170.31640625 1236.50292969 c 2,14,-1
 992.045898438 1635.79003906 l 1,15,-1
 992.045898438 1357.51660156 l 1,16,-1
 308.397460938 1028.38476562 l 1,17,18
 599.337435249 816.291417159 599.337435249 816.291417159 659.903320312 749.3046875 c 0,19,20
 788 609 788 609 846.673828125 420.279296875 c 0,21,22
 871 342 871 342 912.079101562 307.139648438 c 0,23,24
 953.381595952 272.681640625 953.381595952 272.681640625 1016.25097656 272.681640625 c 2,25,-1
 1049.75976562 272.681640625 l 1,26,-1
 1049.75976562 0.5498046875 l 1,27,-1
 1024.296875 0.5498046875 l 2,28,29
 826 1 826 1 729.388671875 121.485351562 c 1,0,1
EndSplineSet
EndChar

StartChar: uniFEDE
Encoding: 65246 65246 235
Width: 1531
VWidth: 2438
GlyphClass: 2
Flags: W
AnchorPoint: "Anchor-10" 532.594 1010.33 basechar 0
AnchorPoint: "Anchor-7" 437.969 -723.57 basechar 0
LayerCount: 2
Fore
SplineSet
1507.12402344 0.5498046875 m 2,0,1
 1396.88404302 0.5498046875 1396.88404302 0.5498046875 1316.62597656 41.4208984375 c 1,2,3
 1294 -204 1294 -204 1159.58203125 -348.885742188 c 0,4,5
 1001 -520 1001 -520 721.263671875 -519.482421875 c 0,6,7
 441 -519 441 -519 269.346679688 -369.129882812 c 0,8,9
 98 -219 98 -219 98.3564453125 66.994140625 c 0,10,11
 99.0013418208 214.306509329 99.0013418208 214.306509329 148.69140625 346.974609375 c 2,12,-1
 162.232421875 383.127929688 l 1,13,-1
 402.575195312 332.98046875 l 1,14,-1
 389.370117188 286.500976562 l 1,15,16
 281 -117 281 -117 509.255859375 -220.74609375 c 0,17,18
 593 -259 593 -259 748.012695312 -258.504882812 c 0,19,20
 1063.32857536 -256.998430199 1063.32857536 -256.998430199 1062.90625 74.974609375 c 2,21,-1
 1062.43359375 446.510742188 l 1,22,-1
 1062.43359375 1523.08789062 l 1,23,-1
 1320.29003906 1523.08789062 l 1,24,-1
 1320.29003906 482.9921875 l 2,25,26
 1320 369 1320 369 1361.16992188 320.8125 c 128,-1,27
 1402.27186694 272.681640625 1402.27186694 272.681640625 1491.59863281 272.681640625 c 2,28,-1
 1534.13378906 272.681640625 l 5,29,-1
 1534.13378906 0.5498046875 l 5,30,-1
 1507.12402344 0.5498046875 l 2,0,1
EndSplineSet
EndChar

StartChar: uniFEDF
Encoding: 65247 65247 236
Width: 599
VWidth: 2438
GlyphClass: 2
Flags: W
AnchorPoint: "Anchor-10" 317.619 1697.34 basechar 0
AnchorPoint: "Anchor-7" 252.823 -227.385 basechar 0
LayerCount: 2
Fore
SplineSet
4.798828125 272.243164062 m 2,0,1
 206.811523438 272.243164062 206.811523438 272.243164062 206.811523438 537.022460938 c 2,2,-1
 206.811523438 1523.30664062 l 1,3,-1
 465.766601562 1523.30664062 l 1,4,-1
 465.766601562 522.921875 l 2,5,6
 466 261 466 261 342.383300781 130.284204864 c 0,7,8
 219 0 219 0 58.4013671875 -0 c 2,9,-1
 -13.6220703125 0 l 5,10,-1
 -13.6220703125 272.243164062 l 5,11,-1
 4.798828125 272.243164062 l 2,0,1
EndSplineSet
EndChar

StartChar: uniFEE0
Encoding: 65248 65248 237
Width: 713
VWidth: 2438
GlyphClass: 2
Flags: W
AnchorPoint: "Anchor-10" 367.605 1693.99 basechar 0
AnchorPoint: "Anchor-7" 267.674 -225.188 basechar 0
LayerCount: 2
Fore
SplineSet
626.83203125 0 m 2,0,1
 489 0 489 0 377.2265625 102.321289062 c 1,2,3
 262 0 262 0 88.62890625 0 c 2,4,-1
 -9.7529296875 0 l 1,5,-1
 -9.7529296875 272.243164062 l 1,6,-1
 23.998046875 272.243164062 l 2,7,8
 143 272 143 272 195.685546875 321.994140625 c 0,9,10
 248.012695312 372.012135079 248.012695312 372.012135079 248.012695312 482.967773438 c 2,11,-1
 248.012695312 1523.171875 l 1,12,-1
 506.967773438 1523.171875 l 1,13,-1
 506.967773438 482.959960938 l 2,14,15
 507 369 507 369 550.391900617 320.621582031 c 128,-1,16
 593.781909141 272.243164062 593.781909141 272.243164062 691.462890625 272.243164062 c 2,17,-1
 725.211914062 272.243164062 l 5,18,-1
 725.211914062 0 l 5,19,-1
 626.83203125 0 l 2,0,1
EndSplineSet
EndChar

StartChar: uniFEE2
Encoding: 65250 65250 239
Width: 1323
VWidth: 2171
GlyphClass: 2
Flags: W
AnchorPoint: "Anchor-10" 503.856 1209.66 basechar 0
AnchorPoint: "Anchor-7" 230.563 -628.646 basechar 0
LayerCount: 2
Fore
SplineSet
717.47265625 482.434570312 m 1,0,-1
 716.915039062 442.834960938 l 2,1,2
 714 221 714 221 817.706054688 208.521484375 c 0,3,4
 872 202 872 202 900.686523438 227.360351562 c 0,5,6
 928 252 928 252 938.001953125 311.7265625 c 0,7,8
 948 373 948 373 942.616210938 414.107421875 c 0,9,10
 936 468 936 468 889.15234375 479.51171875 c 0,11,12
 808 498 808 498 717.47265625 482.434570312 c 1,0,-1
97.6396484375 141.83984375 m 2,13,14
 97.6396484375 450.687965719 97.6396484375 450.687965719 269.172851562 599.221357345 c 0,15,16
 441 748 441 748 786.288085938 739.184570312 c 0,17,18
 951 735 951 735 1039.13671875 690.104492188 c 0,19,20
 1211 603 1211 603 1177.34472656 334.030273438 c 1,21,22
 1223.85181459 271.200195312 1223.85181459 271.200195312 1315.55957031 271.200195312 c 2,23,-1
 1332.3203125 271.200195312 l 1,24,-1
 1332.3203125 0 l 1,25,-1
 1314.51953125 0 l 2,26,27
 1198 0 1198 0 1087.98730469 79.673828125 c 1,28,29
 989 -49 989 -49 802.466796875 -42.6162109375 c 0,30,31
 701 -39 701 -39 620.209960938 15.5166015625 c 0,32,33
 483 108 483 108 478.360351562 430.809570312 c 5,34,35
 356.360351562 380.14963432 356.360351562 380.14963432 356.360351562 126.240234375 c 2,36,-1
 356.360351562 -531.440429688 l 1,37,-1
 97.6396484375 -531.440429688 l 1,38,-1
 97.6396484375 141.83984375 l 2,13,14
EndSplineSet
EndChar

StartChar: uniFEE3
Encoding: 65251 65251 240
Width: 985
VWidth: 2438
GlyphClass: 2
Flags: W
AnchorPoint: "Anchor-10" 411.291 1042.38 basechar 0
AnchorPoint: "Anchor-7" 417.881 -189.849 basechar 0
LayerCount: 2
Fore
SplineSet
266.520507812 83.19140625 m 1,0,1
 183 -2 183 -2 39.3056640625 -2 c 2,2,-1
 -15.42578125 -2 l 1,3,-1
 -15.42578125 270.244140625 l 1,4,-1
 55.8369140625 270.241210938 l 2,5,6
 98 270 98 270 118 326 c 0,7,8
 205 572 205 572 313.5 696.5 c 4,9,10
 418 817 418 817 549.459960938 817.188476562 c 0,11,12
 651 817 651 817 723.469726562 761.8359375 c 0,13,14
 863 655 863 655 886.883789062 366.262695312 c 0,15,16
 894 282 894 282 870.774414062 211.291015625 c 0,17,18
 848 140 848 140 806.46484375 94.59375 c 0,19,20
 723 2 723 2 585.538085938 2.3427734375 c 0,21,22
 387 2 387 2 266.520507812 83.19140625 c 1,0,1
375.580078125 300.587890625 m 1,23,24
 500 243 500 243 553.984375 245.7578125 c 0,25,26
 647 250 647 250 646.639648438 327.662109375 c 0,27,28
 647 384 647 384 633.329101562 453.16796875 c 0,29,30
 619 521 619 521 581.559570312 545.061523438 c 0,31,32
 524 580 524 580 452.271484375 470.620117188 c 0,33,34
 412 409 412 409 375.580078125 300.587890625 c 1,23,24
EndSplineSet
EndChar

StartChar: uniFEE4
Encoding: 65252 65252 241
Width: 1058
VWidth: 2438
GlyphClass: 2
Flags: W
AnchorPoint: "Anchor-10" 496.252 1162.44 basechar 0
AnchorPoint: "Anchor-7" 546.483 -208.715 basechar 0
LayerCount: 2
Fore
SplineSet
375.580078125 302.587890625 m 1,0,1
 500 245 500 245 553.984375 247.7578125 c 0,2,3
 645.317382812 251.549804688 645.317382812 251.549804688 644.639648438 333.662109375 c 0,4,5
 645 386 645 386 630.829101562 455.16796875 c 0,6,7
 616 526 616 526 581.559570312 547.061523438 c 0,8,9
 524 582 524 582 452.271484375 472.620117188 c 0,10,11
 412 411 412 411 375.580078125 302.587890625 c 1,0,1
1073.23730469 0.48828125 m 1,12,-1
 1041.35449219 0.0009765625 l 2,13,14
 907 -2 907 -2 800.662109375 90.5537109375 c 1,15,16
 719 4 719 4 580.541015625 4.3427734375 c 0,17,18
 387 4 387 4 266.548828125 85.109375 c 1,19,20
 184 0 184 0 43.3056640625 0 c 2,21,-1
 -15.42578125 0 l 1,22,-1
 -15.42578125 272.244140625 l 1,23,-1
 55.8359375 272.241210938 l 2,24,25
 98.0864767033 272.239473948 98.0864767033 272.239473948 124 344 c 4,26,27
 202 560 202 560 305.611328125 686.46875 c 0,28,29
 414 819 414 819 549.4609375 819.188476562 c 0,30,31
 756 819 756 819 839.21875 604.1875 c 0,32,33
 866 536 866 536 878.318359375 444.909179688 c 0,34,35
 891 354 891 354 930.180664062 312.983398438 c 0,36,37
 968.654976236 272.364257812 968.654976236 272.364257812 1041.23046875 272.364257812 c 2,38,-1
 1073.23730469 272.364257812 l 1,39,-1
 1073.23730469 0.48828125 l 1,12,-1
EndSplineSet
EndChar

StartChar: uniFEEA
Encoding: 65258 65258 247
Width: 1117
VWidth: 2438
GlyphClass: 2
Flags: W
AnchorPoint: "Anchor-10" 709.009 1219.95 basechar 0
AnchorPoint: "Anchor-7" 426.482 -209.264 basechar 0
LayerCount: 2
Fore
SplineSet
681.8125 413.24609375 m 1,0,-1
 673.326171875 626.81640625 l 1,1,2
 343.897334191 574.965836853 343.897334191 574.965836853 352.398974892 485.675039375 c 0,3,4
 361.775434433 387.196218716 361.775434433 387.196218716 681.8125 413.24609375 c 1,0,-1
1093.09472656 0 m 2,5,6
 829 0 829 0 738.063476562 181.368164062 c 1,7,8
 388 141 388 141 224.579101562 238.75 c 0,9,10
 101 313 101 313 97.20703125 469.07421875 c 0,11,12
 90 787 90 787 667.762695312 863.141601562 c 1,13,-1
 665.744140625 948.624023438 l 1,14,-1
 902.6640625 961.543945312 l 1,15,-1
 915.521484375 478.430664062 l 2,16,17
 918 367 918 367 960.3125 319.689453125 c 0,18,19
 1001.67900527 272.367209911 1001.67900527 272.367209911 1091.57421875 272.265625 c 2,20,-1
 1127.00585938 272.225585938 l 1,21,-1
 1127.00585938 0 l 1,22,-1
 1093.09472656 0 l 2,5,6
EndSplineSet
EndChar

StartChar: uniFEEB
Encoding: 65259 65259 248
Width: 1340
VWidth: 2393
GlyphClass: 2
Flags: WO
AnchorPoint: "Anchor-10" 451.683 1417.48 basechar 0
AnchorPoint: "Anchor-7" 324.843 -213.598 basechar 0
LayerCount: 2
Fore
SplineSet
456.747070312 304.854492188 m 1,0,1
 482 309 482 309 525.5 348 c 128,-1,2
 569 387 569 387 596.4765625 435.95703125 c 0,3,4
 642 518 642 518 618.155273438 588.29296875 c 0,5,6
 599.908235357 641.336328399 599.908235357 641.336328399 522.954117679 643.1681642 c 128,-1,7
 446 645 446 645 397.822265625 578.1171875 c 0,8,9
 321 468 321 468 376.432617188 373.866210938 c 0,10,11
 406 323 406 323 456.747070312 304.854492188 c 1,0,1
835.86328125 567.111328125 m 1,12,13
 852 379 852 379 711.544921875 225.795898438 c 1,14,15
 732 222 732 222 809.1953125 204.37109375 c 0,16,17
 924 178 924 178 970 289 c 0,18,19
 1006 375 1006 375 929 467 c 4,20,21
 892 512 892 512 835.86328125 567.111328125 c 1,12,13
436.66796875 55.025390625 m 1,22,23
 259.075195312 -0 259.075195312 -0 44.01953125 0 c 2,24,-1
 -13.6220703125 0 l 1,25,-1
 -13.6220703125 273.279296875 l 1,26,-1
 154.608398438 272.744140625 l 1,27,28
 93.0092996046 373.164006051 93.0092996046 373.164006051 109.546153709 520.154268651 c 128,-1,29
 126.083007812 667.14453125 126.083007812 667.14453125 228.878417969 765.334960938 c 128,-1,30
 331.673828125 863.525390625 331.673828125 863.525390625 455.046875 871.522460938 c 1,31,-1
 437.755859375 884.163085938 l 1,32,-1
 592.384765625 1085.2265625 l 1,33,-1
 627.3203125 1062.1796875 l 2,34,35
 777.2109375 963.298828125 777.2109375 963.298828125 973.412109375 775.34375 c 128,-1,36
 1169.61328125 587.388671875 1169.61328125 587.388671875 1218.37792969 427.252929688 c 0,37,38
 1242.6484375 347.240234375 1242.6484375 347.240234375 1221.86425781 262.807617188 c 0,39,40
 1170.23925781 51.529296875 1170.23925781 51.529296875 1008.50390625 -8.2451171875 c 0,41,42
 782.939453125 -91.513671875 782.939453125 -91.513671875 436.66796875 55.025390625 c 1,22,23
EndSplineSet
EndChar

StartChar: uniFEEC
Encoding: 65260 65260 249
Width: 1084
VWidth: 2438
GlyphClass: 2
Flags: W
AnchorPoint: "Anchor-7" 401.824 -618.907 basechar 0
AnchorPoint: "Anchor-10" 464.292 1137.37 basechar 0
LayerCount: 2
Fore
SplineSet
395.840820312 395.462890625 m 0,0,1
 395 316 395 316 395.912109375 272.686523438 c 1,2,-1
 423.73046875 273.046875 l 2,3,4
 491 274 491 274 535 333.5 c 0,5,6
 582 398 582 398 582.666015625 537.119140625 c 0,7,8
 583 600 583 600 568.138671875 628.361328125 c 0,9,10
 548 667 548 667 501.893554688 665.96484375 c 4,11,12
 399 663 399 663 395.840820312 395.462890625 c 0,0,1
166.302734375 272.294921875 m 1,13,14
 161 554 161 554 208.586914062 688.442382812 c 0,15,16
 286 906 286 906 505.0078125 909.72265625 c 0,17,18
 650 912 650 912 733.396484375 812.346679688 c 0,19,20
 817 712 817 712 816.643066406 554.027832031 c 0,21,22
 816 246 816 246 636.536132812 89.0419921875 c 0,23,24
 557 19 557 19 407.231445312 3.275390625 c 1,25,26
 411 -105 411 -105 436.962890625 -177.588867188 c 1,27,28
 495 -82 495 -82 621.522460938 40.75 c 0,29,30
 866.004263489 280.004172325 866.004263489 280.004172325 1061.4921875 273.334960938 c 2,31,-1
 1097.2734375 272.114257812 l 1,32,-1
 1097.2734375 1.5771484375 l 1,33,-1
 1076.48730469 0.3955078125 l 2,34,35
 911 -9 911 -9 800.310058594 -115.168945312 c 0,36,37
 684.846549421 -226.147490078 684.846549421 -226.147490078 514.813476562 -533.1953125 c 2,38,-1
 496.432617188 -566.387695312 l 1,39,40
 295 -495 295 -495 218.614257812 -260.416015625 c 0,41,42
 188 -166 188 -166 172.802734375 0 c 1,43,-1
 -12.537109375 0 l 1,44,-1
 -12.537109375 272.231445312 l 1,45,-1
 166.302734375 272.294921875 l 1,13,14
EndSplineSet
EndChar

StartChar: uniFEEE
Encoding: 65262 65262 251
Width: 935
VWidth: 2438
GlyphClass: 2
Flags: W
AnchorPoint: "Anchor-10" 470.484 1206.36 basechar 0
AnchorPoint: "Anchor-7" 491.917 -692.751 basechar 0
LayerCount: 2
Fore
SplineSet
590.682617188 260.459960938 m 5,0,1
 581.392578125 540.935546875 581.392578125 540.935546875 472.69140625 540.935546875 c 4,2,3
 432.350585938 540.935546875 432.350585938 540.935546875 391.826660156 484.822265625 c 132,-1,4
 351.302734375 428.708984375 351.302734375 428.708984375 351.347167969 367.348144531 c 132,-1,5
 351.391601562 305.987304688 351.391601562 305.987304688 381.420385509 283.149414062 c 132,-1,6
 411.449169456 260.311523438 411.449169456 260.311523438 494.36618629 260.311523438 c 132,-1,7
 577.283203125 260.311523438 577.283203125 260.311523438 590.682617188 260.459960938 c 5,0,1
552.352539062 -0.923828125 m 1,8,9
 262 -2 262 -2 168.8671875 128.78515625 c 0,10,11
 103 222 103 222 103.017089844 360.042480469 c 0,12,13
 103 501 103 501 185.5859375 636.58203125 c 0,14,15
 323 863 323 863 530.15234375 817.75 c 0,16,17
 683 784 683 784 774.965820312 601.135742188 c 0,18,19
 832 488 832 488 844.389648438 271.98046875 c 1,20,-1
 945.091796875 272.959960938 l 1,21,-1
 945.091796875 0.5498046875 l 1,22,-1
 832.375976562 0.5498046875 l 1,23,24
 780 -191 780 -191 635.088148002 -318.672737385 c 0,25,26
 489.938100946 -446.054321715 489.938100946 -446.054321715 157.768554688 -485.842773438 c 2,27,-1
 115.716796875 -490.879882812 l 1,28,-1
 69.23828125 -235.225585938 l 1,29,-1
 117.58203125 -230.231445312 l 2,30,31
 439 -197 439 -197 552.352539062 -0.923828125 c 1,8,9
EndSplineSet
EndChar

StartChar: uniFEF0
Encoding: 65264 65264 253
Width: 1573
VWidth: 2438
GlyphClass: 2
Flags: W
AnchorPoint: "Anchor-10" 663.537 647.71 basechar 0
AnchorPoint: "Anchor-7" 438.628 -694.555 basechar 0
LayerCount: 2
Fore
SplineSet
1483.88964844 0.5693359375 m 1,0,1
 1501.22070312 -35.8134765625 1501.22070312 -35.8134765625 1501.48144531 -78.1875 c 0,2,3
 1500.92089844 -279.413085938 1500.92089844 -279.413085938 1234.51171875 -406.185546875 c 128,-1,4
 968.1015625 -532.958007812 968.1015625 -532.958007812 620.241210938 -500.228515625 c 0,5,6
 96.7216796875 -450.971679688 96.7216796875 -450.971679688 96.939453125 54.5078125 c 0,7,8
 97.0107421875 221.331054688 97.0107421875 221.331054688 175.369140625 426.436523438 c 2,9,-1
 189.5390625 463.526367188 l 1,10,-1
 437.081054688 402.935546875 l 1,11,-1
 422.04296875 356.810546875 l 2,12,13
 364.978515625 181.78515625 364.978515625 181.78515625 364.883789062 42.0625 c 0,14,15
 364.686523438 -249.064453125 364.686523438 -249.064453125 757.703125 -249.629882812 c 0,16,17
 1059.50976562 -250.07421875 1059.50976562 -250.07421875 1208.10644531 -119.795898438 c 0,18,19
 1257.92578125 -76.1162109375 1257.92578125 -76.1162109375 1257.91601562 -49.7353515625 c 128,-1,20
 1257.90722656 -23.353515625 1257.90722656 -23.353515625 1224.47851562 0.552734375 c 1,21,-1
 1008.12695312 0.7607421875 l 1,22,23
 907.487304688 12.44921875 907.487304688 12.44921875 881.690429688 171.115234375 c 0,24,25
 873.103515625 223.908203125 873.103515625 223.908203125 905.869140625 254.7421875 c 0,26,27
 918.412109375 266.543945312 918.412109375 266.543945312 940.88671875 272.241210938 c 1,28,-1
 1584.29785156 272.709960938 l 1,29,-1
 1584.29785156 0.537109375 l 1,30,-1
 1483.88964844 0.5693359375 l 1,0,1
EndSplineSet
EndChar

StartChar: uniFEFB
Encoding: 65275 65275 264
Width: 1320
VWidth: 2438
GlyphClass: 3
Flags: W
AnchorPoint: "Anchor-9" 1039.31 1640.25 baselig 0
AnchorPoint: "Anchor-6" 931.413 -141.723 baselig 0
AnchorPoint: "Anchor-6" 231.077 -200.479 baselig 1
AnchorPoint: "Anchor-9" 206.142 1481.94 baselig 1
LayerCount: 2
Fore
SplineSet
428.692382812 260.125 m 1,0,1
 416.0078125 760.692382812 416.0078125 760.692382812 106.061523438 1252.72363281 c 6,2,-1
 77.9951171875 1297.27832031 l 5,3,-1
 308.72265625 1396.3671875 l 1,4,-1
 329.532226562 1365.35449219 l 2,5,6
 640 903 640 903 674.111328125 296.203125 c 1,7,8
 837 337 837 337 889.506835938 462.541992188 c 0,9,10
 915.909179688 525.782226562 915.909179688 525.782226562 917.19140625 617.717773438 c 2,11,-1
 929.819335938 1523.171875 l 1,12,-1
 1187.12109375 1523.171875 l 1,13,-1
 1187.00292969 1012.94433594 l 2,14,15
 1187 566 1187 566 1156.49707031 441.641601562 c 0,16,17
 1096 197 1096 197 875.185546875 80.173828125 c 0,18,19
 698 -14 698 -14 333.486328125 4.1162109375 c 0,20,21
 204.631835938 9.9267578125 204.631835938 9.9267578125 133.416015625 31.3232421875 c 2,22,-1
 100.96484375 41.0732421875 l 1,23,-1
 103.979492188 294.9296875 l 1,24,-1
 155.798828125 286.235351562 l 2,25,26
 329 257 329 257 428.692382812 260.125 c 1,0,1
EndSplineSet
LCarets2: 1 0
Ligature2: "'rlig' Required Ligatures in Arabic lookup 16 subtable" uniFEDF uniFE8E
EndChar

StartChar: uniFEFC
Encoding: 65276 65276 265
Width: 1454
VWidth: 2438
GlyphClass: 3
Flags: W
AnchorPoint: "Anchor-9" 1034.54 1710.61 baselig 0
AnchorPoint: "Anchor-6" 901.762 -166.981 baselig 0
AnchorPoint: "Anchor-6" 203.621 -225.737 baselig 1
AnchorPoint: "Anchor-9" 190.49 1540.8 baselig 1
LayerCount: 2
Fore
SplineSet
329.513671875 1365.37304688 m 2,0,1
 633.026187026 913.578847373 633.026187026 913.578847373 669.166015625 332.360351562 c 1,2,3
 873 414 873 414 905.916992188 629.509765625 c 0,4,5
 930.119987236 792.809564745 930.119987236 792.809564745 930.251953125 1055.265625 c 2,6,-1
 930.487304688 1523.33691406 l 1,7,-1
 1188.32714844 1523.33691406 l 1,8,-1
 1188.32714844 737.950195312 l 2,9,10
 1188 412 1188 412 1295.26855469 316.541992188 c 0,11,12
 1344.35630231 272.681640625 1344.35630231 272.681640625 1407.98046875 272.681640625 c 2,13,-1
 1464.3671875 272.681640625 l 5,14,-1
 1464.3671875 0.5498046875 l 5,15,-1
 1409.39648438 0.5498046875 l 2,16,17
 1185 1 1185 1 1079.296875 182.782226562 c 0,18,19
 1045 242 1045 242 1025.71777344 318.047851562 c 1,20,21
 995 265 995 265 963.234375 229.068359375 c 0,22,23
 756 1 756 1 383.799804688 0.5498046875 c 0,24,25
 203.935234797 -0.000198043664543 203.935234797 -0.000198043664543 146.793945312 10.4091796875 c 2,26,-1
 109.858398438 17.1376953125 l 1,27,-1
 109.858398438 290.252929688 l 1,28,-1
 162.41015625 281.305664062 l 2,29,30
 329 253 329 253 426.629882812 265.341796875 c 1,31,32
 414.987263825 753.534046693 414.987263825 753.534046693 105.84765625 1253.015625 c 2,33,-1
 78.3564453125 1297.43359375 l 1,34,-1
 308.69921875 1396.35644531 l 1,35,-1
 329.513671875 1365.37304688 l 2,0,1
EndSplineSet
LCarets2: 1 0
Ligature2: "'rlig' Required Ligatures in Arabic lookup 16 subtable" uniFEE0 uniFE8E
EndChar

StartChar: arabic_dot
Encoding: 65536 -1 266
Width: 164
VWidth: 2245
GlyphClass: 2
Flags: W
LayerCount: 2
Fore
SplineSet
81.818359375 215.69921875 m 128,-1,1
 115.353225822 215.69921875 115.353225822 215.69921875 146.820629746 184.239032124 c 2,2,-1
 178.670455936 152.390182499 l 2,3,4
 183.687599168 147.373039267 183.687599168 147.373039267 187.880945703 142.21346476 c 128,-1,5
 192.074292237 137.053890254 192.074292237 137.053890254 195.460956564 131.724392378 c 128,-1,6
 198.84762089 126.394894502 198.84762089 126.394894502 201.401155175 120.891710668 c 128,-1,7
 203.95468946 115.388526834 203.95468946 115.388526834 205.65199978 109.748532164 c 0,8,9
 212.481825864 87.0536941828 212.481825864 87.0536941828 205.104846228 64.348114946 c 0,10,11
 197.840324952 41.9886708954 197.840324952 41.9886708954 177.354809433 21.5031553763 c 2,12,-1
 145.505277496 -10.3453999997 l 2,13,14
 115.727507806 -40.1225827506 115.727507806 -40.1225827506 82.7614818268 -40.8721995218 c 128,-1,15
 49.6756958779 -41.6245395233 49.6756958779 -41.6245395233 20.3285675013 -12.5415496862 c 2,16,-1
 -12.6186981237 20.4057159388 l 2,17,18
 -17.8154728572 25.6024906722 -17.8154728572 25.6024906722 -22.177503245 30.9091390819 c 128,-1,19
 -26.5395336328 36.2157874916 -26.5395336328 36.2157874916 -30.0847182086 41.6570972865 c 128,-1,20
 -33.6299027844 47.0984070813 -33.6299027844 47.0984070813 -36.3199836975 52.6603175073 c 128,-1,21
 -39.0100646106 58.2222279334 -39.0100646106 58.2222279334 -40.8470162765 63.8921344684 c 128,-1,22
 -42.6839679424 69.5620410034 -42.6839679424 69.5620410034 -43.6465182363 75.36576794 c 128,-1,23
 -44.6090685302 81.1694948766 -44.6090685302 81.1694948766 -44.6832677496 87.0570454613 c 0,24,25
 -45.1196622282 121.68402116 -45.1196622282 121.68402116 -14.2602558388 153.162697613 c 2,26,-1
 16.8168487514 184.238815312 l 2,27,0
 48.2772521902 215.69921875 48.2772521902 215.69921875 81.818359375 215.69921875 c 128,-1,1
EndSplineSet
EndChar

StartChar: arabic_2dots
Encoding: 65537 -1 267
Width: 438
VWidth: 2245
GlyphClass: 2
Flags: W
LayerCount: 2
Fore
SplineSet
418.800441156 184.259220732 m 2,0,-1
 450.703761803 152.355808305 l 2,1,2
 514.640014139 87.7647603899 514.640014139 87.7647603899 449.771798455 21.9201316127 c 2,3,-1
 417.174467991 -10.6761993624 l 2,4,5
 354.315153399 -72.2038998237 354.315153399 -72.2038998237 292.821621262 -13.0346105708 c 1,6,-1
 259.435924959 20.352067837 l 2,7,8
 191.799824551 86.9676282875 191.799824551 86.9676282875 258.065120188 153.488063307 c 2,9,-1
 288.761096656 184.183064959 l 2,10,11
 353.159779183 249.522078575 353.159779183 249.522078575 418.800441156 184.259220732 c 2,0,-1
146.800441156 184.259220732 m 2,12,-1
 178.703761803 152.355808305 l 2,13,14
 243.125110433 87.2746960395 243.125110433 87.2746960395 177.354809433 21.5031553763 c 2,15,-1
 145.479126721 -10.3715192465 l 2,16,17
 82.2940735788 -73.1831914073 82.2940735788 -73.1831914073 20.6300577596 -12.8430414336 c 2,18,-1
 -12.5640750407 20.3520678371 l 2,19,20
 -79.6960375902 86.4710972067 -79.6960375902 86.4710972067 -14.2740016435 153.148952245 c 2,21,-1
 16.7610966563 184.183064959 l 2,22,23
 81.1597791824 249.522078575 81.1597791824 249.522078575 146.800441156 184.259220732 c 2,12,-1
EndSplineSet
EndChar

StartChar: arabic_3dots
Encoding: 65538 -1 268
Width: 438
VWidth: 2245
GlyphClass: 2
Flags: W
LayerCount: 2
Fore
SplineSet
281.769838293 407.987089201 m 2,0,-1
 313.619811041 376.138093017 l 2,1,2
 378.403142619 311.353512171 378.403142619 311.353512171 312.303268436 245.252395626 c 2,3,-1
 280.453519684 213.402646875 l 2,4,5
 217.043883026 149.994260063 217.043883026 149.994260063 155.278205428 211.207054587 c 2,6,-1
 122.328762278 244.154544644 l 2,7,8
 55.3264034294 311.164311976 55.3264034294 311.164311976 121.013889818 377.235661062 c 2,9,-1
 151.764114376 407.986862186 l 2,10,11
 216.764600626 472.987348436 216.764600626 472.987348436 281.769838293 407.987089201 c 2,0,-1
420.631609398 168.8909449 m 2,12,-1
 453.616248037 135.904329279 l 2,13,14
 517.741162092 71.4597576965 517.741162092 71.4597576965 452.707703999 5.44784681301 c 2,15,-1
 420.440401493 -26.8194556699 l 2,16,17
 356.80606775 -90.4487298296 356.80606775 -90.4487298296 295.264323968 -29.0144155251 c 2,18,-1
 261.897213286 4.35170615617 l 2,19,20
 195.757982584 71.4698509678 195.757982584 71.4698509678 261.001419064 137.014205936 c 2,21,-1
 291.752669071 167.765455938 l 2,22,23
 356.40281198 232.413098841 356.40281198 232.413098841 420.631609398 168.8909449 c 2,12,-1
147.176635123 167.786348329 m 2,24,-1
 179.078919604 135.882016797 l 2,25,26
 243.500190634 70.80114343 243.500190634 70.80114343 177.729809433 5.0295225638 c 2,27,-1
 145.854274037 -26.8450050932 l 2,28,29
 82.294993871 -90.0307965741 82.294993871 -90.0307965741 20.705382464 -29.0150442868 c 2,30,-1
 -12.3731834451 4.05959992156 l 1,31,32
 -77.3939479838 71.5141651587 -77.3939479838 71.5141651587 -13.6247541354 136.948579612 c 2,33,-1
 17.1359848278 167.709318575 l 2,34,35
 81.5357033671 233.049474402 81.5357033671 233.049474402 147.176635123 167.786348329 c 2,24,-1
EndSplineSet
EndChar

StartChar: arabic_3dots_a
Encoding: 65539 -1 269
Width: 438
VWidth: 2245
GlyphClass: 2
Flags: W
LayerCount: 2
Fore
SplineSet
281.769889022 -235.484108786 m 2,0,1
 216.768430905 -300.484318843 216.768430905 -300.484318843 151.764114376 -235.483932499 c 2,2,-1
 121.005860499 -204.725659772 l 2,3,4
 55.2823897414 -138.697987452 55.2823897414 -138.697987452 122.32975365 -71.6506235433 c 2,5,-1
 155.293030376 -38.6883888234 l 2,6,7
 216.716736173 22.2090335312 216.716736173 22.2090335312 280.165563213 -40.6117607153 c 2,8,-1
 312.303268436 -72.7494659387 l 2,9,10
 378.244466083 -138.690663586 378.244466083 -138.690663586 313.61945787 -203.635516498 c 2,11,-1
 281.769889022 -235.484108786 l 2,0,1
420.169947159 3.15130176919 m 2,12,13
 356.358114868 -59.8630601941 356.358114868 -59.8630601941 291.752395528 4.73774728692 c 2,14,-1
 260.994769168 35.4953759239 l 2,15,16
 195.144506388 101.398504195 195.144506388 101.398504195 262.317058583 168.57105639 c 2,17,-1
 295.288194151 201.541118582 l 2,18,19
 357.065953918 262.690893196 357.065953918 262.690893196 420.440963749 199.320846562 c 2,20,-1
 452.289462638 167.472347671 l 2,21,22
 517.707357827 102.055691458 517.707357827 102.055691458 454.050369796 37.0307452328 c 2,23,-1
 420.169947159 3.15130176919 l 2,12,13
147.176415558 4.71733962326 m 2,24,25
 81.529867847 -60.5513772597 81.529867847 -60.5513772597 17.1366529833 4.79294469225 c 2,26,-1
 -13.8414310997 35.7720048011 l 2,27,28
 -79.4914921175 102.338723869 -79.4914921175 102.338723869 -12.1889094369 168.624658686 c 2,29,-1
 20.7212437163 201.534733329 l 2,30,31
 82.2959134482 262.531805233 82.2959134482 262.531805233 145.864653547 199.336609409 c 2,32,-1
 177.730159525 167.472080471 l 2,33,34
 242.991914587 102.209095331 242.991914587 102.209095331 179.327868137 36.8687922026 c 1,35,-1
 147.176415558 4.71733962326 l 2,24,25
EndSplineSet
EndChar

StartChar: uni066E.fina
Encoding: 65540 -1 270
Width: 2013
VWidth: 2438
GlyphClass: 2
Flags: W
AnchorPoint: "Anchor-10" 809.783 1208.02 basechar 0
AnchorPoint: "Anchor-7" 809.783 -153.254 basechar 0
LayerCount: 2
Fore
SplineSet
1975.04589844 0.5498046875 m 2,0,1
 1787.27192028 0.5498046875 1787.27192028 0.5498046875 1687.64941406 165.486328125 c 1,2,3
 1616 87 1616 87 1523.65869141 53.5942382812 c 0,4,5
 1364 -5 1364 -5 946.94921875 2.3232421875 c 1,6,7
 672 2 672 2 520.444335938 45.3828125 c 0,8,9
 312 105 312 105 204.638671875 242.229492188 c 0,10,11
 31.9592864605 463.052064515 31.9592864605 463.052064515 138.137695312 827.908203125 c 2,12,-1
 149.95703125 868.522460938 l 1,13,-1
 398.734375 812.546875 l 1,14,-1
 387.377929688 767.736328125 l 2,15,16
 289 379 289 379 623.987304688 303.859375 c 0,17,18
 747 276 747 276 972.573730469 274.116699219 c 0,19,20
 1491 268 1491 268 1562.4921875 394.588867188 c 4,21,22
 1596.02453492 454.043501711 1596.02453492 454.043501711 1601.7265625 633.717773438 c 2,23,-1
 1603.109375 677.291015625 l 1,24,-1
 1809.06054688 677.291015625 l 1,25,-1
 1811.0703125 634.396484375 l 2,26,27
 1824 365 1824 365 1915.41503906 297.12109375 c 0,28,29
 1948.43006872 272.681640625 1948.43006872 272.681640625 2003.65429688 272.681640625 c 2,30,-1
 2028.56054688 272.681640625 l 1,31,-1
 2028.56054688 0.5498046875 l 1,32,-1
 1975.04589844 0.5498046875 l 2,0,1
EndSplineSet
EndChar

StartChar: uni06A1.fina
Encoding: 65543 -1 273
Width: 2142
VWidth: 2438
GlyphClass: 2
Flags: W
AnchorPoint: "Anchor-10" 701.174 1325.53 basechar 0
AnchorPoint: "Anchor-7" 601.233 -195.536 basechar 0
LayerCount: 2
Fore
SplineSet
1491.3671875 547.997070312 m 128,-1,1
 1491.3671875 494.359375 1491.3671875 494.359375 1530.70410156 455.907226562 c 128,-1,2
 1570.04101562 417.454101562 1570.04101562 417.454101562 1626.32617188 417.454101562 c 128,-1,3
 1682.60839844 417.454101562 1682.60839844 417.454101562 1721.9453125 455.907226562 c 128,-1,4
 1761.28320312 494.360351562 1761.28320312 494.360351562 1761.13222047 547.840784926 c 0,5,6
 1761.00255689 593.76966897 1761.00255689 593.76966897 1731.52050781 630.720703125 c 0,7,8
 1695 679 1695 679 1626.82275391 678.536132812 c 0,9,10
 1570.04003906 678.536132812 1570.04003906 678.536132812 1530.703125 640.083007812 c 128,-1,0
 1491.3671875 601.630859375 1491.3671875 601.630859375 1491.3671875 547.997070312 c 128,-1,1
1358.64453125 287.5546875 m 1,11,12
 1248 400 1248 400 1248.42285156 557.420898438 c 0,13,14
 1248 790 1248 790 1459.91113281 890.750976562 c 0,15,16
 1538 928 1538 928 1627.32666016 928.726074219 c 0,17,18
 1754 930 1754 930 1837.8845289 876.061918593 c 0,19,20
 1925 820 1925 820 1965.94042969 749.861328125 c 0,21,22
 2014 668 2014 668 2014 561.5 c 0,23,24
 2014 399 2014 399 1895.265625 281.34375 c 1,25,26
 2041.36978069 272.681640625 2041.36978069 272.681640625 2094.59277344 272.681640625 c 2,27,-1
 2152.59765625 272.681640625 l 1,28,-1
 2152.59765625 0.5498046875 l 1,29,-1
 2000.51269531 0.5498046875 l 6,30,31
 1808 1 1808 1 1614.61914062 103.38671875 c 1,32,33
 1503 46 1503 46 1361.80175781 23.0454101562 c 0,34,35
 1221 0 1221 0 947.340820312 0 c 0,36,37
 674 0 674 0 490.681152344 49.7875976562 c 0,38,39
 307 100 307 100 202.236134222 238.14751279 c 0,40,41
 97 377 97 377 96.0078125 593.786132812 c 0,42,43
 96.0000176333 703.751240412 96.0000176333 703.751240412 138.442382812 823.333984375 c 2,44,-1
 151.431640625 859.931640625 l 1,45,-1
 399.844726562 811.069335938 l 1,46,-1
 390.71484375 766.619140625 l 2,47,48
 365 641 365 641 364.864257812 608.559570312 c 0,49,50
 367 475 367 475 430.578125 399.907226562 c 0,51,52
 495 325 495 325 637.793945312 296.469726562 c 0,53,54
 786 267 786 267 1196.93164062 276.860351562 c 0,55,56
 1287 279 1287 279 1358.64453125 287.5546875 c 1,11,12
EndSplineSet
EndChar

StartChar: uni06A1.init
Encoding: 65544 -1 274
Width: 902
VWidth: 2438
GlyphClass: 2
Flags: W
AnchorPoint: "Anchor-10" 405.049 1379.34 basechar 0
AnchorPoint: "Anchor-7" 377.594 -143.369 basechar 0
LayerCount: 2
Fore
SplineSet
-11.42578125 272.243164062 m 1,0,-1
 100.717773438 272.243164062 l 2,1,2
 334 272 334 272 394.584093734 294.161775681 c 0,3,4
 456 316 456 316 485.220703125 334.704101562 c 1,5,6
 228 321 228 321 126.005859375 464.350585938 c 0,7,8
 -4 647 -4 647 115.229293274 907.275849299 c 0,9,10
 234 1167 234 1167 443.567797988 1167.06104326 c 128,-1,11
 653 1167 653 1167 754.890625 898.791992188 c 0,12,13
 805 767 805 767 804.943847656 605.946777344 c 0,14,15
 805 283 805 283 636.633918827 141.409853985 c 0,16,17
 468 0 468 0 175.1875 0 c 2,18,-1
 -11.42578125 0 l 1,19,-1
 -11.42578125 272.243164062 l 1,0,-1
550.989257812 596.120117188 m 1,20,21
 544.066871727 881.203054849 544.066871727 881.203054849 433.372070312 881.6171875 c 0,22,23
 378.515625 881.872070312 378.515625 881.872070312 340.582287838 807.370685096 c 128,-1,24
 302.648950676 732.869299879 302.648950676 732.869299879 312.72265625 665.1484375 c 0,25,26
 324.219121994 587.86938588 324.219121994 587.86938588 440.307617188 587.668945312 c 0,27,28
 484.422851562 587.591796875 484.422851562 587.591796875 550.989257812 596.120117188 c 1,20,21
EndSplineSet
EndChar

StartChar: uni06A1.medi
Encoding: 65545 -1 275
Width: 1070
VWidth: 2438
GlyphClass: 2
Flags: W
AnchorPoint: "Anchor-10" 535.245 1149.26 basechar 0
AnchorPoint: "Anchor-7" 535.245 -143.369 basechar 0
LayerCount: 2
Fore
SplineSet
402.234375 550.638671875 m 128,-1,1
 402.234375 497.000976562 402.234375 497.000976562 441.571289062 458.548339844 c 128,-1,2
 480.908203125 420.095703125 480.908203125 420.095703125 537.193359375 420.095703125 c 128,-1,3
 593.475585938 420.095703125 593.475585938 420.095703125 632.812988281 458.548828125 c 128,-1,4
 672.150390625 497.001953125 672.150390625 497.001953125 671.999377203 550.482367555 c 0,5,6
 671.861140294 599.438063837 671.861140294 599.438063837 642.387695312 633.362316651 c 4,7,8
 603 681 603 681 537.690038052 681.177734375 c 0,9,10
 480.907226562 681.177734375 480.907226562 681.177734375 441.570800781 642.725097656 c 128,-1,0
 402.234375 604.272460938 402.234375 604.272460938 402.234375 550.638671875 c 128,-1,1
906.87109375 0 m 2,11,12
 717 -1 717 -1 537.8671875 111.640625 c 1,13,14
 358 0 358 0 203.345703125 0 c 2,15,-1
 -9.3515625 0 l 1,16,-1
 -9.3515625 272.243164062 l 1,17,-1
 52.5810546875 272.243164062 l 2,18,19
 231 272 231 272 271.061523438 284.703125 c 1,20,21
 154 398 154 398 154.047851562 560.046875 c 0,22,23
 154 799 154 799 374.705078125 895.991210938 c 0,24,25
 500 951 500 951 652.676757812 911.912109375 c 0,26,27
 696 901 696 901 730.96484375 881.9140625 c 0,28,29
 920 778 920 778 919.69140625 557.637695312 c 0,30,31
 920 399 920 399 798.04296875 280.81640625 c 1,32,33
 900.478065414 270.95397194 900.478065414 270.95397194 1018.26464844 272.2421875 c 2,34,-1
 1080.41113281 272.921875 l 1,35,-1
 1080.41113281 0.64453125 l 1,36,-1
 906.87109375 0 l 2,11,12
EndSplineSet
EndChar

StartChar: uni066F.fina
Encoding: 65546 -1 276
Width: 1611
VWidth: 2393
GlyphClass: 2
Flags: W
AnchorPoint: "Anchor-10" 468.318 1031.75 basechar 0
AnchorPoint: "Anchor-7" 577.753 -605.531 basechar 0
LayerCount: 2
Fore
SplineSet
1250.94726562 274.376953125 m 5,0,1
 1241.65722656 554.852539062 1241.65722656 554.852539062 1132.95605469 554.852539062 c 4,2,3
 1092.61523438 554.852539062 1092.61523438 554.852539062 1052.09082031 498.739257812 c 132,-1,4
 1011.56738281 442.625976562 1011.56738281 442.625976562 1011.61132812 381.264648438 c 132,-1,5
 1011.65625 319.904296875 1011.65625 319.904296875 1041.68457031 297.06640625 c 132,-1,6
 1071.71386719 274.228515625 1071.71386719 274.228515625 1154.63085938 274.228515625 c 132,-1,7
 1237.54785156 274.228515625 1237.54785156 274.228515625 1250.94726562 274.376953125 c 5,0,1
1489.89160156 0.5498046875 m 5,8,9
 1453 -238 1453 -238 1282.67675781 -358.983398438 c 4,10,11
 1113 -480 1113 -480 824.293945312 -479.88671875 c 4,12,13
 337 -480 337 -480 178.799804688 -197.293945312 c 132,-1,14
 20.7763671875 85.3994140625 20.7763671875 85.3994140625 177.301757812 541.671875 c 6,15,-1
 190.263671875 579.456054688 l 5,16,-1
 443.586914062 525.037109375 l 5,17,-1
 427.127929688 477.081054688 l 6,18,19
 360 281 360 281 360.333007812 117.481445312 c 4,20,21
 361 -219 361 -219 807.186523438 -219.268554688 c 4,22,23
 1188 -219 1188 -219 1237.90039062 1.05078125 c 5,24,-1
 1124.4296875 1.16015625 l 5,25,26
 922 4 922 4 826.522460938 133.456054688 c 4,27,28
 694 315 694 315 813.145507812 575.366210938 c 4,29,30
 932 836 932 836 1123.83886719 835.967773438 c 4,31,32
 1489 836 1489 836 1504.17285156 272.94921875 c 5,33,-1
 1621.99902344 272.556640625 l 5,34,-1
 1621.99902344 0.5498046875 l 5,35,-1
 1489.89160156 0.5498046875 l 5,8,9
EndSplineSet
EndChar

StartChar: arabic_ring
Encoding: 65549 -1 279
Width: 452
VWidth: 2286
GlyphClass: 2
Flags: W
LayerCount: 2
Fore
SplineSet
232.2265625 348.141601562 m 0,0,1
 195 348 195 348 175.522460938 323 c 0,2,3
 161 304 161 304 160.46484375 278.866210938 c 4,4,5
 160 249 160 249 179.893554688 229.9609375 c 0,6,7
 199 211 199 211 230.994140625 210.763671875 c 0,8,9
 261 211 261 211 280.17578125 230.431640625 c 0,10,11
 300 250 300 250 299.84375 279.020019531 c 0,12,13
 300 316 300 316 277.5 333 c 0,14,15
 257 348 257 348 232.2265625 348.141601562 c 0,0,1
509.509765625 279.453125 m 128,-1,17
 509.509765625 162.811523438 509.509765625 162.811523438 428.8125 81.478515625 c 128,-1,18
 347.969726562 0 347.969726562 0 231.154296875 0 c 128,-1,19
 114.372070312 0 114.372070312 0 33.5126953125 81.49609375 c 128,-1,20
 -47.2001953125 162.844726562 -47.2001953125 162.844726562 -47.2001953125 279.453125 c 128,-1,21
 -47.2001953125 396.1640625 -47.2001953125 396.1640625 33.62109375 476.985351562 c 128,-1,22
 114.442382812 557.807617188 114.442382812 557.807617188 231.154296875 557.807617188 c 128,-1,23
 347.695930223 557.807617188 347.695930223 557.807617188 429.23828125 477.536132812 c 0,24,16
 509.509765625 395.989496816 509.509765625 395.989496816 509.509765625 279.453125 c 128,-1,17
EndSplineSet
EndChar

StartChar: arabic_gaf_bar
Encoding: 65550 -1 280
Width: 715
VWidth: 2241
GlyphClass: 2
Flags: W
LayerCount: 2
Fore
SplineSet
707.220703125 1813.80566406 m 1,0,-1
 -2.2001953125 1468.24511719 l 1,1,-1
 -2.2001953125 1591.02539062 l 5,2,-1
 707.220703125 1936.58496094 l 5,3,-1
 707.220703125 1813.80566406 l 1,0,-1
EndSplineSet
EndChar

StartChar: uni066E.init.math
Encoding: 65560 -1 290
Width: 934
VWidth: 2438
GlyphClass: 2
Flags: W
LayerCount: 2
Fore
SplineSet
653.862304688 118.850585938 m 0,0,1
 562.166992188 9.3349609375 562.166992188 9.3349609375 366.676757812 9.3349609375 c 2,2,-1
 -56.42578125 9.3349609375 l 1,3,-1
 -56.42578125 272.681640625 l 1,4,-1
 302.045898438 272.681640625 l 2,5,6
 303.942382812 272.681640625 303.942382812 272.681640625 305.822265625 272.696289062 c 128,-1,7
 307.702148438 272.7109375 307.702148438 272.7109375 309.557617188 272.739257812 c 128,-1,8
 311.413085938 272.768554688 311.413085938 272.768554688 313.249023438 272.811523438 c 128,-1,9
 315.083984375 272.85546875 315.083984375 272.85546875 316.897460938 272.913085938 c 128,-1,10
 318.7109375 272.970703125 318.7109375 272.970703125 320.5 273.041992188 c 128,-1,11
 322.2890625 273.114257812 322.2890625 273.114257812 324.05859375 273.200195312 c 0,12,13
 329.348632812 273.45703125 329.348632812 273.45703125 334.470703125 273.840820312 c 128,-1,14
 339.592773438 274.225585938 339.592773438 274.225585938 344.530273438 274.733398438 c 0,15,16
 354.310546875 275.741210938 354.310546875 275.741210938 363.44140625 277.2421875 c 128,-1,17
 372.42578125 278.71875 372.42578125 278.71875 380.783203125 280.673828125 c 2,18,-1
 396.565429688 284.970703125 l 2,19,20
 408.8046875 288.810546875 408.8046875 288.810546875 419.362304688 293.864257812 c 0,21,22
 429.514648438 298.723632812 429.514648438 298.723632812 438.14453125 304.73828125 c 0,23,24
 446.5 310.561523438 446.5 310.561523438 453.42578125 317.487304688 c 0,25,26
 504.10546875 368.165039062 504.10546875 368.165039062 504.10546875 482.967773438 c 2,27,-1
 504.10546875 761.530273438 l 1,28,-1
 767.453125 761.530273438 l 1,29,-1
 767.453125 482.911132812 l 2,30,31
 767.357421875 445.372070312 767.357421875 445.372070312 764.302734375 410.53125 c 128,-1,32
 761.248046875 375.690429688 761.248046875 375.690429688 755.080078125 342.861328125 c 128,-1,33
 748.912109375 310.033203125 748.912109375 310.033203125 739.627929688 279.717773438 c 0,34,35
 711.15234375 187.350585938 711.15234375 187.350585938 653.862304688 118.850585938 c 0,0,1
EndSplineSet
EndChar

StartChar: guillemotleft
Encoding: 171 171 291
Width: 1320
VWidth: 38
Flags: W
LayerCount: 2
Fore
SplineSet
1131.57714844 1105.97460938 m 1,0,-1
 1131.57714844 782.525390625 l 1,1,-1
 909.416015625 592.747070312 l 1,2,3
 864.667785234 552.594300184 864.667785234 552.594300184 873.886980173 527.071503388 c 128,-1,4
 883.106175112 501.548706592 883.106175112 501.548706592 913.799804688 474.036132812 c 1,5,-1
 1131.57714844 288.171875 l 1,6,-1
 1131.57714844 -35.283203125 l 1,7,-1
 753.889648438 288.795898438 l 2,8,9
 642.926208675 382.700935921 642.926208675 382.700935921 622.623260588 472.796268741 c 0,10,11
 585.142594698 639.118570955 585.142594698 639.118570955 756.203125 783.844726562 c 1,12,-1
 1131.57714844 1105.97460938 l 1,0,-1
672.689453125 1104.65429688 m 1,13,-1
 672.689453125 781.938476562 l 1,14,-1
 441.005859375 592.453125 l 1,15,16
 377.347441339 535.324968651 377.347441339 535.324968651 445.379882812 474.33984375 c 1,17,-1
 672.689453125 288.771484375 l 1,18,-1
 672.689453125 -33.9970703125 l 1,19,-1
 288.466796875 289.022460938 l 1,20,21
 97.5934834675 459.132067352 97.5934834675 459.132067352 179.134765625 640.434570312 c 0,22,23
 212.002929688 713.514648438 212.002929688 713.514648438 290.665039062 783.622070312 c 1,24,-1
 672.689453125 1104.65429688 l 1,13,-1
EndSplineSet
EndChar

StartChar: guillemotright
Encoding: 187 187 292
Width: 1311
VWidth: 38
Flags: W
LayerCount: 2
Fore
SplineSet
188.875976562 1105.97460938 m 1,0,-1
 564.249023438 783.845703125 l 1,1,2
 721.098523578 651.148548842 721.098523578 651.148548842 704.380859375 508.28515625 c 0,3,4
 691.019053396 394.094846802 691.019053396 394.094846802 566.5625 288.796875 c 1,5,-1
 188.875976562 -35.283203125 l 1,6,-1
 188.875976562 288.171875 l 1,7,-1
 406.662109375 474.043945312 l 1,8,9
 450.30854454 513.147588261 450.30854454 513.147588261 447.793140212 537.715698599 c 128,-1,10
 445.277735883 562.283808937 445.277735883 562.283808937 411.140625 592.658203125 c 2,11,-1
 188.875976562 782.525390625 l 1,12,-1
 188.875976562 1105.97460938 l 1,0,-1
647.763671875 1104.65429688 m 1,13,-1
 1029.78710938 783.623046875 l 1,14,15
 1308.36247806 535.348438232 1308.36247806 535.348438232 1031.98730469 289.0234375 c 1,16,-1
 647.763671875 -33.9970703125 l 1,17,-1
 647.763671875 288.771484375 l 1,18,-1
 875.069335938 474.3359375 l 1,19,20
 943.092977752 535.332605454 943.092977752 535.332605454 879.448242188 592.452148438 c 1,21,-1
 647.763671875 781.938476562 l 1,22,-1
 647.763671875 1104.65429688 l 1,13,-1
EndSplineSet
EndChar

